<?xml version="1.0" encoding="UTF-8"?>
<svg xmlns="http://www.w3.org/2000/svg" xmlns:xlink="http://www.w3.org/1999/xlink" width="690px" height="351px" viewBox="0 0 690 351" version="1.1">
<g id="surface1">
<path style="fill-rule:nonzero;fill:rgb(100%,100%,100%);fill-opacity:1;stroke-width:0.5;stroke-linecap:butt;stroke-linejoin:round;stroke:rgb(0%,0%,0%);stroke-opacity:1;stroke-miterlimit:4;" d="M 106.272135 56.835938 C 106.272135 39.191406 102.016927 34.936198 84.373698 34.936198 L 52.942708 34.936198 L 52.942708 108.713542 L 84.373698 108.713542 C 102.016927 108.713542 106.272135 104.459635 106.272135 86.815104 Z M 106.272135 56.835938 " transform="matrix(3,0,0,3,0,0)"/>
<path style="fill-rule:nonzero;fill:rgb(75.294119%,89.411765%,100%);fill-opacity:1;stroke-width:0.5;stroke-linecap:butt;stroke-linejoin:round;stroke:rgb(0%,0%,0%);stroke-opacity:1;stroke-miterlimit:4;" d="M 78.097656 56.835938 L 78.097656 86.808594 C 78.097656 104.453125 73.842448 108.708333 56.199219 108.708333 L 81.244792 108.708333 C 98.888021 108.708333 103.143229 104.453125 103.143229 86.808594 L 103.143229 56.835938 Z M 78.097656 56.835938 " transform="matrix(3,0,0,3,0,0)"/>
<path style="fill-rule:nonzero;fill:rgb(0%,50.196081%,100%);fill-opacity:1;stroke-width:0.5;stroke-linecap:butt;stroke-linejoin:round;stroke:rgb(0%,0%,0%);stroke-opacity:1;stroke-miterlimit:4;" d="M 74.841146 56.835938 C 74.841146 39.191406 70.585938 34.936198 52.942708 34.936198 L 22.970052 34.936198 C 5.326823 34.936198 1.071615 39.191406 1.071615 56.835938 L 1.071615 86.808594 C 1.071615 104.453125 5.326823 108.708333 22.970052 108.708333 L 52.942708 108.708333 C 70.585938 108.708333 74.841146 104.453125 74.841146 86.808594 Z M 74.841146 56.835938 " transform="matrix(3,0,0,3,0,0)"/>
<path style="fill-rule:nonzero;fill:rgb(75.294119%,89.411765%,100%);fill-opacity:1;stroke-width:0.5;stroke-linecap:butt;stroke-linejoin:round;stroke:rgb(0%,0%,0%);stroke-opacity:1;stroke-miterlimit:4;" d="M 35.130208 99.302083 C 35.130208 99.302083 35.160156 99.313802 35.171875 99.325521 C 33.459635 98.358073 32.303385 96.523438 32.303385 94.411458 C 32.303385 91.294271 34.833333 88.764323 37.950521 88.764323 C 39.033854 88.764323 40.044271 89.072917 40.903646 89.605469 C 40.861979 89.580729 40.81901 89.550781 40.777344 89.520833 C 33.132812 85.108073 30.233073 75.598958 33.871094 67.742188 C 28.072917 70.436198 24.035156 76.313802 24.035156 83.117188 C 24.035156 84.139323 23.763021 85.101562 23.285156 85.924479 C 25.596354 91.365885 29.627604 96.123698 35.123698 99.302083 Z M 35.130208 99.302083 " transform="matrix(3,0,0,3,0,0)"/>
<path style="fill-rule:nonzero;fill:rgb(75.294119%,89.411765%,100%);fill-opacity:1;stroke-width:0.5;stroke-linecap:butt;stroke-linejoin:round;stroke:rgb(0%,0%,0%);stroke-opacity:1;stroke-miterlimit:4;" d="M 15.567708 55.636719 C 15.567708 55.636719 15.542969 55.654948 15.52474 55.666667 C 17.220052 54.667969 19.386719 54.583333 21.214844 55.636719 C 23.914062 57.199219 24.839844 60.648438 23.285156 63.354167 C 22.746094 64.292969 21.971354 65.013021 21.082031 65.490885 C 21.123698 65.466146 21.171875 65.449219 21.214844 65.424479 C 28.859375 61.011719 38.53776 63.251302 43.52474 70.333333 C 44.09375 63.966146 41.018229 57.53125 35.130208 54.130208 C 34.246094 53.615885 33.549479 52.901042 33.071615 52.078125 C 27.207031 51.363281 21.06901 52.471354 15.567708 55.643229 Z M 15.567708 55.636719 " transform="matrix(3,0,0,3,0,0)"/>
<path style="fill-rule:nonzero;fill:rgb(75.294119%,89.411765%,100%);fill-opacity:1;stroke-width:0.5;stroke-linecap:butt;stroke-linejoin:round;stroke:rgb(0%,0%,0%);stroke-opacity:1;stroke-miterlimit:4;" d="M 60.345052 88.007812 C 60.345052 88.007812 60.36849 87.989583 60.386719 87.976562 C 58.692708 88.97526 56.526042 89.059896 54.697917 88.007812 C 51.998698 86.445312 51.072917 82.996094 52.627604 80.290365 C 53.166667 79.351562 53.941406 78.63151 54.830729 78.153646 C 54.789062 78.177083 54.739583 78.195312 54.697917 78.220052 C 47.053385 82.632812 37.375 80.393229 32.388021 73.311198 C 31.81901 79.678385 34.893229 86.113281 40.782552 89.514323 C 41.666667 90.028646 42.361979 90.74349 42.841146 91.566406 C 48.705729 92.279948 54.84375 91.173177 60.345052 88.001302 Z M 60.345052 88.007812 " transform="matrix(3,0,0,3,0,0)"/>
<path style="fill-rule:nonzero;fill:rgb(75.294119%,89.411765%,100%);fill-opacity:1;stroke-width:0.5;stroke-linecap:butt;stroke-linejoin:round;stroke:rgb(0%,0%,0%);stroke-opacity:1;stroke-miterlimit:4;" d="M 12.747396 83.117188 C 12.747396 83.117188 12.747396 83.147135 12.747396 83.165365 C 12.734375 81.197917 13.739583 79.278646 15.567708 78.226562 C 18.266927 76.664062 21.722656 77.589844 23.285156 80.295573 C 23.822917 81.234375 24.059896 82.263021 24.035156 83.273438 C 24.035156 83.22526 24.041667 83.170573 24.041667 83.122396 C 24.041667 74.298177 30.820312 67.033854 39.445312 66.253906 C 34.216146 62.579427 27.109375 62.022135 21.214844 65.424479 C 20.330729 65.938802 19.361979 66.18099 18.40625 66.18099 C 14.852865 70.902344 12.747396 76.773438 12.747396 83.122396 Z M 12.747396 83.117188 " transform="matrix(3,0,0,3,0,0)"/>
<path style="fill-rule:nonzero;fill:rgb(75.294119%,89.411765%,100%);fill-opacity:1;stroke-width:0.5;stroke-linecap:butt;stroke-linejoin:round;stroke:rgb(0%,0%,0%);stroke-opacity:1;stroke-miterlimit:4;" d="M 63.165365 60.527344 C 63.165365 60.527344 63.165365 60.497396 63.165365 60.479167 C 63.177083 62.446615 62.173177 64.364583 60.345052 65.417969 C 57.645833 66.980469 54.188802 66.053385 52.627604 63.347656 C 52.088542 62.410156 51.852865 61.38151 51.877604 60.369792 C 51.877604 60.419271 51.871094 60.472656 51.871094 60.522135 C 51.871094 69.346354 45.092448 76.609375 36.467448 77.390625 C 41.696615 81.065104 48.802083 81.621094 54.697917 78.220052 C 55.582031 77.705729 56.549479 77.463542 57.50651 77.463542 C 61.058594 72.742188 63.165365 66.871094 63.165365 60.522135 Z M 63.165365 60.527344 " transform="matrix(3,0,0,3,0,0)"/>
<path style="fill-rule:nonzero;fill:rgb(75.294119%,89.411765%,100%);fill-opacity:1;stroke-width:0.5;stroke-linecap:butt;stroke-linejoin:round;stroke:rgb(0%,0%,0%);stroke-opacity:1;stroke-miterlimit:4;" d="M 40.777344 44.342448 C 40.777344 44.342448 40.746094 44.330729 40.734375 44.31901 C 42.446615 45.286458 43.602865 47.121094 43.602865 49.233073 C 43.602865 52.35026 41.072917 54.880208 37.955729 54.880208 C 36.872396 54.880208 35.861979 54.571615 35.002604 54.039062 C 35.044271 54.063802 35.08724 54.09375 35.128906 54.123698 C 42.773438 58.536458 45.673177 68.045573 42.035156 75.902344 C 47.834635 73.208333 51.871094 67.330729 51.871094 60.527344 C 51.871094 59.505208 52.143229 58.542969 52.621094 57.71875 C 50.309896 52.277344 46.278646 47.520833 40.782552 44.342448 Z M 40.777344 44.342448 " transform="matrix(3,0,0,3,0,0)"/>
<path style="fill-rule:nonzero;fill:rgb(75.294119%,89.411765%,100%);fill-opacity:1;stroke-width:0.5;stroke-linecap:butt;stroke-linejoin:round;stroke:rgb(0%,0%,0%);stroke-opacity:1;stroke-miterlimit:4;" d="M 57.518229 66.174479 C 60.636719 66.174479 63.165365 63.647135 63.165365 60.527344 C 63.165365 57.408854 60.636719 54.880208 57.518229 54.880208 C 54.39974 54.880208 51.871094 57.408854 51.871094 60.527344 C 51.871094 63.647135 54.39974 66.174479 57.518229 66.174479 Z M 57.518229 66.174479 " transform="matrix(3,0,0,3,0,0)"/>
<path style="fill-rule:nonzero;fill:rgb(100%,100%,100%);fill-opacity:1;stroke-width:0.5;stroke-linecap:butt;stroke-linejoin:round;stroke:rgb(0%,0%,0%);stroke-opacity:1;stroke-miterlimit:4;" d="M 57.518229 66.174479 C 60.636719 66.174479 63.165365 63.647135 63.165365 60.527344 C 63.165365 57.408854 60.636719 54.880208 57.518229 54.880208 C 54.39974 54.880208 51.871094 57.408854 51.871094 60.527344 C 51.871094 63.647135 54.39974 66.174479 57.518229 66.174479 Z M 57.518229 66.174479 " transform="matrix(3,0,0,3,0,0)"/>
<path style="fill-rule:nonzero;fill:rgb(100%,100%,100%);fill-opacity:1;stroke-width:0.5;stroke-linecap:butt;stroke-linejoin:round;stroke:rgb(0%,0%,0%);stroke-opacity:1;stroke-miterlimit:4;" d="M 18.394531 88.764323 C 21.513021 88.764323 24.040365 86.235677 24.040365 83.117188 C 24.040365 79.997396 21.513021 77.46875 18.394531 77.46875 C 15.27474 77.46875 12.747396 79.997396 12.747396 83.117188 C 12.747396 86.235677 15.27474 88.764323 18.394531 88.764323 Z M 18.394531 88.764323 " transform="matrix(3,0,0,3,0,0)"/>
<path style="fill-rule:nonzero;fill:rgb(100%,100%,100%);fill-opacity:1;stroke-width:0.5;stroke-linecap:butt;stroke-linejoin:round;stroke:rgb(0%,0%,0%);stroke-opacity:1;stroke-miterlimit:4;" d="M 37.955729 54.880208 C 41.075521 54.880208 43.602865 52.351562 43.602865 49.233073 C 43.602865 46.114583 41.075521 43.585938 37.955729 43.585938 C 34.83724 43.585938 32.308594 46.114583 32.308594 49.233073 C 32.308594 52.351562 34.83724 54.880208 37.955729 54.880208 Z M 37.955729 54.880208 " transform="matrix(3,0,0,3,0,0)"/>
<path style="fill-rule:nonzero;fill:rgb(100%,100%,100%);fill-opacity:1;stroke-width:0.5;stroke-linecap:butt;stroke-linejoin:round;stroke:rgb(0%,0%,0%);stroke-opacity:1;stroke-miterlimit:4;" d="M 37.955729 100.058594 C 41.075521 100.058594 43.602865 97.529948 43.602865 94.411458 C 43.602865 91.291667 41.075521 88.764323 37.955729 88.764323 C 34.83724 88.764323 32.308594 91.291667 32.308594 94.411458 C 32.308594 97.529948 34.83724 100.058594 37.955729 100.058594 Z M 37.955729 100.058594 " transform="matrix(3,0,0,3,0,0)"/>
<path style="fill-rule:nonzero;fill:rgb(100%,100%,100%);fill-opacity:1;stroke-width:0.5;stroke-linecap:butt;stroke-linejoin:round;stroke:rgb(0%,0%,0%);stroke-opacity:1;stroke-miterlimit:4;" d="M 18.394531 66.174479 C 21.513021 66.174479 24.040365 63.647135 24.040365 60.527344 C 24.040365 57.408854 21.513021 54.880208 18.394531 54.880208 C 15.27474 54.880208 12.747396 57.408854 12.747396 60.527344 C 12.747396 63.647135 15.27474 66.174479 18.394531 66.174479 Z M 18.394531 66.174479 " transform="matrix(3,0,0,3,0,0)"/>
<path style="fill-rule:nonzero;fill:rgb(100%,100%,100%);fill-opacity:1;stroke-width:0.5;stroke-linecap:butt;stroke-linejoin:round;stroke:rgb(0%,0%,0%);stroke-opacity:1;stroke-miterlimit:4;" d="M 57.518229 88.764323 C 60.636719 88.764323 63.165365 86.235677 63.165365 83.117188 C 63.165365 79.997396 60.636719 77.46875 57.518229 77.46875 C 54.39974 77.46875 51.871094 79.997396 51.871094 83.117188 C 51.871094 86.235677 54.39974 88.764323 57.518229 88.764323 Z M 57.518229 88.764323 " transform="matrix(3,0,0,3,0,0)"/>
<path style="fill-rule:nonzero;fill:rgb(0%,0%,0%);fill-opacity:1;stroke-width:0.5;stroke-linecap:butt;stroke-linejoin:round;stroke:rgb(0%,0%,0%);stroke-opacity:1;stroke-miterlimit:4;" d="M 103.173177 53.821615 L 78.097656 53.821615 L 78.097656 56.829427 L 103.173177 56.829427 Z M 103.173177 53.821615 " transform="matrix(3,0,0,3,0,0)"/>
<path style="fill-rule:nonzero;fill:rgb(100%,100%,100%);fill-opacity:1;stroke-width:0.5;stroke-linecap:butt;stroke-linejoin:round;stroke:rgb(0%,0%,0%);stroke-opacity:1;stroke-miterlimit:4;" d="M 220.03125 71.821615 L 194.954427 71.821615 L 204.184896 82.365885 L 229.260417 82.365885 C 229.260417 82.365885 228.898438 71.821615 220.03125 71.821615 Z M 220.03125 71.821615 " transform="matrix(3,0,0,3,0,0)"/>
<path style="fill-rule:nonzero;fill:rgb(75.294119%,89.411765%,100%);fill-opacity:1;stroke-width:0.5;stroke-linecap:butt;stroke-linejoin:round;stroke:rgb(0%,0%,0%);stroke-opacity:1;stroke-miterlimit:4;" d="M 204.178385 82.365885 C 204.178385 82.365885 203.816406 71.821615 194.949219 71.821615 C 191.548177 71.821615 189.35026 74.085938 187.679688 77.354167 L 173.25 101.165365 L 198.326823 101.165365 C 205.953125 101.165365 207.852865 90.779948 210.716146 82.365885 Z M 204.178385 82.365885 " transform="matrix(3,0,0,3,0,0)"/>
<path style="fill-rule:nonzero;fill:rgb(100%,100%,100%);fill-opacity:1;stroke-width:0.5;stroke-linecap:butt;stroke-linejoin:round;stroke:rgb(0%,0%,0%);stroke-opacity:1;stroke-miterlimit:4;" d="M 171.15625 24.768229 L 146.079427 24.768229 L 157.615885 35.365885 C 164.848958 56.345052 158.196615 101.160156 173.25 101.160156 C 182.510417 101.160156 183.328125 85.852865 187.679688 77.347656 C 185.736979 54.928385 186.778646 24.768229 171.14974 24.768229 Z M 171.15625 24.768229 " transform="matrix(3,0,0,3,0,0)"/>
<path style="fill-rule:nonzero;fill:rgb(75.294119%,89.411765%,100%);fill-opacity:1;stroke-width:0.5;stroke-linecap:butt;stroke-linejoin:round;stroke:rgb(0%,0%,0%);stroke-opacity:1;stroke-miterlimit:4;" d="M 146.074219 24.768229 C 121.954427 24.768229 131.123698 78.740885 119.042969 100.125 L 105.388021 108.708333 L 130.463542 108.708333 C 155.588542 108.708333 148.046875 57.9375 157.609375 35.365885 C 155.401042 28.957031 151.890625 24.768229 146.074219 24.768229 Z M 146.074219 24.768229 " transform="matrix(3,0,0,3,0,0)"/>
<path style="fill-rule:nonzero;fill:rgb(100%,100%,100%);fill-opacity:1;stroke-width:0.5;stroke-linecap:butt;stroke-linejoin:round;stroke:rgb(0%,0%,0%);stroke-opacity:1;stroke-miterlimit:4;" d="M 103.178385 56.835938 L 78.102865 56.835938 C 91.908854 56.835938 84.380208 108.713542 105.394531 108.713542 C 111.791667 108.713542 116.065104 105.415365 119.049479 100.13151 C 111.919271 85.391927 113.420573 56.841146 103.178385 56.841146 Z M 103.178385 56.835938 " transform="matrix(3,0,0,3,0,0)"/>
<path style="fill-rule:nonzero;fill:rgb(0%,0%,0%);fill-opacity:1;stroke-width:0.5;stroke-linecap:butt;stroke-linejoin:round;stroke:rgb(0%,0%,0%);stroke-opacity:1;stroke-miterlimit:4;" d="M 135.325521 30.348958 L 153.972656 48.997396 C 154.856771 43.894531 155.988281 39.221354 157.617188 35.372396 C 155.407552 28.96224 151.897135 24.773438 146.079427 24.773438 C 141.352865 24.773438 137.908854 26.855469 135.325521 30.348958 Z M 135.325521 30.348958 " transform="matrix(3,0,0,3,0,0)"/>
<path style="fill-rule:nonzero;fill:rgb(0%,0%,0%);fill-opacity:1;stroke-width:0.5;stroke-linecap:butt;stroke-linejoin:round;stroke:rgb(0%,0%,0%);stroke-opacity:1;stroke-miterlimit:4;" d="M 194.954427 71.821615 C 192.673177 71.821615 190.929688 72.845052 189.526042 74.509115 L 207.404948 92.389323 C 208.627604 89.235677 209.601562 85.652344 210.721354 82.372396 L 204.184896 82.372396 C 204.184896 82.372396 203.821615 71.828125 194.954427 71.828125 Z M 194.954427 71.821615 " transform="matrix(3,0,0,3,0,0)"/>
<path style="fill:none;stroke-width:0.5;stroke-linecap:butt;stroke-linejoin:round;stroke:rgb(0%,0%,0%);stroke-opacity:1;stroke-miterlimit:4;" d="M 155.83724 26.802083 L 173.65625 26.802083 " transform="matrix(3,0,0,3,0,0)"/>
<path style="fill:none;stroke-width:0.5;stroke-linecap:butt;stroke-linejoin:round;stroke:rgb(0%,0%,0%);stroke-opacity:1;stroke-miterlimit:4;" d="M 160.401042 32.854167 L 178.074219 32.854167 " transform="matrix(3,0,0,3,0,0)"/>
<path style="fill:none;stroke-width:0.5;stroke-linecap:butt;stroke-linejoin:round;stroke:rgb(0%,0%,0%);stroke-opacity:1;stroke-miterlimit:4;" d="M 162.289062 38.907552 L 180.101562 38.907552 " transform="matrix(3,0,0,3,0,0)"/>
<path style="fill:none;stroke-width:0.5;stroke-linecap:butt;stroke-linejoin:round;stroke:rgb(0%,0%,0%);stroke-opacity:1;stroke-miterlimit:4;" d="M 163.5 44.959635 L 181.282552 44.959635 " transform="matrix(3,0,0,3,0,0)"/>
<path style="fill:none;stroke-width:0.5;stroke-linecap:butt;stroke-linejoin:round;stroke:rgb(0%,0%,0%);stroke-opacity:1;stroke-miterlimit:4;" d="M 164.316406 51.013021 L 182.105469 51.013021 " transform="matrix(3,0,0,3,0,0)"/>
<path style="fill:none;stroke-width:0.5;stroke-linecap:butt;stroke-linejoin:round;stroke:rgb(0%,0%,0%);stroke-opacity:1;stroke-miterlimit:4;" d="M 171.325521 63.11849 L 183.074219 63.11849 " transform="matrix(3,0,0,3,0,0)"/>
<path style="fill:none;stroke-width:0.5;stroke-linecap:butt;stroke-linejoin:round;stroke:rgb(0%,0%,0%);stroke-opacity:1;stroke-miterlimit:4;" d="M 165.635417 69.170573 L 183.454427 69.170573 " transform="matrix(3,0,0,3,0,0)"/>
<path style="fill:none;stroke-width:0.5;stroke-linecap:butt;stroke-linejoin:round;stroke:rgb(0%,0%,0%);stroke-opacity:1;stroke-miterlimit:4;" d="M 166.078125 75.223958 L 183.890625 75.223958 " transform="matrix(3,0,0,3,0,0)"/>
<path style="fill:none;stroke-width:0.5;stroke-linecap:butt;stroke-linejoin:round;stroke:rgb(0%,0%,0%);stroke-opacity:1;stroke-miterlimit:4;" d="M 205.432292 75.296875 L 223.239583 75.296875 " transform="matrix(3,0,0,3,0,0)"/>
<path style="fill:none;stroke-width:0.5;stroke-linecap:butt;stroke-linejoin:round;stroke:rgb(0%,0%,0%);stroke-opacity:1;stroke-miterlimit:4;" d="M 166.617188 81.276042 L 186.020833 81.276042 " transform="matrix(3,0,0,3,0,0)"/>
<path style="fill:none;stroke-width:0.5;stroke-linecap:butt;stroke-linejoin:round;stroke:rgb(0%,0%,0%);stroke-opacity:1;stroke-miterlimit:4;" d="M 167.470052 87.329427 L 184.053385 87.329427 " transform="matrix(3,0,0,3,0,0)"/>
<path style="fill:none;stroke-width:0.5;stroke-linecap:butt;stroke-linejoin:round;stroke:rgb(0%,0%,0%);stroke-opacity:1;stroke-miterlimit:4;" d="M 168.880208 93.38151 L 181.924479 93.38151 " transform="matrix(3,0,0,3,0,0)"/>
<path style="fill:none;stroke-width:0.5;stroke-linecap:butt;stroke-linejoin:round;stroke:rgb(0%,0%,0%);stroke-opacity:1;stroke-miterlimit:4;" d="M 172.438802 99.434896 L 177.964844 99.434896 " transform="matrix(3,0,0,3,0,0)"/>
<path style="fill:none;stroke-width:0.5;stroke-linecap:butt;stroke-linejoin:round;stroke:rgb(0%,0%,0%);stroke-opacity:1;stroke-miterlimit:4;" d="M 85.239583 58.251302 L 103.657552 58.251302 " transform="matrix(3,0,0,3,0,0)"/>
<path style="fill:none;stroke-width:0.5;stroke-linecap:butt;stroke-linejoin:round;stroke:rgb(0%,0%,0%);stroke-opacity:1;stroke-miterlimit:4;" d="M 88.652344 64.304688 L 107.071615 64.304688 " transform="matrix(3,0,0,3,0,0)"/>
<path style="fill:none;stroke-width:0.5;stroke-linecap:butt;stroke-linejoin:round;stroke:rgb(0%,0%,0%);stroke-opacity:1;stroke-miterlimit:4;" d="M 90.286458 70.356771 L 108.704427 70.356771 " transform="matrix(3,0,0,3,0,0)"/>
<path style="fill:none;stroke-width:0.5;stroke-linecap:butt;stroke-linejoin:round;stroke:rgb(0%,0%,0%);stroke-opacity:1;stroke-miterlimit:4;" d="M 98.664062 82.463542 L 111.035156 82.463542 " transform="matrix(3,0,0,3,0,0)"/>
<path style="fill:none;stroke-width:0.5;stroke-linecap:butt;stroke-linejoin:round;stroke:rgb(0%,0%,0%);stroke-opacity:1;stroke-miterlimit:4;" d="M 93.851562 88.515625 L 112.276042 88.515625 " transform="matrix(3,0,0,3,0,0)"/>
<path style="fill:none;stroke-width:0.5;stroke-linecap:butt;stroke-linejoin:round;stroke:rgb(0%,0%,0%);stroke-opacity:1;stroke-miterlimit:4;" d="M 95.455729 94.56901 L 113.880208 94.56901 " transform="matrix(3,0,0,3,0,0)"/>
<path style="fill:none;stroke-width:0.5;stroke-linecap:butt;stroke-linejoin:round;stroke:rgb(0%,0%,0%);stroke-opacity:1;stroke-miterlimit:4;" d="M 97.841146 100.621094 L 116.9375 100.621094 " transform="matrix(3,0,0,3,0,0)"/>
<path style="fill:none;stroke-width:0.5;stroke-linecap:butt;stroke-linejoin:round;stroke:rgb(0%,0%,0%);stroke-opacity:1;stroke-miterlimit:4;" d="M 102.652344 106.674479 L 112.941406 106.674479 " transform="matrix(3,0,0,3,0,0)"/>
<path style="fill:none;stroke-width:0.5;stroke-linecap:butt;stroke-linejoin:round;stroke:rgb(0%,0%,0%);stroke-opacity:1;stroke-miterlimit:4;" d="M 98.572917 108.708333 L 146.467448 108.708333 " transform="matrix(3,0,0,3,0,0)"/>
<path style="fill-rule:nonzero;fill:rgb(0%,0%,0%);fill-opacity:1;stroke-width:0.5;stroke-linecap:butt;stroke-linejoin:round;stroke:rgb(0%,0%,0%);stroke-opacity:1;stroke-miterlimit:4;" d="M 12.263021 11.143229 L 12.263021 24.834635 C 12.263021 26.66276 13.746094 28.145833 15.572917 28.145833 L 27.557292 28.145833 L 31.994792 32.582031 L 36.43099 28.145833 L 88.169271 28.145833 C 89.996094 28.145833 91.479167 26.66276 91.479167 24.834635 L 91.479167 11.143229 C 91.479167 9.315104 89.996094 7.832031 88.169271 7.832031 L 15.572917 7.832031 C 13.746094 7.832031 12.263021 9.315104 12.263021 11.143229 Z M 12.263021 11.143229 " transform="matrix(3,0,0,3,0,0)"/>
<path style=" stroke:none;fill-rule:nonzero;fill:rgb(100%,100%,100%);fill-opacity:1;" d="M 66.058594 40.019531 L 74.394531 40.019531 L 74.394531 60.757812 L 79.714844 60.757812 L 79.714844 63.171875 L 66.058594 63.171875 L 66.058594 60.757812 L 71.597656 60.757812 L 71.597656 42.4375 L 66.058594 42.4375 L 66.058594 40.003906 Z M 66.058594 40.019531 "/>
<path style=" stroke:none;fill-rule:nonzero;fill:rgb(100%,100%,100%);fill-opacity:1;" d="M 83.34375 54.855469 C 83.34375 53.675781 83.507812 52.585938 83.855469 51.570312 C 84.199219 50.550781 84.6875 49.679688 85.324219 48.9375 C 85.960938 48.191406 86.742188 47.609375 87.648438 47.175781 C 88.554688 46.757812 89.589844 46.539062 90.734375 46.539062 C 91.878906 46.539062 92.933594 46.757812 93.839844 47.175781 C 94.765625 47.609375 95.53125 48.191406 96.183594 48.9375 C 96.835938 49.679688 97.308594 50.550781 97.652344 51.570312 C 98 52.585938 98.160156 53.675781 98.160156 54.855469 L 98.160156 55.183594 C 98.160156 56.363281 98 57.453125 97.652344 58.453125 C 97.308594 59.449219 96.820312 60.320312 96.183594 61.066406 C 95.546875 61.8125 94.765625 62.390625 93.859375 62.808594 C 92.949219 63.226562 91.914062 63.445312 90.773438 63.445312 C 89.628906 63.445312 88.574219 63.226562 87.667969 62.808594 C 86.742188 62.390625 85.976562 61.8125 85.324219 61.066406 C 84.671875 60.320312 84.199219 59.449219 83.855469 58.453125 C 83.507812 57.453125 83.34375 56.363281 83.34375 55.183594 Z M 86.140625 55.183594 C 86.140625 55.980469 86.230469 56.746094 86.433594 57.488281 C 86.632812 58.214844 86.90625 58.851562 87.304688 59.414062 C 87.703125 59.976562 88.175781 60.394531 88.757812 60.722656 C 89.335938 61.046875 90.007812 61.210938 90.789062 61.210938 C 91.570312 61.210938 92.222656 61.046875 92.804688 60.722656 C 93.386719 60.394531 93.859375 59.957031 94.257812 59.414062 C 94.65625 58.871094 94.929688 58.214844 95.128906 57.488281 C 95.328125 56.761719 95.421875 56 95.421875 55.183594 L 95.421875 54.855469 C 95.421875 54.058594 95.328125 53.292969 95.128906 52.570312 C 94.929688 51.84375 94.640625 51.207031 94.257812 50.644531 C 93.875 50.082031 93.386719 49.644531 92.804688 49.316406 C 92.222656 48.992188 91.550781 48.828125 90.773438 48.828125 C 89.992188 48.828125 89.320312 48.992188 88.757812 49.316406 C 88.175781 49.644531 87.703125 50.082031 87.320312 50.644531 C 86.941406 51.207031 86.648438 51.84375 86.449219 52.570312 C 86.25 53.292969 86.160156 54.058594 86.160156 54.855469 L 86.160156 55.183594 Z M 86.140625 55.183594 "/>
<path style=" stroke:none;fill-rule:nonzero;fill:rgb(100%,100%,100%);fill-opacity:1;" d="M 102.15625 54.875 C 102.15625 53.65625 102.300781 52.53125 102.609375 51.515625 C 102.902344 50.5 103.335938 49.625 103.898438 48.882812 C 104.460938 48.15625 105.152344 47.574219 105.953125 47.15625 C 106.75 46.738281 107.660156 46.539062 108.675781 46.539062 C 109.691406 46.539062 110.5625 46.722656 111.328125 47.066406 C 112.089844 47.429688 112.726562 47.9375 113.269531 48.609375 L 113.394531 46.832031 L 115.921875 46.832031 L 115.921875 62.792969 C 115.921875 63.863281 115.757812 64.824219 115.410156 65.660156 C 115.066406 66.496094 114.59375 67.203125 113.996094 67.785156 C 113.394531 68.367188 112.652344 68.800781 111.816406 69.109375 C 110.980469 69.417969 110.039062 69.566406 109.019531 69.566406 C 108.601562 69.566406 108.113281 69.511719 107.566406 69.417969 C 107.023438 69.328125 106.476562 69.164062 105.914062 68.945312 C 105.351562 68.730469 104.824219 68.4375 104.300781 68.074219 C 103.773438 67.710938 103.335938 67.257812 102.972656 66.730469 L 104.425781 65.0625 C 104.769531 65.480469 105.117188 65.824219 105.480469 66.113281 C 105.84375 66.40625 106.207031 66.621094 106.585938 66.804688 C 106.96875 66.96875 107.332031 67.09375 107.714844 67.167969 C 108.078125 67.238281 108.457031 67.277344 108.820312 67.277344 C 109.492188 67.277344 110.089844 67.1875 110.617188 66.984375 C 111.144531 66.785156 111.597656 66.515625 111.980469 66.152344 C 112.363281 65.789062 112.652344 65.332031 112.851562 64.789062 C 113.050781 64.242188 113.160156 63.625 113.160156 62.917969 L 113.160156 61.519531 C 112.617188 62.136719 111.980469 62.609375 111.234375 62.9375 C 110.492188 63.261719 109.636719 63.425781 108.65625 63.425781 C 107.675781 63.425781 106.769531 63.210938 105.953125 62.792969 C 105.152344 62.375 104.460938 61.792969 103.917969 61.046875 C 103.355469 60.304688 102.9375 59.433594 102.628906 58.414062 C 102.320312 57.398438 102.175781 56.308594 102.175781 55.148438 L 102.175781 54.839844 Z M 104.953125 55.183594 C 104.953125 55.980469 105.042969 56.726562 105.207031 57.453125 C 105.371094 58.160156 105.644531 58.796875 105.988281 59.339844 C 106.332031 59.886719 106.804688 60.320312 107.351562 60.628906 C 107.894531 60.9375 108.566406 61.101562 109.347656 61.101562 C 109.835938 61.101562 110.253906 61.046875 110.65625 60.921875 C 111.035156 60.8125 111.382812 60.648438 111.691406 60.429688 C 112 60.214844 112.269531 59.976562 112.507812 59.667969 C 112.742188 59.359375 112.960938 59.050781 113.140625 58.707031 L 113.140625 51.226562 C 112.960938 50.878906 112.742188 50.570312 112.507812 50.296875 C 112.269531 50.027344 111.980469 49.773438 111.671875 49.574219 C 111.363281 49.371094 111.019531 49.210938 110.636719 49.082031 C 110.253906 48.972656 109.835938 48.898438 109.367188 48.898438 C 108.585938 48.898438 107.914062 49.0625 107.351562 49.390625 C 106.785156 49.71875 106.332031 50.152344 105.988281 50.699219 C 105.625 51.242188 105.371094 51.878906 105.207031 52.605469 C 105.042969 53.332031 104.953125 54.074219 104.953125 54.875 Z M 104.953125 55.183594 "/>
<path style=" stroke:none;fill-rule:nonzero;fill:rgb(100%,100%,100%);fill-opacity:1;" d="M 120.675781 54.875 C 120.675781 53.65625 120.824219 52.53125 121.132812 51.515625 C 121.421875 50.5 121.859375 49.625 122.421875 48.882812 C 122.984375 48.15625 123.671875 47.574219 124.472656 47.15625 C 125.269531 46.738281 126.179688 46.539062 127.195312 46.539062 C 128.214844 46.539062 129.085938 46.722656 129.847656 47.066406 C 130.609375 47.429688 131.246094 47.9375 131.789062 48.609375 L 131.917969 46.832031 L 134.441406 46.832031 L 134.441406 62.792969 C 134.441406 63.863281 134.277344 64.824219 133.933594 65.660156 C 133.589844 66.496094 133.117188 67.203125 132.515625 67.785156 C 131.917969 68.367188 131.171875 68.800781 130.335938 69.109375 C 129.503906 69.417969 128.558594 69.566406 127.542969 69.566406 C 127.125 69.566406 126.632812 69.511719 126.089844 69.417969 C 125.542969 69.328125 125 69.164062 124.4375 68.945312 C 123.875 68.730469 123.347656 68.4375 122.820312 68.074219 C 122.292969 67.710938 121.859375 67.257812 121.496094 66.730469 L 122.945312 65.0625 C 123.292969 65.480469 123.636719 65.824219 124 66.113281 C 124.363281 66.40625 124.726562 66.621094 125.109375 66.804688 C 125.488281 66.96875 125.851562 67.09375 126.234375 67.167969 C 126.597656 67.238281 126.976562 67.277344 127.339844 67.277344 C 128.011719 67.277344 128.613281 67.1875 129.140625 66.984375 C 129.664062 66.785156 130.121094 66.515625 130.5 66.152344 C 130.882812 65.789062 131.171875 65.332031 131.371094 64.789062 C 131.570312 64.242188 131.679688 63.625 131.679688 62.917969 L 131.679688 61.519531 C 131.136719 62.136719 130.5 62.609375 129.757812 62.9375 C 129.011719 63.261719 128.160156 63.425781 127.179688 63.425781 C 126.199219 63.425781 125.289062 63.210938 124.472656 62.792969 C 123.671875 62.375 122.984375 61.792969 122.4375 61.046875 C 121.875 60.304688 121.457031 59.433594 121.148438 58.414062 C 120.839844 57.398438 120.695312 56.308594 120.695312 55.148438 L 120.695312 54.839844 Z M 123.472656 55.183594 C 123.472656 55.980469 123.566406 56.726562 123.726562 57.453125 C 123.890625 58.160156 124.164062 58.796875 124.507812 59.339844 C 124.855469 59.886719 125.324219 60.320312 125.871094 60.628906 C 126.414062 60.9375 127.085938 61.101562 127.867188 61.101562 C 128.359375 61.101562 128.777344 61.046875 129.175781 60.921875 C 129.558594 60.8125 129.902344 60.648438 130.210938 60.429688 C 130.519531 60.214844 130.792969 59.976562 131.027344 59.667969 C 131.261719 59.359375 131.480469 59.050781 131.664062 58.707031 L 131.664062 51.226562 C 131.480469 50.878906 131.261719 50.570312 131.027344 50.296875 C 130.792969 50.027344 130.5 49.773438 130.191406 49.574219 C 129.882812 49.371094 129.539062 49.210938 129.15625 49.082031 C 128.777344 48.972656 128.359375 48.898438 127.886719 48.898438 C 127.105469 48.898438 126.433594 49.0625 125.871094 49.390625 C 125.308594 49.71875 124.855469 50.152344 124.507812 50.699219 C 124.144531 51.242188 123.890625 51.878906 123.726562 52.605469 C 123.566406 53.332031 123.472656 54.074219 123.472656 54.875 Z M 123.472656 55.183594 "/>
<path style=" stroke:none;fill-rule:nonzero;fill:rgb(100%,100%,100%);fill-opacity:1;" d="M 140.144531 46.867188 L 148.476562 46.867188 L 148.476562 60.757812 L 153.796875 60.757812 L 153.796875 63.171875 L 140.144531 63.171875 L 140.144531 60.757812 L 145.679688 60.757812 L 145.679688 49.28125 L 140.144531 49.28125 L 140.144531 46.847656 Z M 145.335938 42.582031 C 145.335938 42.128906 145.480469 41.726562 145.753906 41.417969 C 146.027344 41.109375 146.445312 40.945312 147.007812 40.945312 C 147.570312 40.945312 147.96875 41.109375 148.257812 41.417969 C 148.550781 41.726562 148.675781 42.128906 148.675781 42.582031 C 148.675781 43.035156 148.53125 43.417969 148.257812 43.707031 C 147.988281 44.015625 147.570312 44.160156 147.007812 44.160156 C 146.445312 44.160156 146.027344 44.015625 145.753906 43.707031 C 145.480469 43.398438 145.335938 43.035156 145.335938 42.582031 Z M 145.335938 42.582031 "/>
<path style=" stroke:none;fill-rule:nonzero;fill:rgb(100%,100%,100%);fill-opacity:1;" d="M 160.734375 46.867188 L 160.933594 49.28125 C 161.53125 48.445312 162.257812 47.773438 163.113281 47.300781 C 163.984375 46.832031 164.945312 46.574219 166 46.574219 C 166.851562 46.574219 167.632812 46.703125 168.324219 46.9375 C 169.015625 47.175781 169.613281 47.554688 170.101562 48.066406 C 170.59375 48.574219 170.976562 49.226562 171.246094 50.007812 C 171.519531 50.789062 171.648438 51.734375 171.648438 52.824219 L 171.648438 63.171875 L 168.851562 63.171875 L 168.851562 52.878906 C 168.851562 52.152344 168.777344 51.535156 168.613281 51.042969 C 168.449219 50.550781 168.214844 50.136719 167.90625 49.828125 C 167.597656 49.519531 167.199219 49.28125 166.742188 49.15625 C 166.289062 49.027344 165.761719 48.9375 165.164062 48.9375 C 164.21875 48.9375 163.402344 49.171875 162.695312 49.644531 C 161.988281 50.117188 161.421875 50.734375 161.007812 51.496094 L 161.007812 63.191406 L 158.210938 63.191406 L 158.210938 46.882812 L 160.714844 46.882812 Z M 160.734375 46.867188 "/>
<path style=" stroke:none;fill-rule:nonzero;fill:rgb(100%,100%,100%);fill-opacity:1;" d="M 176.242188 54.875 C 176.242188 53.65625 176.386719 52.53125 176.695312 51.515625 C 176.984375 50.5 177.421875 49.625 177.984375 48.882812 C 178.546875 48.15625 179.238281 47.574219 180.035156 47.15625 C 180.835938 46.738281 181.742188 46.539062 182.757812 46.539062 C 183.777344 46.539062 184.648438 46.722656 185.410156 47.066406 C 186.171875 47.429688 186.808594 47.9375 187.351562 48.609375 L 187.480469 46.832031 L 190.003906 46.832031 L 190.003906 62.792969 C 190.003906 63.863281 189.839844 64.824219 189.496094 65.660156 C 189.152344 66.496094 188.679688 67.203125 188.078125 67.785156 C 187.480469 68.367188 186.734375 68.800781 185.902344 69.109375 C 185.066406 69.417969 184.121094 69.566406 183.105469 69.566406 C 182.6875 69.566406 182.195312 69.511719 181.652344 69.417969 C 181.105469 69.328125 180.5625 69.164062 180 68.945312 C 179.4375 68.730469 178.910156 68.4375 178.382812 68.074219 C 177.855469 67.710938 177.421875 67.257812 177.058594 66.730469 L 178.511719 65.0625 C 178.855469 65.480469 179.199219 65.824219 179.5625 66.113281 C 179.925781 66.40625 180.289062 66.621094 180.671875 66.804688 C 181.050781 66.96875 181.414062 67.09375 181.796875 67.167969 C 182.160156 67.238281 182.542969 67.277344 182.90625 67.277344 C 183.578125 67.277344 184.175781 67.1875 184.703125 66.984375 C 185.230469 66.785156 185.683594 66.515625 186.0625 66.152344 C 186.445312 65.789062 186.734375 65.332031 186.933594 64.789062 C 187.136719 64.242188 187.242188 63.625 187.242188 62.917969 L 187.242188 61.519531 C 186.699219 62.136719 186.0625 62.609375 185.320312 62.9375 C 184.574219 63.261719 183.722656 63.425781 182.742188 63.425781 C 181.761719 63.425781 180.851562 63.210938 180.035156 62.792969 C 179.238281 62.375 178.546875 61.792969 178 61.046875 C 177.4375 60.304688 177.019531 59.433594 176.710938 58.414062 C 176.402344 57.398438 176.257812 56.308594 176.257812 55.148438 L 176.257812 54.839844 Z M 179.035156 55.183594 C 179.035156 55.980469 179.128906 56.726562 179.292969 57.453125 C 179.453125 58.160156 179.726562 58.796875 180.070312 59.339844 C 180.417969 59.886719 180.890625 60.320312 181.433594 60.628906 C 181.976562 60.9375 182.648438 61.101562 183.429688 61.101562 C 183.921875 61.101562 184.339844 61.046875 184.738281 60.921875 C 185.121094 60.8125 185.464844 60.648438 185.773438 60.429688 C 186.082031 60.214844 186.355469 59.976562 186.589844 59.667969 C 186.828125 59.359375 187.042969 59.050781 187.226562 58.707031 L 187.226562 51.226562 C 187.042969 50.878906 186.828125 50.570312 186.589844 50.296875 C 186.355469 50.027344 186.0625 49.773438 185.753906 49.574219 C 185.445312 49.371094 185.101562 49.210938 184.71875 49.082031 C 184.339844 48.972656 183.921875 48.898438 183.449219 48.898438 C 182.667969 48.898438 181.996094 49.0625 181.433594 49.390625 C 180.871094 49.71875 180.417969 50.152344 180.070312 50.699219 C 179.707031 51.242188 179.453125 51.878906 179.292969 52.605469 C 179.128906 53.332031 179.035156 54.074219 179.035156 54.875 Z M 179.035156 55.183594 "/>
<path style=" stroke:none;fill-rule:nonzero;fill:rgb(100%,100%,100%);fill-opacity:1;" d="M 200.136719 61.355469 C 200.136719 61.046875 200.191406 60.777344 200.28125 60.523438 C 200.371094 60.265625 200.519531 60.03125 200.699219 59.832031 C 200.882812 59.632812 201.097656 59.488281 201.371094 59.378906 C 201.644531 59.269531 201.953125 59.214844 202.316406 59.214844 C 202.679688 59.214844 203.003906 59.269531 203.277344 59.378906 C 203.550781 59.488281 203.785156 59.648438 203.96875 59.832031 C 204.148438 60.03125 204.292969 60.25 204.386719 60.523438 C 204.476562 60.792969 204.53125 61.066406 204.53125 61.355469 C 204.53125 61.648438 204.476562 61.917969 204.386719 62.175781 C 204.292969 62.429688 204.148438 62.644531 203.96875 62.847656 C 203.785156 63.046875 203.550781 63.191406 203.277344 63.28125 C 203.003906 63.390625 202.679688 63.445312 202.316406 63.445312 C 201.953125 63.445312 201.644531 63.390625 201.371094 63.28125 C 201.097656 63.171875 200.882812 63.027344 200.699219 62.847656 C 200.519531 62.664062 200.390625 62.429688 200.28125 62.175781 C 200.191406 61.917969 200.136719 61.648438 200.136719 61.355469 Z M 200.136719 61.355469 "/>
<path style=" stroke:none;fill-rule:nonzero;fill:rgb(100%,100%,100%);fill-opacity:1;" d="M 218.65625 61.355469 C 218.65625 61.046875 218.710938 60.777344 218.800781 60.523438 C 218.894531 60.265625 219.039062 60.03125 219.21875 59.832031 C 219.402344 59.632812 219.621094 59.488281 219.890625 59.378906 C 220.164062 59.269531 220.472656 59.214844 220.835938 59.214844 C 221.199219 59.214844 221.527344 59.269531 221.796875 59.378906 C 222.070312 59.488281 222.308594 59.648438 222.488281 59.832031 C 222.671875 60.03125 222.816406 60.25 222.90625 60.523438 C 222.996094 60.792969 223.050781 61.066406 223.050781 61.355469 C 223.050781 61.648438 222.996094 61.917969 222.90625 62.175781 C 222.816406 62.429688 222.671875 62.644531 222.488281 62.847656 C 222.308594 63.046875 222.070312 63.191406 221.796875 63.28125 C 221.527344 63.390625 221.199219 63.445312 220.835938 63.445312 C 220.472656 63.445312 220.164062 63.390625 219.890625 63.28125 C 219.621094 63.171875 219.402344 63.027344 219.21875 62.847656 C 219.039062 62.664062 218.910156 62.429688 218.800781 62.175781 C 218.710938 61.917969 218.65625 61.648438 218.65625 61.355469 Z M 218.65625 61.355469 "/>
<path style=" stroke:none;fill-rule:nonzero;fill:rgb(100%,100%,100%);fill-opacity:1;" d="M 237.179688 61.355469 C 237.179688 61.046875 237.234375 60.777344 237.324219 60.523438 C 237.414062 60.265625 237.558594 60.03125 237.742188 59.832031 C 237.921875 59.632812 238.140625 59.488281 238.414062 59.378906 C 238.6875 59.269531 238.996094 59.214844 239.359375 59.214844 C 239.71875 59.214844 240.046875 59.269531 240.320312 59.378906 C 240.59375 59.488281 240.828125 59.648438 241.011719 59.832031 C 241.191406 60.03125 241.335938 60.25 241.425781 60.523438 C 241.519531 60.792969 241.574219 61.066406 241.574219 61.355469 C 241.574219 61.648438 241.519531 61.917969 241.425781 62.175781 C 241.335938 62.429688 241.191406 62.644531 241.011719 62.847656 C 240.828125 63.046875 240.59375 63.191406 240.320312 63.28125 C 240.046875 63.390625 239.71875 63.445312 239.359375 63.445312 C 238.996094 63.445312 238.6875 63.390625 238.414062 63.28125 C 238.140625 63.171875 237.921875 63.027344 237.742188 62.847656 C 237.558594 62.664062 237.433594 62.429688 237.324219 62.175781 C 237.234375 61.917969 237.179688 61.648438 237.179688 61.355469 Z M 237.179688 61.355469 "/>
</g>
</svg>
