<?xml version="1.0" encoding="UTF-8"?>
<svg xmlns="http://www.w3.org/2000/svg" xmlns:xlink="http://www.w3.org/1999/xlink" width="678px" height="690px" viewBox="0 0 678 690" version="1.1">
<g id="surface1">
<path style="fill-rule:nonzero;fill:rgb(0%,50.196081%,100%);fill-opacity:1;stroke-width:1.24862;stroke-linecap:butt;stroke-linejoin:miter;stroke:rgb(0%,0%,0%);stroke-opacity:1;stroke-miterlimit:10;" d="M 111.876302 102.823736 C 111.876302 108.00574 107.692708 112.250724 102.511719 112.250724 L 10.051432 112.250724 C 4.869792 112.250724 0.686849 108.00574 0.686849 102.823736 L 0.686849 10.42596 C 0.686849 5.243956 4.869792 0.998972 10.051432 0.998972 L 102.511719 0.998972 C 107.692708 0.998972 111.876302 5.243956 111.876302 10.42596 Z M 111.876302 102.823736 " transform="matrix(6,0,0,6.0531,0,6)"/>
<path style="fill:none;stroke-width:1.24862;stroke-linecap:butt;stroke-linejoin:miter;stroke:rgb(100%,100%,100%);stroke-opacity:1;stroke-miterlimit:10;" d="M 0.686849 21.725697 L 38.644531 21.725697 " transform="matrix(6,0,0,6.0531,0,6)"/>
<path style="fill:none;stroke-width:1.24862;stroke-linecap:butt;stroke-linejoin:miter;stroke:rgb(100%,100%,100%);stroke-opacity:1;stroke-miterlimit:10;" d="M 48.071615 21.725697 C 48.071615 24.472869 45.761719 26.783152 43.014974 26.783152 C 40.205729 26.783152 37.957682 24.472869 37.957682 21.725697 C 37.957682 18.916573 40.205729 16.668887 43.014974 16.668887 C 45.761719 16.668887 48.071615 18.916573 48.071615 21.725697 Z M 48.071615 21.725697 " transform="matrix(6,0,0,6.0531,0,6)"/>
<path style="fill:none;stroke-width:1.24862;stroke-linecap:butt;stroke-linejoin:miter;stroke:rgb(100%,100%,100%);stroke-opacity:1;stroke-miterlimit:10;" d="M 58.934896 112.250724 L 58.934896 17.106421 C 58.934896 14.172103 61.307292 11.799223 64.241536 11.799223 L 93.333984 11.799223 " transform="matrix(6,0,0,6.0531,0,6)"/>
<path style="fill:none;stroke-width:1.24862;stroke-linecap:butt;stroke-linejoin:miter;stroke:rgb(100%,100%,100%);stroke-opacity:1;stroke-miterlimit:10;" d="M 103.322917 11.737271 C 103.322917 14.483798 101.076172 16.794081 98.328776 16.794081 C 95.519531 16.794081 93.271484 14.483798 93.271484 11.737271 C 93.271484 8.927502 95.519531 6.679816 98.328776 6.679816 C 101.076172 6.679816 103.322917 8.927502 103.322917 11.737271 Z M 103.322917 11.737271 " transform="matrix(6,0,0,6.0531,0,6)"/>
<path style="fill:none;stroke-width:1.24862;stroke-linecap:butt;stroke-linejoin:miter;stroke:rgb(100%,100%,100%);stroke-opacity:1;stroke-miterlimit:10;" d="M 92.709635 46.698051 C 92.709635 49.445223 90.46224 51.755507 87.652995 51.755507 C 84.84375 51.755507 82.596354 49.445223 82.596354 46.698051 C 82.596354 43.888928 84.84375 41.641242 87.652995 41.641242 C 90.46224 41.641242 92.709635 43.888928 92.709635 46.698051 Z M 92.709635 46.698051 " transform="matrix(6,0,0,6.0531,0,6)"/>
<path style="fill:none;stroke-width:1.24862;stroke-linecap:butt;stroke-linejoin:miter;stroke:rgb(100%,100%,100%);stroke-opacity:1;stroke-miterlimit:10;" d="M 76.477865 111.62669 L 76.477865 93.896234 C 76.477865 91.585951 78.350911 89.713202 80.598307 89.713202 L 94.895182 89.713202 C 97.454427 89.713202 99.514974 87.653307 99.514974 85.09328 L 99.514974 71.48326 " transform="matrix(6,0,0,6.0531,0,6)"/>
<path style="fill:none;stroke-width:1.24862;stroke-linecap:butt;stroke-linejoin:miter;stroke:rgb(100%,100%,100%);stroke-opacity:1;stroke-miterlimit:10;" d="M 104.572266 66.42645 C 104.572266 69.173622 102.324219 71.48326 99.514974 71.48326 C 96.768229 71.48326 94.457682 69.173622 94.457682 66.42645 C 94.457682 63.617327 96.768229 61.36964 99.514974 61.36964 C 102.324219 61.36964 104.572266 63.617327 104.572266 66.42645 Z M 104.572266 66.42645 " transform="matrix(6,0,0,6.0531,0,6)"/>
<path style="fill:none;stroke-width:1.24862;stroke-linecap:butt;stroke-linejoin:miter;stroke:rgb(100%,100%,100%);stroke-opacity:1;stroke-miterlimit:10;" d="M 46.947917 112.250724 L 46.947917 55.501005 C 46.947917 54.190339 45.886719 53.191367 44.638021 53.191367 L 19.728516 53.191367 " transform="matrix(6,0,0,6.0531,0,6)"/>
<path style="fill:none;stroke-width:1.24862;stroke-linecap:butt;stroke-linejoin:miter;stroke:rgb(100%,100%,100%);stroke-opacity:1;stroke-miterlimit:10;" d="M 20.040365 53.191367 C 20.040365 55.937894 17.792969 58.248177 14.983724 58.248177 C 12.173828 58.248177 9.926432 55.937894 9.926432 53.191367 C 9.926432 50.381598 12.173828 48.134557 14.983724 48.134557 C 17.792969 48.134557 20.040365 50.381598 20.040365 53.191367 Z M 20.040365 53.191367 " transform="matrix(6,0,0,6.0531,0,6)"/>
<path style="fill:none;stroke-width:1.24862;stroke-linecap:butt;stroke-linejoin:miter;stroke:rgb(100%,100%,100%);stroke-opacity:1;stroke-miterlimit:10;" d="M 0.686849 72.544829 L 24.847656 72.544829 C 26.595703 72.544829 28.03125 73.980689 28.03125 75.791487 L 28.03125 97.454586 " transform="matrix(6,0,0,6.0531,0,6)"/>
<path style="fill:none;stroke-width:1.24862;stroke-linecap:butt;stroke-linejoin:miter;stroke:rgb(100%,100%,100%);stroke-opacity:1;stroke-miterlimit:10;" d="M 33.088542 101.949959 C 33.088542 104.759082 30.841146 107.006768 28.03125 107.006768 C 25.284505 107.006768 22.974609 104.759082 22.974609 101.949959 C 22.974609 99.202787 25.284505 96.9551 28.03125 96.9551 C 30.841146 96.9551 33.088542 99.202787 33.088542 101.949959 Z M 33.088542 101.949959 " transform="matrix(6,0,0,6.0531,0,6)"/>
<path style="fill:none;stroke-width:1.24862;stroke-linecap:butt;stroke-linejoin:miter;stroke:rgb(100%,100%,100%);stroke-opacity:1;stroke-miterlimit:10;" d="M 87.652995 42.140727 L 87.652995 31.403073 C 87.652995 28.468755 90.025391 26.095875 92.959635 26.095875 L 111.876302 26.095875 " transform="matrix(6,0,0,6.0531,0,6)"/>
<path style="fill:none;stroke-width:1.24862;stroke-linecap:butt;stroke-linejoin:miter;stroke:rgb(0%,0%,0%);stroke-opacity:1;stroke-miterlimit:10;" d="M 111.876302 102.823736 C 111.876302 108.00574 107.692708 112.250724 102.511719 112.250724 L 10.051432 112.250724 C 4.869792 112.250724 0.686849 108.00574 0.686849 102.823736 L 0.686849 10.42596 C 0.686849 5.243956 4.869792 0.998972 10.051432 0.998972 L 102.511719 0.998972 C 107.692708 0.998972 111.876302 5.243956 111.876302 10.42596 Z M 111.876302 102.823736 " transform="matrix(6,0,0,6.0531,0,6)"/>
<path style=" stroke:none;fill-rule:nonzero;fill:rgb(0%,0%,0%);fill-opacity:1;" d="M 452.875 445.121094 C 452.875 456.078125 443.882812 464.773438 433.394531 464.773438 L 241.980469 464.773438 C 231.492188 464.773438 222.503906 456.078125 222.503906 445.121094 L 222.503906 252.390625 C 222.503906 241.433594 231.492188 232.742188 241.980469 232.742188 L 433.394531 232.742188 C 443.882812 232.742188 452.875 241.433594 452.875 252.390625 Z M 452.875 445.121094 "/>
<path style=" stroke:none;fill-rule:nonzero;fill:rgb(0%,0%,0%);fill-opacity:1;" d="M 320.644531 289.425781 C 320.644531 295.472656 316.148438 300.007812 310.15625 300.007812 C 304.539062 300.007812 299.667969 295.472656 299.667969 289.425781 C 299.667969 283.757812 304.539062 278.84375 310.15625 278.84375 C 316.148438 278.84375 320.644531 283.757812 320.644531 289.425781 Z M 320.644531 289.425781 "/>
<path style=" stroke:none;fill-rule:nonzero;fill:rgb(0%,0%,0%);fill-opacity:1;" d="M 343.121094 464.773438 L 343.121094 288.292969 C 343.121094 281.867188 347.988281 276.953125 353.984375 276.953125 L 396.6875 276.953125 "/>
<path style=" stroke:none;fill-rule:nonzero;fill:rgb(0%,0%,0%);fill-opacity:1;" d="M 416.539062 276.953125 C 416.539062 283 412.042969 287.535156 406.425781 287.535156 C 400.433594 287.535156 395.9375 283 395.9375 276.953125 C 395.9375 271.285156 400.433594 266.375 406.425781 266.375 C 412.042969 266.375 416.539062 271.285156 416.539062 276.953125 Z M 416.539062 276.953125 "/>
<path style=" stroke:none;fill-rule:nonzero;fill:rgb(0%,0%,0%);fill-opacity:1;" d="M 452.875 319.28125 L 398.558594 319.28125 C 393.316406 319.28125 388.820312 323.4375 388.820312 328.726562 L 388.820312 367.652344 "/>
<path style=" stroke:none;fill-rule:nonzero;fill:rgb(0%,0%,0%);fill-opacity:1;" d="M 399.308594 378.230469 C 399.308594 384.277344 394.8125 388.8125 388.820312 388.8125 C 383.203125 388.8125 378.707031 384.277344 378.707031 378.230469 C 378.707031 372.5625 383.203125 367.652344 388.820312 367.652344 C 394.8125 367.652344 399.308594 372.5625 399.308594 378.230469 Z M 399.308594 378.230469 "/>
<path style=" stroke:none;fill-rule:nonzero;fill:rgb(0%,0%,0%);fill-opacity:1;" d="M 379.453125 464.773438 L 379.453125 424.335938 C 379.453125 419.421875 383.203125 415.644531 388.070312 415.644531 L 417.664062 415.644531 C 422.90625 415.644531 427.027344 411.488281 427.027344 406.195312 L 427.027344 360.09375 "/>
<path style=" stroke:none;fill-rule:nonzero;fill:rgb(0%,0%,0%);fill-opacity:1;" d="M 437.515625 350.644531 C 437.515625 356.3125 433.019531 361.226562 427.027344 361.226562 C 421.410156 361.226562 416.539062 356.3125 416.539062 350.644531 C 416.539062 344.976562 421.410156 340.066406 427.027344 340.066406 C 433.019531 340.066406 437.515625 344.976562 437.515625 350.644531 Z M 437.515625 350.644531 "/>
<path style=" stroke:none;fill-rule:nonzero;fill:rgb(0%,0%,0%);fill-opacity:1;" d="M 318.398438 464.773438 L 318.398438 346.488281 C 318.398438 343.84375 316.148438 341.574219 313.527344 341.574219 L 261.835938 341.574219 "/>
<path style=" stroke:none;fill-rule:nonzero;fill:rgb(0%,0%,0%);fill-opacity:1;" d="M 262.585938 341.574219 C 262.585938 347.242188 258.089844 352.15625 252.097656 352.15625 C 246.476562 352.15625 241.609375 347.242188 241.609375 341.574219 C 241.609375 335.90625 246.476562 330.996094 252.097656 330.996094 C 258.089844 330.996094 262.585938 335.90625 262.585938 341.574219 Z M 262.585938 341.574219 "/>
<path style=" stroke:none;fill-rule:nonzero;fill:rgb(0%,0%,0%);fill-opacity:1;" d="M 222.503906 382.011719 L 286.933594 382.011719 C 290.679688 382.011719 293.675781 385.035156 293.675781 388.8125 L 293.675781 434.160156 "/>
<path style=" stroke:none;fill-rule:nonzero;fill:rgb(0%,0%,0%);fill-opacity:1;" d="M 303.789062 443.609375 C 303.789062 449.277344 299.292969 453.8125 293.675781 453.8125 C 287.683594 453.8125 283.1875 449.277344 283.1875 443.609375 C 283.1875 437.5625 287.683594 433.027344 293.675781 433.027344 C 299.292969 433.027344 303.789062 437.5625 303.789062 443.609375 Z M 303.789062 443.609375 "/>
<path style=" stroke:none;fill-rule:nonzero;fill:rgb(0%,0%,0%);fill-opacity:1;" d="M 452.875 445.121094 C 452.875 456.078125 443.882812 464.773438 433.394531 464.773438 L 241.980469 464.773438 C 231.492188 464.773438 222.503906 456.078125 222.503906 445.121094 L 222.503906 252.390625 C 222.503906 241.433594 231.492188 232.742188 241.980469 232.742188 L 433.394531 232.742188 C 443.882812 232.742188 452.875 241.433594 452.875 252.390625 Z M 452.875 445.121094 "/>
<path style=" stroke:none;fill-rule:nonzero;fill:rgb(100%,100%,100%);fill-opacity:1;" d="M 274.945312 391.457031 L 259.960938 391.457031 L 283.5625 295.472656 L 308.660156 295.472656 L 332.257812 391.457031 L 316.148438 391.457031 L 296.296875 307.1875 L 294.796875 307.1875 Z M 317.648438 360.472656 L 275.320312 360.472656 L 275.320312 345.734375 L 317.648438 345.734375 Z M 410.921875 391.457031 L 347.988281 391.457031 L 347.988281 376.722656 L 371.589844 376.722656 L 371.589844 310.585938 L 347.988281 310.585938 L 347.988281 295.472656 L 410.921875 295.472656 L 410.921875 310.585938 L 387.320312 310.585938 L 387.320312 376.722656 L 410.921875 376.722656 Z M 410.921875 391.457031 "/>
</g>
</svg>
