<?xml version="1.0" encoding="UTF-8"?>
<svg xmlns="http://www.w3.org/2000/svg" xmlns:xlink="http://www.w3.org/1999/xlink" width="840px" height="531px" viewBox="0 0 840 531" version="1.1">
<defs>
<clipPath id="clip1">
  <path d="M 0 0 L 840 0 L 840 530.527344 L 0 530.527344 Z M 0 0 "/>
</clipPath>
<clipPath id="clip2">
  <path d="M 281 24 L 635 24 L 635 530.527344 L 281 530.527344 Z M 281 24 "/>
</clipPath>
<clipPath id="clip3">
  <path d="M 280 23 L 636 23 L 636 530.527344 L 280 530.527344 Z M 280 23 "/>
</clipPath>
<clipPath id="clip4">
  <path d="M 276 24 L 374 24 L 374 530.527344 L 276 530.527344 Z M 276 24 "/>
</clipPath>
<clipPath id="clip5">
  <path d="M 275 23 L 375 23 L 375 530.527344 L 275 530.527344 Z M 275 23 "/>
</clipPath>
</defs>
<g id="surface1">
<g clip-path="url(#clip1)" clip-rule="nonzero">
<path style=" stroke:none;fill-rule:nonzero;fill:rgb(100%,100%,100%);fill-opacity:1;" d="M 840 0 L 0 0 L 0 530.527344 L 840 530.527344 Z M 840 0 "/>
</g>
<g clip-path="url(#clip2)" clip-rule="nonzero">
<path style=" stroke:none;fill-rule:nonzero;fill:rgb(100%,100%,100%);fill-opacity:1;" d="M 634.796875 530.527344 L 634.796875 97.152344 C 634.796875 85.855469 631.902344 75.046875 628.339844 73.011719 L 543.589844 24.625 C 543.105469 24.359375 542.660156 24.269531 542.199219 24.316406 L 281.222656 24.316406 "/>
</g>
<g clip-path="url(#clip3)" clip-rule="nonzero">
<path style="fill:none;stroke-width:0.5;stroke-linecap:butt;stroke-linejoin:round;stroke:rgb(0%,0%,0%);stroke-opacity:1;stroke-miterlimit:4;" d="M 211.598958 176.842448 L 211.598958 32.384115 C 211.598958 28.61849 210.634115 25.015625 209.446615 24.33724 L 181.196615 8.208333 C 181.035156 8.119792 180.886719 8.089844 180.733073 8.105469 L 93.740885 8.105469 " transform="matrix(3,0,0,3,0,0)"/>
</g>
<g clip-path="url(#clip4)" clip-rule="nonzero">
<path style=" stroke:none;fill-rule:nonzero;fill:rgb(36.470589%,68.627453%,99.607843%);fill-opacity:1;" d="M 276.25 530.527344 L 276.25 41.402344 C 276.25 30.105469 279.144531 22.589844 282.703125 24.625 L 367.453125 73.011719 C 371.015625 75.046875 373.910156 85.855469 373.910156 97.152344 L 373.910156 530.527344 "/>
</g>
<g clip-path="url(#clip5)" clip-rule="nonzero">
<path style="fill:none;stroke-width:0.5;stroke-linecap:butt;stroke-linejoin:round;stroke:rgb(0%,0%,0%);stroke-opacity:1;stroke-miterlimit:4;" d="M 92.083333 176.842448 L 92.083333 13.800781 C 92.083333 10.035156 93.048177 7.529948 94.234375 8.208333 L 122.484375 24.33724 C 123.671875 25.015625 124.636719 28.61849 124.636719 32.384115 L 124.636719 176.842448 " transform="matrix(3,0,0,3,0,0)"/>
</g>
<path style="fill-rule:nonzero;fill:rgb(100%,100%,100%);fill-opacity:1;stroke-width:0.5;stroke-linecap:butt;stroke-linejoin:round;stroke:rgb(0%,0%,0%);stroke-opacity:1;stroke-miterlimit:4;" d="M 96.106771 68.290365 L 120.614583 82.282552 L 120.614583 140.175781 L 96.106771 126.183594 Z M 96.106771 68.290365 " transform="matrix(3,0,0,3,0,0)"/>
<path style="fill-rule:nonzero;fill:rgb(0%,0%,0%);fill-opacity:1;stroke-width:0.5;stroke-linecap:butt;stroke-linejoin:round;stroke:rgb(0%,0%,0%);stroke-opacity:1;stroke-miterlimit:4;" d="M 96.106771 68.290365 L 114.46875 126.183594 L 120.614583 130.110677 L 120.614583 82.282552 Z M 96.106771 68.290365 " transform="matrix(3,0,0,3,0,0)"/>
<path style="fill-rule:nonzero;fill:rgb(100%,100%,100%);fill-opacity:1;stroke-width:0.5;stroke-linecap:butt;stroke-linejoin:round;stroke:rgb(0%,0%,0%);stroke-opacity:1;stroke-miterlimit:4;" d="M 0 126.184896 L 96.106771 126.184896 L 120.614583 140.177083 L 0 140.177083 " transform="matrix(3,0,0,3,0,0)"/>
<path style="fill-rule:nonzero;fill:rgb(100%,100%,100%);fill-opacity:1;stroke-width:0.5;stroke-linecap:butt;stroke-linejoin:round;stroke:rgb(0%,0%,0%);stroke-opacity:1;stroke-miterlimit:4;" d="M 280 140.177083 L 211.598958 140.177083 L 211.598958 126.184896 L 280 126.184896 " transform="matrix(3,0,0,3,0,0)"/>
<path style="fill-rule:nonzero;fill:rgb(36.470589%,68.627453%,99.607843%);fill-opacity:1;stroke-width:0.5;stroke-linecap:butt;stroke-linejoin:round;stroke:rgb(0%,0%,0%);stroke-opacity:1;stroke-miterlimit:4;" d="M 0 156.122396 L 120.614583 156.122396 L 120.614583 140.177083 L 0 140.177083 " transform="matrix(3,0,0,3,0,0)"/>
<path style="fill-rule:nonzero;fill:rgb(36.470589%,68.627453%,99.607843%);fill-opacity:1;stroke-width:0.5;stroke-linecap:butt;stroke-linejoin:round;stroke:rgb(0%,0%,0%);stroke-opacity:1;stroke-miterlimit:4;" d="M 280 140.177083 L 211.598958 140.177083 L 211.598958 156.122396 L 280 156.122396 " transform="matrix(3,0,0,3,0,0)"/>
<path style="fill:none;stroke-width:0.5;stroke-linecap:butt;stroke-linejoin:round;stroke:rgb(0%,0%,0%);stroke-opacity:1;stroke-miterlimit:4;" d="M 99.371094 140.177083 L 74.871094 126.184896 " transform="matrix(3,0,0,3,0,0)"/>
<path style="fill:none;stroke-width:0.5;stroke-linecap:butt;stroke-linejoin:round;stroke:rgb(0%,0%,0%);stroke-opacity:1;stroke-miterlimit:4;" d="M 78.135417 140.177083 L 53.627604 126.184896 " transform="matrix(3,0,0,3,0,0)"/>
<path style="fill:none;stroke-width:0.5;stroke-linecap:butt;stroke-linejoin:round;stroke:rgb(0%,0%,0%);stroke-opacity:1;stroke-miterlimit:4;" d="M 56.891927 140.177083 L 32.384115 126.184896 " transform="matrix(3,0,0,3,0,0)"/>
<path style="fill:none;stroke-width:0.5;stroke-linecap:butt;stroke-linejoin:round;stroke:rgb(0%,0%,0%);stroke-opacity:1;stroke-miterlimit:4;" d="M 35.648438 140.177083 L 11.148438 126.184896 " transform="matrix(3,0,0,3,0,0)"/>
<path style="fill:none;stroke-width:0.5;stroke-linecap:butt;stroke-linejoin:round;stroke:rgb(0%,0%,0%);stroke-opacity:1;stroke-miterlimit:4;" d="M 14.41276 140.177083 L 0 131.946615 " transform="matrix(3,0,0,3,0,0)"/>
<path style="fill:none;stroke-width:0.5;stroke-linecap:butt;stroke-linejoin:round;stroke:rgb(0%,0%,0%);stroke-opacity:1;stroke-miterlimit:4;" d="M 280 134.576823 L 265.292969 126.184896 " transform="matrix(3,0,0,3,0,0)"/>
<path style="fill:none;stroke-width:0.5;stroke-linecap:butt;stroke-linejoin:round;stroke:rgb(0%,0%,0%);stroke-opacity:1;stroke-miterlimit:4;" d="M 268.563802 140.177083 L 244.057292 126.184896 " transform="matrix(3,0,0,3,0,0)"/>
<path style="fill:none;stroke-width:0.5;stroke-linecap:butt;stroke-linejoin:round;stroke:rgb(0%,0%,0%);stroke-opacity:1;stroke-miterlimit:4;" d="M 247.321615 140.177083 L 222.813802 126.184896 " transform="matrix(3,0,0,3,0,0)"/>
<path style="fill:none;stroke-width:0.5;stroke-linecap:butt;stroke-linejoin:round;stroke:rgb(0%,0%,0%);stroke-opacity:1;stroke-miterlimit:4;" d="M 226.078125 140.178385 L 211.598958 131.910156 " transform="matrix(3,0,0,3,0,0)"/>
<path style="fill:none;stroke-width:0.5;stroke-linecap:butt;stroke-linejoin:round;stroke:rgb(0%,0%,0%);stroke-opacity:1;stroke-miterlimit:4;" d="M 120.614583 126.184896 L 96.106771 126.184896 L 120.614583 140.177083 " transform="matrix(3,0,0,3,0,0)"/>
<path style="fill-rule:nonzero;fill:rgb(100%,100%,100%);fill-opacity:1;stroke-width:0.5;stroke-linecap:butt;stroke-linejoin:round;stroke:rgb(0%,0%,0%);stroke-opacity:1;stroke-miterlimit:4;" d="M 199.904948 32.384115 L 136.322917 32.384115 C 133.690104 32.384115 131.55599 34.518229 131.55599 37.151042 L 131.55599 154.265625 C 131.55599 156.898438 133.690104 159.032552 136.322917 159.032552 L 199.904948 159.032552 C 202.53776 159.032552 204.673177 156.898438 204.673177 154.265625 L 204.673177 37.151042 C 204.673177 34.518229 202.53776 32.384115 199.904948 32.384115 Z M 199.904948 32.384115 " transform="matrix(3,0,0,3,0,0)"/>
<path style="fill-rule:nonzero;fill:rgb(36.470589%,68.627453%,99.607843%);fill-opacity:1;stroke-width:0.5;stroke-linecap:butt;stroke-linejoin:round;stroke:rgb(0%,0%,0%);stroke-opacity:1;stroke-miterlimit:4;" d="M 58.895833 133.177083 L 27.822917 133.177083 C 26.423177 133.177083 25.104167 132.041667 24.882812 130.641927 L 21.24349 107.888021 C 21.022135 106.488281 21.972656 105.354167 23.372396 105.354167 L 54.445312 105.354167 C 55.845052 105.354167 57.164062 106.488281 57.385417 107.888021 L 61.02474 130.641927 C 61.246094 132.041667 60.295573 133.177083 58.895833 133.177083 Z M 58.895833 133.177083 " transform="matrix(3,0,0,3,0,0)"/>
<path style="fill:none;stroke-width:0.5;stroke-linecap:butt;stroke-linejoin:round;stroke:rgb(0%,0%,0%);stroke-opacity:1;stroke-miterlimit:4;" d="M 17.109375 105.354167 L 4.045573 105.354167 " transform="matrix(3,0,0,3,0,0)"/>
<path style="fill:none;stroke-width:0.5;stroke-linecap:butt;stroke-linejoin:round;stroke:rgb(0%,0%,0%);stroke-opacity:1;stroke-miterlimit:4;" d="M 15.864583 112.221354 L 10.477865 112.221354 " transform="matrix(3,0,0,3,0,0)"/>
<path style="fill:none;stroke-width:0.5;stroke-linecap:butt;stroke-linejoin:round;stroke:rgb(0%,0%,0%);stroke-opacity:1;stroke-miterlimit:4;" d="M 20.027344 119.088542 L 6.123698 119.088542 " transform="matrix(3,0,0,3,0,0)"/>
<path style="fill-rule:nonzero;fill:rgb(36.470589%,68.627453%,99.607843%);fill-opacity:1;stroke-width:0.5;stroke-linecap:butt;stroke-linejoin:round;stroke:rgb(0%,0%,0%);stroke-opacity:1;stroke-miterlimit:4;" d="M 21.24349 107.888021 L 24.367188 110.320312 C 24.964844 110.783854 25.700521 111.035156 26.453125 111.035156 L 54.423177 111.035156 C 55.101562 111.035156 55.727865 110.673177 56.074219 110.091146 L 57.385417 107.88151 " transform="matrix(3,0,0,3,0,0)"/>
<path style="fill-rule:nonzero;fill:rgb(36.470589%,68.627453%,99.607843%);fill-opacity:1;stroke-width:0.5;stroke-linecap:butt;stroke-linejoin:round;stroke:rgb(0%,0%,0%);stroke-opacity:1;stroke-miterlimit:4;" d="M 120.614583 105.648438 C 120.238281 105.471354 119.833333 105.360677 119.41276 105.360677 L 88.339844 105.360677 C 86.940104 105.360677 85.989583 106.496094 86.210938 107.895833 L 89.85026 130.64974 C 90.071615 132.049479 91.390625 133.183594 92.790365 133.183594 L 120.614583 133.183594 Z M 120.614583 105.648438 " transform="matrix(3,0,0,3,0,0)"/>
<path style="fill:none;stroke-width:0.5;stroke-linecap:butt;stroke-linejoin:round;stroke:rgb(0%,0%,0%);stroke-opacity:1;stroke-miterlimit:4;" d="M 82.076823 105.354167 L 73.352865 105.354167 " transform="matrix(3,0,0,3,0,0)"/>
<path style="fill:none;stroke-width:0.5;stroke-linecap:butt;stroke-linejoin:round;stroke:rgb(0%,0%,0%);stroke-opacity:1;stroke-miterlimit:4;" d="M 80.832031 112.221354 L 65.88151 112.221354 " transform="matrix(3,0,0,3,0,0)"/>
<path style="fill:none;stroke-width:0.5;stroke-linecap:butt;stroke-linejoin:round;stroke:rgb(0%,0%,0%);stroke-opacity:1;stroke-miterlimit:4;" d="M 84.994792 119.088542 L 79.763021 119.088542 " transform="matrix(3,0,0,3,0,0)"/>
<path style="fill-rule:nonzero;fill:rgb(36.470589%,68.627453%,99.607843%);fill-opacity:1;stroke-width:0.5;stroke-linecap:butt;stroke-linejoin:round;stroke:rgb(0%,0%,0%);stroke-opacity:1;stroke-miterlimit:4;" d="M 86.210938 107.889323 L 89.334635 110.320312 C 89.932292 110.783854 90.667969 111.035156 91.420573 111.035156 L 119.390625 111.035156 " transform="matrix(3,0,0,3,0,0)"/>
<path style="fill-rule:nonzero;fill:rgb(0%,0%,0%);fill-opacity:1;stroke-width:0.5;stroke-linecap:butt;stroke-linejoin:round;stroke:rgb(0%,0%,0%);stroke-opacity:1;stroke-miterlimit:4;" d="M 114.947917 100.638021 L 119.390625 133.177083 L 120.614583 133.177083 L 120.614583 100.638021 Z M 114.947917 100.638021 " transform="matrix(3,0,0,3,0,0)"/>
<path style="fill-rule:nonzero;fill:rgb(36.470589%,68.627453%,99.607843%);fill-opacity:1;stroke-width:0.5;stroke-linecap:butt;stroke-linejoin:round;stroke:rgb(0%,0%,0%);stroke-opacity:1;stroke-miterlimit:4;" d="M 269.580729 133.177083 L 238.507812 133.177083 C 237.108073 133.177083 235.789062 132.041667 235.567708 130.641927 L 231.928385 107.888021 C 231.707031 106.488281 232.657552 105.354167 234.058594 105.354167 L 265.13151 105.354167 C 266.53125 105.354167 267.848958 106.488281 268.070312 107.888021 L 271.709635 130.641927 C 271.932292 132.041667 270.980469 133.177083 269.580729 133.177083 Z M 269.580729 133.177083 " transform="matrix(3,0,0,3,0,0)"/>
<path style="fill:none;stroke-width:0.5;stroke-linecap:butt;stroke-linejoin:round;stroke:rgb(0%,0%,0%);stroke-opacity:1;stroke-miterlimit:4;" d="M 227.802083 105.354167 L 219.078125 105.354167 " transform="matrix(3,0,0,3,0,0)"/>
<path style="fill:none;stroke-width:0.5;stroke-linecap:butt;stroke-linejoin:round;stroke:rgb(0%,0%,0%);stroke-opacity:1;stroke-miterlimit:4;" d="M 226.549479 112.221354 L 214.303385 112.221354 " transform="matrix(3,0,0,3,0,0)"/>
<path style="fill:none;stroke-width:0.5;stroke-linecap:butt;stroke-linejoin:round;stroke:rgb(0%,0%,0%);stroke-opacity:1;stroke-miterlimit:4;" d="M 230.713542 119.088542 L 225.480469 119.088542 " transform="matrix(3,0,0,3,0,0)"/>
<path style="fill-rule:nonzero;fill:rgb(36.470589%,68.627453%,99.607843%);fill-opacity:1;stroke-width:0.5;stroke-linecap:butt;stroke-linejoin:round;stroke:rgb(0%,0%,0%);stroke-opacity:1;stroke-miterlimit:4;" d="M 231.936198 107.888021 L 235.059896 110.320312 C 235.657552 110.783854 236.394531 111.035156 237.144531 111.035156 L 265.115885 111.035156 C 265.794271 111.035156 266.420573 110.673177 266.765625 110.091146 L 268.078125 107.88151 " transform="matrix(3,0,0,3,0,0)"/>
<path style="fill:none;stroke-width:0.5;stroke-linecap:butt;stroke-linejoin:round;stroke:rgb(0%,0%,0%);stroke-opacity:1;stroke-miterlimit:4;" d="M 5.481771 142.321615 L 68.173177 142.321615 " transform="matrix(3,0,0,3,0,0)"/>
<path style="fill:none;stroke-width:0.5;stroke-linecap:butt;stroke-linejoin:round;stroke:rgb(0%,0%,0%);stroke-opacity:1;stroke-miterlimit:4;" d="M 77.044271 142.321615 L 85.923177 142.321615 " transform="matrix(3,0,0,3,0,0)"/>
<path style="fill:none;stroke-width:0.5;stroke-linecap:butt;stroke-linejoin:round;stroke:rgb(0%,0%,0%);stroke-opacity:1;stroke-miterlimit:4;" d="M 17.072917 153.971354 L 79.763021 153.971354 " transform="matrix(3,0,0,3,0,0)"/>
<path style="fill:none;stroke-width:0.5;stroke-linecap:butt;stroke-linejoin:round;stroke:rgb(0%,0%,0%);stroke-opacity:1;stroke-miterlimit:4;" d="M 88.641927 153.971354 L 97.514323 153.971354 " transform="matrix(3,0,0,3,0,0)"/>
<path style="fill:none;stroke-width:0.5;stroke-linecap:butt;stroke-linejoin:round;stroke:rgb(0%,0%,0%);stroke-opacity:1;stroke-miterlimit:4;" d="M 211.598958 142.321615 L 246.053385 142.321615 " transform="matrix(3,0,0,3,0,0)"/>
<path style="fill:none;stroke-width:0.5;stroke-linecap:butt;stroke-linejoin:round;stroke:rgb(0%,0%,0%);stroke-opacity:1;stroke-miterlimit:4;" d="M 254.933594 142.321615 L 263.803385 142.321615 " transform="matrix(3,0,0,3,0,0)"/>
<path style="fill:none;stroke-width:0.5;stroke-linecap:butt;stroke-linejoin:round;stroke:rgb(0%,0%,0%);stroke-opacity:1;stroke-miterlimit:4;" d="M 211.598958 153.971354 L 257.644531 153.971354 " transform="matrix(3,0,0,3,0,0)"/>
<path style="fill:none;stroke-width:0.5;stroke-linecap:butt;stroke-linejoin:round;stroke:rgb(0%,0%,0%);stroke-opacity:1;stroke-miterlimit:4;" d="M 266.523438 153.971354 L 275.402344 153.971354 " transform="matrix(3,0,0,3,0,0)"/>
<path style="fill-rule:nonzero;fill:rgb(36.470589%,68.627453%,99.607843%);fill-opacity:1;stroke-width:0.5;stroke-linecap:butt;stroke-linejoin:round;stroke:rgb(0%,0%,0%);stroke-opacity:1;stroke-miterlimit:4;" d="M 13.027344 153.977865 C 16.246094 153.977865 18.855469 151.36849 18.855469 148.14974 C 18.855469 144.93099 16.246094 142.321615 13.027344 142.321615 C 9.808594 142.321615 7.199219 144.93099 7.199219 148.14974 C 7.199219 151.36849 9.808594 153.977865 13.027344 153.977865 Z M 13.027344 153.977865 " transform="matrix(3,0,0,3,0,0)"/>
<path style="fill-rule:nonzero;fill:rgb(36.470589%,68.627453%,99.607843%);fill-opacity:1;stroke-width:0.5;stroke-linecap:butt;stroke-linejoin:round;stroke:rgb(0%,0%,0%);stroke-opacity:1;stroke-miterlimit:4;" d="M 57.717448 153.977865 C 60.936198 153.977865 63.545573 151.36849 63.545573 148.14974 C 63.545573 144.93099 60.936198 142.321615 57.717448 142.321615 C 54.497396 142.321615 51.888021 144.93099 51.888021 148.14974 C 51.888021 151.36849 54.497396 153.977865 57.717448 153.977865 Z M 57.717448 153.977865 " transform="matrix(3,0,0,3,0,0)"/>
<path style="fill-rule:nonzero;fill:rgb(36.470589%,68.627453%,99.607843%);fill-opacity:1;stroke-width:0.5;stroke-linecap:butt;stroke-linejoin:round;stroke:rgb(0%,0%,0%);stroke-opacity:1;stroke-miterlimit:4;" d="M 102.40625 153.977865 C 105.625 153.977865 108.234375 151.36849 108.234375 148.14974 C 108.234375 144.93099 105.625 142.321615 102.40625 142.321615 C 99.1875 142.321615 96.578125 144.93099 96.578125 148.14974 C 96.578125 151.36849 99.1875 153.977865 102.40625 153.977865 Z M 102.40625 153.977865 " transform="matrix(3,0,0,3,0,0)"/>
<path style="fill-rule:nonzero;fill:rgb(36.470589%,68.627453%,99.607843%);fill-opacity:1;stroke-width:0.5;stroke-linecap:butt;stroke-linejoin:round;stroke:rgb(0%,0%,0%);stroke-opacity:1;stroke-miterlimit:4;" d="M 226.446615 153.977865 C 229.665365 153.977865 232.27474 151.36849 232.27474 148.14974 C 232.27474 144.93099 229.665365 142.321615 226.446615 142.321615 C 223.226562 142.321615 220.61849 144.93099 220.61849 148.14974 C 220.61849 151.36849 223.226562 153.977865 226.446615 153.977865 Z M 226.446615 153.977865 " transform="matrix(3,0,0,3,0,0)"/>
<path style="fill-rule:nonzero;fill:rgb(36.470589%,68.627453%,99.607843%);fill-opacity:1;stroke-width:0.5;stroke-linecap:butt;stroke-linejoin:round;stroke:rgb(0%,0%,0%);stroke-opacity:1;stroke-miterlimit:4;" d="M 271.135417 153.977865 C 274.355469 153.977865 276.963542 151.36849 276.963542 148.14974 C 276.963542 144.93099 274.355469 142.321615 271.135417 142.321615 C 267.916667 142.321615 265.307292 144.93099 265.307292 148.14974 C 265.307292 151.36849 267.916667 153.977865 271.135417 153.977865 Z M 271.135417 153.977865 " transform="matrix(3,0,0,3,0,0)"/>
<path style="fill-rule:nonzero;fill:rgb(0%,0%,0%);fill-opacity:1;stroke-width:0.5;stroke-linecap:butt;stroke-linejoin:round;stroke:rgb(0%,0%,0%);stroke-opacity:1;stroke-miterlimit:4;" d="M 199.846354 35.552083 L 136.397135 35.552083 C 135.1875 35.552083 134.208333 36.532552 134.208333 37.740885 L 134.208333 153.669271 C 134.208333 154.877604 135.1875 155.856771 136.397135 155.856771 L 199.846354 155.856771 C 201.054688 155.856771 202.035156 154.877604 202.035156 153.669271 L 202.035156 37.740885 C 202.035156 36.532552 201.054688 35.552083 199.846354 35.552083 Z M 199.846354 35.552083 " transform="matrix(3,0,0,3,0,0)"/>
<path style="fill-rule:nonzero;fill:rgb(0%,0%,0%);fill-opacity:1;stroke-width:0.5;stroke-linecap:round;stroke-linejoin:round;stroke:rgb(100%,100%,100%);stroke-opacity:1;stroke-miterlimit:4;" d="M 191.601562 62.727865 L 144.641927 62.727865 C 143.169271 62.727865 141.97526 63.921875 141.97526 65.394531 L 141.97526 88.789062 C 141.97526 90.263021 143.169271 91.457031 144.641927 91.457031 L 191.601562 91.457031 C 193.074219 91.457031 194.268229 90.263021 194.268229 88.789062 L 194.268229 65.394531 C 194.268229 63.921875 193.074219 62.727865 191.601562 62.727865 Z M 191.601562 62.727865 " transform="matrix(3,0,0,3,0,0)"/>
<path style="fill-rule:nonzero;fill:rgb(0%,0%,0%);fill-opacity:1;stroke-width:0.5;stroke-linecap:round;stroke-linejoin:round;stroke:rgb(100%,100%,100%);stroke-opacity:1;stroke-miterlimit:4;" d="M 168.11849 88.605469 C 174.477865 88.605469 179.635417 83.449219 179.635417 77.088542 C 179.635417 70.727865 174.477865 65.571615 168.11849 65.571615 C 161.75651 65.571615 156.601562 70.727865 156.601562 77.088542 C 156.601562 83.449219 161.75651 88.605469 168.11849 88.605469 Z M 168.11849 88.605469 " transform="matrix(3,0,0,3,0,0)"/>
<path style="fill-rule:nonzero;fill:rgb(0%,0%,0%);fill-opacity:1;stroke-width:0.5;stroke-linecap:round;stroke-linejoin:round;stroke:rgb(100%,100%,100%);stroke-opacity:1;stroke-miterlimit:4;" d="M 176.783854 84.699219 L 175.726562 85.757812 C 175.239583 86.24349 175.239583 87.03125 175.726562 87.518229 L 185.308594 97.10026 C 185.794271 97.585938 186.583333 97.585938 187.06901 97.10026 L 188.127604 96.041667 C 188.613281 95.55599 188.613281 94.766927 188.127604 94.28125 L 178.545573 84.699219 C 178.058594 84.213542 177.269531 84.213542 176.783854 84.699219 Z M 176.783854 84.699219 " transform="matrix(3,0,0,3,0,0)"/>
<path style="fill-rule:nonzero;fill:rgb(0%,0%,0%);fill-opacity:1;stroke-width:0.5;stroke-linecap:round;stroke-linejoin:round;stroke:rgb(100%,100%,100%);stroke-opacity:1;stroke-miterlimit:4;" d="M 168.11849 91.457031 L 168.11849 96.356771 C 168.11849 97.882812 166.880208 99.119792 165.355469 99.119792 L 155.834635 99.119792 C 154.308594 99.119792 153.071615 100.358073 153.071615 101.882812 L 153.071615 111.049479 " transform="matrix(3,0,0,3,0,0)"/>
<path style="fill-rule:nonzero;fill:rgb(0%,0%,0%);fill-opacity:1;stroke-width:0.5;stroke-linecap:round;stroke-linejoin:round;stroke:rgb(100%,100%,100%);stroke-opacity:1;stroke-miterlimit:4;" d="M 168.11849 91.457031 L 168.11849 105.199219 C 168.11849 106.723958 169.355469 107.96224 170.88151 107.96224 L 180.401042 107.96224 C 181.925781 107.96224 183.164062 109.200521 183.164062 110.72526 L 183.164062 119.891927 " transform="matrix(3,0,0,3,0,0)"/>
<path style="fill-rule:nonzero;fill:rgb(0%,0%,0%);fill-opacity:1;stroke-width:0.5;stroke-linecap:round;stroke-linejoin:round;stroke:rgb(100%,100%,100%);stroke-opacity:1;stroke-miterlimit:4;" d="M 193.928385 119.884115 L 172.414062 119.884115 C 171.307292 119.884115 170.408854 120.78125 170.408854 121.888021 L 170.408854 143.020833 C 170.408854 144.127604 171.307292 145.02474 172.414062 145.02474 L 193.928385 145.02474 C 195.036458 145.02474 195.933594 144.127604 195.933594 143.020833 L 195.933594 121.888021 C 195.933594 120.78125 195.036458 119.884115 193.928385 119.884115 Z M 193.928385 119.884115 " transform="matrix(3,0,0,3,0,0)"/>
<path style="fill-rule:nonzero;fill:rgb(0%,0%,0%);fill-opacity:1;stroke-width:0.5;stroke-linecap:round;stroke-linejoin:round;stroke:rgb(100%,100%,100%);stroke-opacity:1;stroke-miterlimit:4;" d="M 164.226562 111.041667 L 141.915365 111.041667 C 141.028646 111.041667 140.309896 111.760417 140.309896 112.648438 C 140.309896 113.535156 141.028646 114.255208 141.915365 114.255208 L 164.226562 114.255208 C 165.114583 114.255208 165.834635 113.535156 165.834635 112.648438 C 165.834635 111.760417 165.114583 111.041667 164.226562 111.041667 Z M 164.226562 111.041667 " transform="matrix(3,0,0,3,0,0)"/>
<path style="fill-rule:nonzero;fill:rgb(0%,0%,0%);fill-opacity:1;stroke-width:0.5;stroke-linecap:round;stroke-linejoin:round;stroke:rgb(100%,100%,100%);stroke-opacity:1;stroke-miterlimit:4;" d="M 164.226562 116.170573 L 141.915365 116.170573 C 141.028646 116.170573 140.309896 116.890625 140.309896 117.777344 C 140.309896 118.664062 141.028646 119.384115 141.915365 119.384115 L 164.226562 119.384115 C 165.114583 119.384115 165.834635 118.664062 165.834635 117.777344 C 165.834635 116.890625 165.114583 116.170573 164.226562 116.170573 Z M 164.226562 116.170573 " transform="matrix(3,0,0,3,0,0)"/>
<path style="fill-rule:nonzero;fill:rgb(0%,0%,0%);fill-opacity:1;stroke-width:0.5;stroke-linecap:round;stroke-linejoin:round;stroke:rgb(100%,100%,100%);stroke-opacity:1;stroke-miterlimit:4;" d="M 164.226562 121.299479 L 141.915365 121.299479 C 141.028646 121.299479 140.309896 122.018229 140.309896 122.904948 C 140.309896 123.791667 141.028646 124.510417 141.915365 124.510417 L 164.226562 124.510417 C 165.114583 124.510417 165.834635 123.791667 165.834635 122.904948 C 165.834635 122.018229 165.114583 121.299479 164.226562 121.299479 Z M 164.226562 121.299479 " transform="matrix(3,0,0,3,0,0)"/>
<path style="fill-rule:nonzero;fill:rgb(0%,0%,0%);fill-opacity:1;stroke-width:0.5;stroke-linecap:round;stroke-linejoin:round;stroke:rgb(100%,100%,100%);stroke-opacity:1;stroke-miterlimit:4;" d="M 164.226562 126.428385 L 141.915365 126.428385 C 141.028646 126.428385 140.309896 127.147135 140.309896 128.033854 C 140.309896 128.920573 141.028646 129.640625 141.915365 129.640625 L 164.226562 129.640625 C 165.114583 129.640625 165.834635 128.920573 165.834635 128.033854 C 165.834635 127.147135 165.114583 126.428385 164.226562 126.428385 Z M 164.226562 126.428385 " transform="matrix(3,0,0,3,0,0)"/>
<path style="fill-rule:nonzero;fill:rgb(0%,0%,0%);fill-opacity:1;stroke-width:0.5;stroke-linecap:round;stroke-linejoin:round;stroke:rgb(100%,100%,100%);stroke-opacity:1;stroke-miterlimit:4;" d="M 164.226562 131.5625 L 141.915365 131.5625 C 141.028646 131.5625 140.309896 132.282552 140.309896 133.170573 C 140.309896 134.057292 141.028646 134.776042 141.915365 134.776042 L 164.226562 134.776042 C 165.114583 134.776042 165.834635 134.057292 165.834635 133.170573 C 165.834635 132.282552 165.114583 131.5625 164.226562 131.5625 Z M 164.226562 131.5625 " transform="matrix(3,0,0,3,0,0)"/>
<path style="fill-rule:nonzero;fill:rgb(0%,0%,0%);fill-opacity:1;stroke-width:0.5;stroke-linecap:round;stroke-linejoin:round;stroke:rgb(100%,100%,100%);stroke-opacity:1;stroke-miterlimit:4;" d="M 164.226562 136.691406 L 141.915365 136.691406 C 141.028646 136.691406 140.309896 137.411458 140.309896 138.298177 C 140.309896 139.184896 141.028646 139.903646 141.915365 139.903646 L 164.226562 139.903646 C 165.114583 139.903646 165.834635 139.184896 165.834635 138.298177 C 165.834635 137.411458 165.114583 136.691406 164.226562 136.691406 Z M 164.226562 136.691406 " transform="matrix(3,0,0,3,0,0)"/>
<path style="fill-rule:nonzero;fill:rgb(0%,0%,0%);fill-opacity:1;stroke-width:0.5;stroke-linecap:round;stroke-linejoin:round;stroke:rgb(100%,100%,100%);stroke-opacity:1;stroke-miterlimit:4;" d="M 164.226562 141.820312 L 141.915365 141.820312 C 141.028646 141.820312 140.309896 142.539062 140.309896 143.427083 C 140.309896 144.313802 141.028646 145.032552 141.915365 145.032552 L 164.226562 145.032552 C 165.114583 145.032552 165.834635 144.313802 165.834635 143.427083 C 165.834635 142.539062 165.114583 141.820312 164.226562 141.820312 Z M 164.226562 141.820312 " transform="matrix(3,0,0,3,0,0)"/>
<path style="fill:none;stroke-width:0.5;stroke-linecap:round;stroke-linejoin:round;stroke:rgb(100%,100%,100%);stroke-opacity:1;stroke-miterlimit:4;" d="M 173.230469 123.959635 L 181.925781 123.959635 " transform="matrix(3,0,0,3,0,0)"/>
<path style="fill:none;stroke-width:0.5;stroke-linecap:round;stroke-linejoin:round;stroke:rgb(100%,100%,100%);stroke-opacity:1;stroke-miterlimit:4;" d="M 173.230469 126.795573 L 181.925781 126.795573 " transform="matrix(3,0,0,3,0,0)"/>
<path style="fill:none;stroke-width:0.5;stroke-linecap:round;stroke-linejoin:round;stroke:rgb(100%,100%,100%);stroke-opacity:1;stroke-miterlimit:4;" d="M 173.230469 129.625 L 181.925781 129.625 " transform="matrix(3,0,0,3,0,0)"/>
<path style="fill:none;stroke-width:0.5;stroke-linecap:round;stroke-linejoin:round;stroke:rgb(100%,100%,100%);stroke-opacity:1;stroke-miterlimit:4;" d="M 173.230469 132.454427 L 181.925781 132.454427 " transform="matrix(3,0,0,3,0,0)"/>
<path style="fill:none;stroke-width:0.5;stroke-linecap:round;stroke-linejoin:round;stroke:rgb(100%,100%,100%);stroke-opacity:1;stroke-miterlimit:4;" d="M 173.230469 135.290365 L 193.104167 135.290365 " transform="matrix(3,0,0,3,0,0)"/>
<path style="fill:none;stroke-width:0.5;stroke-linecap:round;stroke-linejoin:round;stroke:rgb(100%,100%,100%);stroke-opacity:1;stroke-miterlimit:4;" d="M 173.230469 138.121094 L 193.104167 138.121094 " transform="matrix(3,0,0,3,0,0)"/>
<path style="fill:none;stroke-width:0.5;stroke-linecap:round;stroke-linejoin:round;stroke:rgb(100%,100%,100%);stroke-opacity:1;stroke-miterlimit:4;" d="M 173.230469 140.950521 L 193.104167 140.950521 " transform="matrix(3,0,0,3,0,0)"/>
<path style="fill:none;stroke-width:0.5;stroke-linecap:round;stroke-linejoin:round;stroke:rgb(100%,100%,100%);stroke-opacity:1;stroke-miterlimit:4;" d="M 192.389323 123.959635 L 184.71875 123.959635 C 184.324219 123.959635 184.003906 124.278646 184.003906 124.674479 L 184.003906 131.791667 C 184.003906 132.186198 184.324219 132.50651 184.71875 132.50651 L 192.389323 132.50651 C 192.783854 132.50651 193.104167 132.186198 193.104167 131.791667 L 193.104167 124.674479 C 193.104167 124.278646 192.783854 123.959635 192.389323 123.959635 Z M 192.389323 123.959635 " transform="matrix(3,0,0,3,0,0)"/>
<path style="fill:none;stroke-width:1;stroke-linecap:round;stroke-linejoin:round;stroke:rgb(100%,100%,100%);stroke-opacity:1;stroke-miterlimit:4;" d="M 141.97526 42.94401 L 145.651042 42.94401 C 147.41276 42.94401 148.848958 44.372396 148.848958 46.141927 C 148.848958 47.902344 147.420573 49.338542 145.651042 49.338542 L 141.97526 49.338542 Z M 141.97526 42.94401 " transform="matrix(3,0,0,3,0,0)"/>
<path style="fill:none;stroke-width:1;stroke-linecap:round;stroke-linejoin:round;stroke:rgb(100%,100%,100%);stroke-opacity:1;stroke-miterlimit:4;" d="M 141.97526 55.727865 L 141.97526 49.332031 L 145.135417 49.332031 C 147.183594 49.332031 148.848958 50.761719 148.848958 52.529948 L 148.848958 55.727865 " transform="matrix(3,0,0,3,0,0)"/>
<path style="fill:none;stroke-width:1;stroke-linecap:round;stroke-linejoin:round;stroke:rgb(100%,100%,100%);stroke-opacity:1;stroke-miterlimit:4;" d="M 186.77474 55.727865 L 180.540365 55.727865 L 180.540365 42.94401 " transform="matrix(3,0,0,3,0,0)"/>
<path style="fill:none;stroke-width:1;stroke-linecap:round;stroke-linejoin:round;stroke:rgb(100%,100%,100%);stroke-opacity:1;stroke-miterlimit:4;" d="M 157.677083 55.727865 L 151.730469 55.727865 L 151.730469 42.94401 L 157.677083 42.94401 " transform="matrix(3,0,0,3,0,0)"/>
<path style="fill:none;stroke-width:1;stroke-linecap:round;stroke-linejoin:round;stroke:rgb(100%,100%,100%);stroke-opacity:1;stroke-miterlimit:4;" d="M 151.730469 49.338542 L 157.677083 49.338542 " transform="matrix(3,0,0,3,0,0)"/>
<path style="fill:none;stroke-width:1;stroke-linecap:round;stroke-linejoin:round;stroke:rgb(100%,100%,100%);stroke-opacity:1;stroke-miterlimit:4;" d="M 167.639323 46.141927 C 167.639323 44.372396 165.980469 42.94401 163.924479 42.94401 C 161.877604 42.94401 160.210938 44.372396 160.210938 46.141927 C 160.210938 50.238281 167.63151 48.440104 167.63151 52.536458 C 167.63151 54.30599 165.973958 55.734375 163.917969 55.734375 C 161.86849 55.734375 160.204427 54.30599 160.204427 52.536458 " transform="matrix(3,0,0,3,0,0)"/>
<path style="fill:none;stroke-width:1;stroke-linecap:round;stroke-linejoin:round;stroke:rgb(100%,100%,100%);stroke-opacity:1;stroke-miterlimit:4;" d="M 177.674479 42.94401 L 177.674479 52.536458 C 177.674479 54.30599 176.016927 55.734375 173.960938 55.734375 C 171.91276 55.734375 170.247396 54.30599 170.247396 52.536458 L 170.247396 42.94401 " transform="matrix(3,0,0,3,0,0)"/>
<path style="fill:none;stroke-width:1;stroke-linecap:round;stroke-linejoin:round;stroke:rgb(100%,100%,100%);stroke-opacity:1;stroke-miterlimit:4;" d="M 186.841146 42.94401 L 194.260417 42.94401 " transform="matrix(3,0,0,3,0,0)"/>
<path style="fill:none;stroke-width:1;stroke-linecap:round;stroke-linejoin:round;stroke:rgb(100%,100%,100%);stroke-opacity:1;stroke-miterlimit:4;" d="M 190.554688 42.94401 L 190.554688 55.727865 " transform="matrix(3,0,0,3,0,0)"/>
<path style="fill-rule:nonzero;fill:rgb(0%,0%,0%);fill-opacity:1;stroke-width:0.5;stroke-linecap:butt;stroke-linejoin:round;stroke:rgb(0%,0%,0%);stroke-opacity:1;stroke-miterlimit:4;" d="M 120.614583 156.122396 L 92.083333 172.346354 L 92.083333 156.122396 Z M 120.614583 156.122396 " transform="matrix(3,0,0,3,0,0)"/>
<path style="fill-rule:nonzero;fill:rgb(0%,0%,0%);fill-opacity:1;stroke-width:0.5;stroke-linecap:butt;stroke-linejoin:round;stroke:rgb(0%,0%,0%);stroke-opacity:1;stroke-miterlimit:4;" d="M 107.446615 58.098958 C 110.584635 58.098958 113.127604 52.744792 113.127604 46.140625 C 113.127604 39.535156 110.584635 34.18099 107.446615 34.18099 C 104.308594 34.18099 101.765625 39.535156 101.765625 46.140625 C 101.765625 52.744792 104.308594 58.098958 107.446615 58.098958 Z M 107.446615 58.098958 " transform="matrix(3,0,0,3,0,0)"/>
<path style="fill-rule:nonzero;fill:rgb(100%,100%,100%);fill-opacity:1;stroke-width:0.5;stroke-linecap:butt;stroke-linejoin:round;stroke:rgb(0%,0%,0%);stroke-opacity:1;stroke-miterlimit:4;" d="M 105.324219 37.460938 L 95.096354 37.460938 C 91.457031 37.460938 88.509115 41.34375 88.509115 46.134115 C 88.509115 50.923177 91.457031 54.80599 95.096354 54.80599 L 105.324219 54.80599 C 107.601562 54.80599 109.442708 50.923177 109.442708 46.134115 C 109.442708 41.34375 107.601562 37.460938 105.324219 37.460938 Z M 105.324219 37.460938 " transform="matrix(3,0,0,3,0,0)"/>
<path style="fill-rule:nonzero;fill:rgb(100%,100%,100%);fill-opacity:1;stroke-width:0.5;stroke-linecap:butt;stroke-linejoin:round;stroke:rgb(0%,0%,0%);stroke-opacity:1;stroke-miterlimit:4;" d="M 93.188802 46.140625 C 92.576823 46.140625 92.083333 46.634115 92.083333 47.246094 C 92.083333 47.858073 92.576823 48.351562 93.188802 48.351562 L 104.292969 48.351562 C 104.903646 48.351562 105.398438 47.858073 105.398438 47.246094 " transform="matrix(3,0,0,3,0,0)"/>
<path style="fill-rule:nonzero;fill:rgb(100%,100%,100%);fill-opacity:1;stroke-width:0.5;stroke-linecap:butt;stroke-linejoin:round;stroke:rgb(0%,0%,0%);stroke-opacity:1;stroke-miterlimit:4;" d="M 98.744792 47.246094 C 100.058594 47.246094 101.123698 46.18099 101.123698 44.865885 C 101.123698 43.552083 100.058594 42.485677 98.744792 42.485677 C 97.429688 42.485677 96.364583 43.552083 96.364583 44.865885 C 96.364583 46.18099 97.429688 47.246094 98.744792 47.246094 Z M 98.744792 47.246094 " transform="matrix(3,0,0,3,0,0)"/>
</g>
</svg>
