<?xml version="1.0" encoding="UTF-8"?>
<svg xmlns="http://www.w3.org/2000/svg" xmlns:xlink="http://www.w3.org/1999/xlink" width="840px" height="531px" viewBox="0 0 840 531" version="1.1">
<g id="surface1">
<path style=" stroke:none;fill-rule:nonzero;fill:rgb(100%,100%,100%);fill-opacity:1;" d="M 840 0 L 0 0 L 0 530.527344 L 840 530.527344 Z M 840 0 "/>
<path style="fill-rule:nonzero;fill:rgb(100%,100%,100%);fill-opacity:1;stroke-width:0.5;stroke-linecap:butt;stroke-linejoin:round;stroke:rgb(0%,0%,0%);stroke-opacity:1;stroke-miterlimit:4;" d="M 7 40.652344 L 77.390625 40.652344 C 79.424479 40.652344 81.074219 42.303385 81.074219 44.33724 L 81.074219 91.891927 C 81.074219 93.925781 79.424479 95.576823 77.390625 95.576823 L 7 95.576823 " transform="matrix(3,0,0,3,0,0)"/>
<path style="fill-rule:nonzero;fill:rgb(100%,100%,100%);fill-opacity:1;stroke-width:0.5;stroke-linecap:butt;stroke-linejoin:round;stroke:rgb(0%,0%,0%);stroke-opacity:1;stroke-miterlimit:4;" d="M 188.063802 40.652344 L 91.088542 40.652344 C 89.053385 40.652344 87.404948 42.302083 87.404948 44.33724 L 87.404948 91.891927 C 87.404948 93.927083 89.053385 95.576823 91.088542 95.576823 L 188.063802 95.576823 C 190.098958 95.576823 191.748698 93.927083 191.748698 91.891927 L 191.748698 44.33724 C 191.748698 42.302083 190.098958 40.652344 188.063802 40.652344 Z M 188.063802 40.652344 " transform="matrix(3,0,0,3,0,0)"/>
<path style="fill-rule:nonzero;fill:rgb(100%,100%,100%);fill-opacity:1;stroke-width:0.5;stroke-linecap:butt;stroke-linejoin:round;stroke:rgb(0%,0%,0%);stroke-opacity:1;stroke-miterlimit:4;" d="M 273 95.576823 L 201.769531 95.576823 C 199.735677 95.576823 198.084635 93.925781 198.084635 91.891927 L 198.084635 44.33724 C 198.084635 42.303385 199.735677 40.652344 201.769531 40.652344 L 273 40.652344 " transform="matrix(3,0,0,3,0,0)"/>
<path style="fill-rule:nonzero;fill:rgb(0%,0%,0%);fill-opacity:1;stroke-width:0.5;stroke-linecap:butt;stroke-linejoin:round;stroke:rgb(0%,0%,0%);stroke-opacity:1;stroke-miterlimit:4;" d="M 188.063802 103.726562 L 91.088542 103.726562 C 89.053385 103.726562 87.404948 105.375 87.404948 107.410156 L 87.404948 154.966146 C 87.404948 157 89.053385 158.64974 91.088542 158.64974 L 188.063802 158.64974 C 190.098958 158.64974 191.748698 157 191.748698 154.966146 L 191.748698 107.410156 C 191.748698 105.375 190.098958 103.726562 188.063802 103.726562 Z M 188.063802 103.726562 " transform="matrix(3,0,0,3,0,0)"/>
<path style="fill-rule:nonzero;fill:rgb(100%,100%,100%);fill-opacity:1;stroke-width:0.5;stroke-linecap:butt;stroke-linejoin:round;stroke:rgb(0%,0%,0%);stroke-opacity:1;stroke-miterlimit:4;" d="M 14.529948 45.751302 L 43.266927 45.751302 C 46.539062 45.751302 49.199219 48.411458 49.199219 51.682292 L 8.598958 51.682292 C 8.598958 48.411458 11.259115 45.751302 14.529948 45.751302 Z M 14.529948 45.751302 " transform="matrix(3,0,0,3,0,0)"/>
<path style="fill-rule:nonzero;fill:rgb(100%,100%,100%);fill-opacity:1;stroke-width:0.5;stroke-linecap:butt;stroke-linejoin:round;stroke:rgb(0%,0%,0%);stroke-opacity:1;stroke-miterlimit:4;" d="M 8.598958 51.682292 L 49.205729 51.682292 C 49.205729 53.15625 48.013021 54.35026 46.539062 54.35026 L 11.265625 54.35026 C 9.792969 54.35026 8.598958 53.15625 8.598958 51.682292 Z M 8.598958 51.682292 " transform="matrix(3,0,0,3,0,0)"/>
<path style="fill-rule:nonzero;fill:rgb(100%,100%,100%);fill-opacity:1;stroke-width:0.5;stroke-linecap:butt;stroke-linejoin:round;stroke:rgb(0%,0%,0%);stroke-opacity:1;stroke-miterlimit:4;" d="M 43.635417 63.126302 L 14.161458 63.126302 C 13.46224 63.126302 12.894531 63.69401 12.894531 64.393229 L 12.894531 71.842448 C 12.894531 72.542969 13.46224 73.110677 14.161458 73.110677 L 43.635417 73.110677 C 44.335938 73.110677 44.903646 72.542969 44.903646 71.842448 L 44.903646 64.393229 C 44.903646 63.69401 44.335938 63.126302 43.635417 63.126302 Z M 43.635417 63.126302 " transform="matrix(3,0,0,3,0,0)"/>
<path style="fill-rule:nonzero;fill:rgb(100%,100%,100%);fill-opacity:1;stroke-width:0.5;stroke-linecap:butt;stroke-linejoin:round;stroke:rgb(0%,0%,0%);stroke-opacity:1;stroke-miterlimit:4;" d="M 125.21224 45.751302 L 153.947917 45.751302 C 157.220052 45.751302 159.880208 48.411458 159.880208 51.682292 L 119.273438 51.682292 C 119.273438 48.411458 121.933594 45.751302 125.204427 45.751302 Z M 125.21224 45.751302 " transform="matrix(3,0,0,3,0,0)"/>
<path style="fill-rule:nonzero;fill:rgb(36.470589%,68.627453%,99.607843%);fill-opacity:1;stroke-width:0.5;stroke-linecap:butt;stroke-linejoin:round;stroke:rgb(0%,0%,0%);stroke-opacity:1;stroke-miterlimit:4;" d="M 119.279948 51.682292 L 159.886719 51.682292 C 159.886719 53.15625 158.69401 54.35026 157.220052 54.35026 L 121.946615 54.35026 C 120.473958 54.35026 119.279948 53.15625 119.279948 51.682292 Z M 119.279948 51.682292 " transform="matrix(3,0,0,3,0,0)"/>
<path style="fill-rule:nonzero;fill:rgb(100%,100%,100%);fill-opacity:1;stroke-width:0.5;stroke-linecap:butt;stroke-linejoin:round;stroke:rgb(0%,0%,0%);stroke-opacity:1;stroke-miterlimit:4;" d="M 154.316406 63.126302 L 124.842448 63.126302 C 124.143229 63.126302 123.575521 63.69401 123.575521 64.393229 L 123.575521 71.842448 C 123.575521 72.542969 124.143229 73.110677 124.842448 73.110677 L 154.316406 73.110677 C 155.016927 73.110677 155.584635 72.542969 155.584635 71.842448 L 155.584635 64.393229 C 155.584635 63.69401 155.016927 63.126302 154.316406 63.126302 Z M 154.316406 63.126302 " transform="matrix(3,0,0,3,0,0)"/>
<path style="fill-rule:nonzero;fill:rgb(100%,100%,100%);fill-opacity:1;stroke-width:0.5;stroke-linecap:butt;stroke-linejoin:round;stroke:rgb(0%,0%,0%);stroke-opacity:1;stroke-miterlimit:4;" d="M 235.893229 45.751302 L 264.628906 45.751302 C 267.901042 45.751302 270.561198 48.411458 270.561198 51.682292 L 229.954427 51.682292 C 229.954427 48.411458 232.614583 45.751302 235.885417 45.751302 Z M 235.893229 45.751302 " transform="matrix(3,0,0,3,0,0)"/>
<path style="fill-rule:nonzero;fill:rgb(100%,100%,100%);fill-opacity:1;stroke-width:0.5;stroke-linecap:butt;stroke-linejoin:round;stroke:rgb(0%,0%,0%);stroke-opacity:1;stroke-miterlimit:4;" d="M 229.960938 51.682292 L 270.567708 51.682292 C 270.567708 53.15625 269.375 54.35026 267.901042 54.35026 L 232.627604 54.35026 C 231.154948 54.35026 229.960938 53.15625 229.960938 51.682292 Z M 229.960938 51.682292 " transform="matrix(3,0,0,3,0,0)"/>
<path style="fill-rule:nonzero;fill:rgb(100%,100%,100%);fill-opacity:1;stroke-width:0.5;stroke-linecap:butt;stroke-linejoin:round;stroke:rgb(0%,0%,0%);stroke-opacity:1;stroke-miterlimit:4;" d="M 264.997396 63.126302 L 235.523438 63.126302 C 234.824219 63.126302 234.25651 63.69401 234.25651 64.393229 L 234.25651 71.842448 C 234.25651 72.542969 234.824219 73.110677 235.523438 73.110677 L 264.997396 73.110677 C 265.697917 73.110677 266.265625 72.542969 266.265625 71.842448 L 266.265625 64.393229 C 266.265625 63.69401 265.697917 63.126302 264.997396 63.126302 Z M 264.997396 63.126302 " transform="matrix(3,0,0,3,0,0)"/>
<path style="fill:none;stroke-width:0.5;stroke-linecap:butt;stroke-linejoin:round;stroke:rgb(0%,0%,0%);stroke-opacity:1;stroke-miterlimit:4;" d="M 71.377604 158.64974 L 7 158.64974 " transform="matrix(3,0,0,3,0,0)"/>
<path style="fill-rule:nonzero;fill:rgb(100%,100%,100%);fill-opacity:1;stroke-width:0.5;stroke-linecap:butt;stroke-linejoin:round;stroke:rgb(0%,0%,0%);stroke-opacity:1;stroke-miterlimit:4;" d="M 7 103.726562 L 77.390625 103.726562 C 79.424479 103.726562 81.074219 105.376302 81.074219 107.410156 L 81.074219 120.053385 " transform="matrix(3,0,0,3,0,0)"/>
<path style="fill-rule:nonzero;fill:rgb(100%,100%,100%);fill-opacity:1;stroke-width:0.5;stroke-linecap:butt;stroke-linejoin:round;stroke:rgb(0%,0%,0%);stroke-opacity:1;stroke-miterlimit:4;" d="M 198.084635 120.053385 L 198.084635 107.410156 C 198.084635 105.376302 199.735677 103.726562 201.769531 103.726562 L 273 103.726562 " transform="matrix(3,0,0,3,0,0)"/>
<path style="fill:none;stroke-width:0.5;stroke-linecap:butt;stroke-linejoin:round;stroke:rgb(0%,0%,0%);stroke-opacity:1;stroke-miterlimit:4;" d="M 273 158.64974 L 206.397135 158.64974 " transform="matrix(3,0,0,3,0,0)"/>
<path style="fill-rule:nonzero;fill:rgb(100%,100%,100%);fill-opacity:1;stroke-width:0.5;stroke-linecap:butt;stroke-linejoin:round;stroke:rgb(0%,0%,0%);stroke-opacity:1;stroke-miterlimit:4;" d="M 14.529948 108.824219 L 43.266927 108.824219 C 46.539062 108.824219 49.199219 111.484375 49.199219 114.75651 L 8.598958 114.75651 C 8.598958 111.484375 11.259115 108.824219 14.529948 108.824219 Z M 14.529948 108.824219 " transform="matrix(3,0,0,3,0,0)"/>
<path style="fill-rule:nonzero;fill:rgb(100%,100%,100%);fill-opacity:1;stroke-width:0.5;stroke-linecap:butt;stroke-linejoin:round;stroke:rgb(0%,0%,0%);stroke-opacity:1;stroke-miterlimit:4;" d="M 8.598958 114.75651 L 49.205729 114.75651 C 49.205729 116.230469 48.013021 117.423177 46.539062 117.423177 L 11.265625 117.423177 C 9.792969 117.423177 8.598958 116.230469 8.598958 114.75651 Z M 8.598958 114.75651 " transform="matrix(3,0,0,3,0,0)"/>
<path style="fill-rule:nonzero;fill:rgb(100%,100%,100%);fill-opacity:1;stroke-width:0.5;stroke-linecap:butt;stroke-linejoin:round;stroke:rgb(0%,0%,0%);stroke-opacity:1;stroke-miterlimit:4;" d="M 43.635417 126.199219 L 14.161458 126.199219 C 13.46224 126.199219 12.894531 126.766927 12.894531 127.467448 L 12.894531 134.915365 C 12.894531 135.615885 13.46224 136.183594 14.161458 136.183594 L 43.635417 136.183594 C 44.335938 136.183594 44.903646 135.615885 44.903646 134.915365 L 44.903646 127.467448 C 44.903646 126.766927 44.335938 126.199219 43.635417 126.199219 Z M 43.635417 126.199219 " transform="matrix(3,0,0,3,0,0)"/>
<path style="fill-rule:nonzero;fill:rgb(100%,100%,100%);fill-opacity:1;stroke-width:0.5;stroke-linecap:butt;stroke-linejoin:round;stroke:rgb(0%,0%,0%);stroke-opacity:1;stroke-miterlimit:4;" d="M 235.893229 108.824219 L 264.628906 108.824219 C 267.901042 108.824219 270.561198 111.484375 270.561198 114.75651 L 229.954427 114.75651 C 229.954427 111.484375 232.614583 108.824219 235.885417 108.824219 Z M 235.893229 108.824219 " transform="matrix(3,0,0,3,0,0)"/>
<path style="fill-rule:nonzero;fill:rgb(100%,100%,100%);fill-opacity:1;stroke-width:0.5;stroke-linecap:butt;stroke-linejoin:round;stroke:rgb(0%,0%,0%);stroke-opacity:1;stroke-miterlimit:4;" d="M 229.960938 114.75651 L 270.567708 114.75651 C 270.567708 116.230469 269.375 117.423177 267.901042 117.423177 L 232.627604 117.423177 C 231.154948 117.423177 229.960938 116.230469 229.960938 114.75651 Z M 229.960938 114.75651 " transform="matrix(3,0,0,3,0,0)"/>
<path style="fill-rule:nonzero;fill:rgb(100%,100%,100%);fill-opacity:1;stroke-width:0.5;stroke-linecap:butt;stroke-linejoin:round;stroke:rgb(0%,0%,0%);stroke-opacity:1;stroke-miterlimit:4;" d="M 264.997396 126.199219 L 235.523438 126.199219 C 234.824219 126.199219 234.25651 126.766927 234.25651 127.467448 L 234.25651 134.915365 C 234.25651 135.615885 234.824219 136.183594 235.523438 136.183594 L 264.997396 136.183594 C 265.697917 136.183594 266.265625 135.615885 266.265625 134.915365 L 266.265625 127.467448 C 266.265625 126.766927 265.697917 126.199219 264.997396 126.199219 Z M 264.997396 126.199219 " transform="matrix(3,0,0,3,0,0)"/>
<path style="fill-rule:nonzero;fill:rgb(36.470589%,68.627453%,99.607843%);fill-opacity:1;stroke-width:0.5;stroke-linecap:butt;stroke-linejoin:round;stroke:rgb(0%,0%,0%);stroke-opacity:1;stroke-miterlimit:4;" d="M 183.466146 103.726562 L 95.69401 103.726562 L 83.955729 125.794271 L 195.204427 125.794271 Z M 183.466146 103.726562 " transform="matrix(3,0,0,3,0,0)"/>
<path style="fill-rule:nonzero;fill:rgb(0%,0%,0%);fill-opacity:1;stroke-width:0.5;stroke-linecap:butt;stroke-linejoin:round;stroke:rgb(0%,0%,0%);stroke-opacity:1;stroke-miterlimit:4;" d="M 186.863281 110.106771 L 183.466146 103.726562 L 95.69401 103.726562 L 92.296875 110.106771 Z M 186.863281 110.106771 " transform="matrix(3,0,0,3,0,0)"/>
<path style="fill-rule:nonzero;fill:rgb(36.470589%,68.627453%,99.607843%);fill-opacity:1;stroke-width:0.5;stroke-linecap:butt;stroke-linejoin:round;stroke:rgb(0%,0%,0%);stroke-opacity:1;stroke-miterlimit:4;" d="M 91.729167 108.713542 C 92.576823 105.855469 96.747396 103.614583 101.079427 103.614583 L 126.205729 103.614583 C 128.688802 103.614583 130.988281 104.359375 132.417969 105.641927 L 135.342448 108.265625 C 136.838542 109.613281 139.270833 110.415365 141.864583 110.415365 L 179.8125 110.415365 C 184.328125 110.415365 188.713542 112.863281 189.634115 115.971354 " transform="matrix(3,0,0,3,0,0)"/>
<path style="fill-rule:nonzero;fill:rgb(36.470589%,68.627453%,99.607843%);fill-opacity:1;stroke-width:0.5;stroke-linecap:butt;stroke-linejoin:round;stroke:rgb(0%,0%,0%);stroke-opacity:1;stroke-miterlimit:4;" d="M 90.388021 111.174479 C 91.265625 108.205729 95.561198 105.885417 100.011719 105.885417 L 125.830729 105.885417 C 128.386719 105.885417 130.744792 106.657552 132.21224 107.992188 L 135.210938 110.717448 C 136.751302 112.11849 139.247396 112.950521 141.915365 112.950521 L 180.924479 112.950521 C 185.566406 112.950521 190.083333 115.49349 191.040365 118.727865 " transform="matrix(3,0,0,3,0,0)"/>
<path style="fill-rule:nonzero;fill:rgb(36.470589%,68.627453%,99.607843%);fill-opacity:1;stroke-width:0.5;stroke-linecap:butt;stroke-linejoin:round;stroke:rgb(0%,0%,0%);stroke-opacity:1;stroke-miterlimit:4;" d="M 88.428385 113.657552 C 89.348958 110.540365 93.821615 108.102865 98.442708 108.102865 L 125.25651 108.102865 C 127.907552 108.102865 130.361979 108.91276 131.880208 110.3125 L 134.997396 113.178385 C 136.596354 114.645833 139.190104 115.529948 141.959635 115.529948 L 182.49349 115.529948 C 187.320312 115.529948 192.020833 118.196615 193.03125 121.601562 " transform="matrix(3,0,0,3,0,0)"/>
<path style="fill-rule:nonzero;fill:rgb(36.470589%,68.627453%,99.607843%);fill-opacity:1;stroke-width:0.5;stroke-linecap:butt;stroke-linejoin:round;stroke:rgb(0%,0%,0%);stroke-opacity:1;stroke-miterlimit:4;" d="M 194.334635 124.415365 C 193.289062 120.886719 188.470052 118.123698 183.52474 118.123698 L 142.011719 118.123698 C 139.174479 118.123698 136.515625 117.209635 134.878906 115.691406 L 131.688802 112.730469 C 130.134115 111.286458 127.621094 110.4375 124.902344 110.4375 L 97.447917 110.4375 C 92.717448 110.4375 88.134115 112.966146 87.183594 116.192708 L 85.230469 122.360677 " transform="matrix(3,0,0,3,0,0)"/>
<path style="fill-rule:nonzero;fill:rgb(36.470589%,68.627453%,99.607843%);fill-opacity:1;stroke-width:0.5;stroke-linecap:butt;stroke-linejoin:round;stroke:rgb(0%,0%,0%);stroke-opacity:1;stroke-miterlimit:4;" d="M 195.734375 127.296875 C 194.652344 123.635417 189.692708 120.769531 184.622396 120.769531 L 142.048177 120.769531 C 139.138021 120.769531 136.411458 119.825521 134.731771 118.248698 L 131.459635 115.175781 C 129.860677 113.68099 127.289062 112.803385 124.511719 112.803385 L 96.371094 112.803385 C 91.523438 112.803385 86.815104 115.427083 85.826823 118.765625 L 84.11849 124.408854 " transform="matrix(3,0,0,3,0,0)"/>
<path style="fill-rule:nonzero;fill:rgb(36.470589%,68.627453%,99.607843%);fill-opacity:1;stroke-width:0.5;stroke-linecap:butt;stroke-linejoin:round;stroke:rgb(0%,0%,0%);stroke-opacity:1;stroke-miterlimit:4;" d="M 197.039062 130.214844 C 195.919271 126.428385 190.834635 123.459635 185.654948 123.459635 L 142.10026 123.459635 C 139.122396 123.459635 136.338542 122.479167 134.621094 120.85026 L 131.276042 117.674479 C 129.647135 116.127604 127.016927 115.221354 124.165365 115.221354 L 95.391927 115.221354 C 90.432292 115.221354 85.613281 117.932292 84.589844 121.388021 L 83.25651 125.373698 " transform="matrix(3,0,0,3,0,0)"/>
<path style="fill-rule:nonzero;fill:rgb(36.470589%,68.627453%,99.607843%);fill-opacity:1;stroke-width:0.5;stroke-linecap:butt;stroke-linejoin:round;stroke:rgb(0%,0%,0%);stroke-opacity:1;stroke-miterlimit:4;" d="M 118.315104 118.411458 L 97.845052 118.411458 C 96.994792 118.411458 96.30599 119.101562 96.30599 119.950521 C 96.30599 120.802083 96.994792 121.490885 97.845052 121.490885 L 118.315104 121.490885 C 119.165365 121.490885 119.855469 120.802083 119.855469 119.950521 C 119.855469 119.101562 119.165365 118.411458 118.315104 118.411458 Z M 118.315104 118.411458 " transform="matrix(3,0,0,3,0,0)"/>
<path style="fill-rule:nonzero;fill:rgb(100%,100%,100%);fill-opacity:1;stroke-width:0.5;stroke-linecap:butt;stroke-linejoin:round;stroke:rgb(0%,0%,0%);stroke-opacity:1;stroke-miterlimit:4;" d="M 77.36849 171.683594 L 77.36849 128.106771 C 77.36849 125.683594 79.335938 123.716146 81.760417 123.716146 L 197.393229 123.716146 C 199.816406 123.716146 201.783854 125.683594 201.783854 128.106771 L 201.783854 171.683594 " transform="matrix(3,0,0,3,0,0)"/>
<path style="fill-rule:nonzero;fill:rgb(100%,100%,100%);fill-opacity:1;stroke-width:0.5;stroke-linecap:butt;stroke-linejoin:round;stroke:rgb(0%,0%,0%);stroke-opacity:1;stroke-miterlimit:4;" d="M 122.447917 129.795573 L 156.71875 129.795573 C 160.623698 129.795573 163.792969 132.963542 163.792969 136.86849 L 115.375 136.86849 C 115.375 132.963542 118.542969 129.795573 122.447917 129.795573 Z M 122.447917 129.795573 " transform="matrix(3,0,0,3,0,0)"/>
<path style="fill-rule:nonzero;fill:rgb(0%,0%,0%);fill-opacity:1;stroke-width:0.5;stroke-linecap:butt;stroke-linejoin:round;stroke:rgb(0%,0%,0%);stroke-opacity:1;stroke-miterlimit:4;" d="M 115.375 136.86849 L 163.792969 136.86849 C 163.792969 138.622396 162.371094 140.050781 160.609375 140.050781 L 118.558594 140.050781 C 116.803385 140.050781 115.375 138.628906 115.375 136.86849 Z M 115.375 136.86849 " transform="matrix(3,0,0,3,0,0)"/>
<path style="fill-rule:nonzero;fill:rgb(100%,100%,100%);fill-opacity:1;stroke-width:0.5;stroke-linecap:butt;stroke-linejoin:round;stroke:rgb(0%,0%,0%);stroke-opacity:1;stroke-miterlimit:4;" d="M 157.145833 150.507812 L 122.020833 150.507812 C 121.183594 150.507812 120.502604 151.1875 120.502604 152.026042 L 120.502604 160.897135 C 120.502604 161.735677 121.183594 162.415365 122.020833 162.415365 L 157.145833 162.415365 C 157.984375 162.415365 158.664062 161.735677 158.664062 160.897135 L 158.664062 152.026042 C 158.664062 151.1875 157.984375 150.507812 157.145833 150.507812 Z M 157.145833 150.507812 " transform="matrix(3,0,0,3,0,0)"/>
<path style="fill:none;stroke-width:0.5;stroke-linecap:butt;stroke-linejoin:round;stroke:rgb(36.470589%,68.627453%,99.607843%);stroke-opacity:1;stroke-miterlimit:4;" d="M 183.798177 104.351562 L 186.532552 109.480469 " transform="matrix(3,0,0,3,0,0)"/>
<path style="fill:none;stroke-width:0.5;stroke-linecap:butt;stroke-linejoin:round;stroke:rgb(36.470589%,68.627453%,99.607843%);stroke-opacity:1;stroke-miterlimit:4;" d="M 95.361979 104.351562 L 92.628906 109.480469 " transform="matrix(3,0,0,3,0,0)"/>
<path style="fill-rule:nonzero;fill:rgb(36.470589%,68.627453%,99.607843%);fill-opacity:1;stroke-width:0.5;stroke-linecap:butt;stroke-linejoin:round;stroke:rgb(0%,0%,0%);stroke-opacity:1;stroke-miterlimit:4;" d="M 138.276042 100.661458 L 75.652344 117.438802 C 72.136719 118.38151 68.519531 116.296875 67.575521 112.773438 L 53.730469 61.114583 C 52.78776 57.60026 54.872396 53.981771 58.394531 53.039062 L 78.8125 47.563802 C 80.832031 47.026042 82.990885 47.47526 84.626302 48.772135 L 87.898438 51.380208 C 89.533854 52.684896 91.692708 53.134115 93.71224 52.589844 L 123.265625 44.667969 C 126.78125 43.72526 130.398438 45.809896 131.342448 49.332031 L 142.933594 92.578125 C 143.876302 96.092448 141.790365 99.709635 138.269531 100.653646 Z M 138.276042 100.661458 " transform="matrix(3,0,0,3,0,0)"/>
<path style="fill:none;stroke-width:0.5;stroke-linecap:butt;stroke-linejoin:round;stroke:rgb(0%,0%,0%);stroke-opacity:1;stroke-miterlimit:4;" d="M 76.832031 52.760417 L 61.464844 56.877604 C 60.63151 57.101562 60.136719 57.958333 60.360677 58.791667 C 60.583333 59.625 61.440104 60.11849 62.273438 59.895833 L 77.640625 55.778646 C 78.473958 55.554688 78.967448 54.697917 78.744792 53.864583 C 78.520833 53.03125 77.665365 52.53776 76.832031 52.760417 Z M 76.832031 52.760417 " transform="matrix(3,0,0,3,0,0)"/>
<path style="fill-rule:nonzero;fill:rgb(0%,0%,0%);fill-opacity:1;stroke-width:0.5;stroke-linecap:butt;stroke-linejoin:round;stroke:rgb(0%,0%,0%);stroke-opacity:1;stroke-miterlimit:4;" d="M 138.276042 100.660156 L 75.652344 117.4375 C 72.136719 118.38151 69.027344 116.140625 68.710938 112.434896 L 65.416667 73.433594 C 65.10026 69.727865 67.701823 65.955729 71.222656 65.011719 L 133.847656 48.234375 C 137.361979 47.290365 140.471354 49.53125 140.789062 53.236979 L 144.082031 92.238281 C 144.398438 95.94401 141.798177 99.717448 138.276042 100.660156 Z M 138.276042 100.660156 " transform="matrix(3,0,0,3,0,0)"/>
<path style="fill:none;stroke-width:1;stroke-linecap:round;stroke-linejoin:round;stroke:rgb(100%,100%,100%);stroke-opacity:1;stroke-miterlimit:4;" d="M 117.976562 79.292969 L 112.811198 80.678385 L 111.971354 70.936198 L 117.135417 69.552083 C 119.700521 68.865885 121.970052 70.486979 122.204427 73.177083 C 122.433594 75.865885 120.540365 78.606771 117.976562 79.292969 Z M 117.976562 79.292969 " transform="matrix(3,0,0,3,0,0)"/>
<path style="fill:none;stroke-width:1;stroke-linecap:round;stroke-linejoin:round;stroke:rgb(100%,100%,100%);stroke-opacity:1;stroke-miterlimit:4;" d="M 111.977865 70.936198 L 113.651042 90.411458 " transform="matrix(3,0,0,3,0,0)"/>
<path style="fill:none;stroke-width:1;stroke-linecap:round;stroke-linejoin:round;stroke:rgb(100%,100%,100%);stroke-opacity:1;stroke-miterlimit:4;" d="M 85.864583 77.929688 L 97.388021 74.842448 " transform="matrix(3,0,0,3,0,0)"/>
<path style="fill:none;stroke-width:1;stroke-linecap:round;stroke-linejoin:round;stroke:rgb(100%,100%,100%);stroke-opacity:1;stroke-miterlimit:4;" d="M 91.626302 76.389323 L 93.299479 95.872396 " transform="matrix(3,0,0,3,0,0)"/>
<path style="fill:none;stroke-width:1;stroke-linecap:round;stroke-linejoin:round;stroke:rgb(100%,100%,100%);stroke-opacity:1;stroke-miterlimit:4;" d="M 109.236979 86.742188 C 109.464844 89.365885 107.615885 92.032552 105.11849 92.703125 C 102.619792 93.373698 100.410156 91.789062 100.18099 89.174479 L 99.326823 79.182292 C 99.097656 76.558594 100.946615 73.891927 103.445312 73.221354 C 105.942708 72.550781 108.153646 74.135417 108.38151 76.751302 " transform="matrix(3,0,0,3,0,0)"/>
<path style="fill-rule:nonzero;fill:rgb(36.470589%,68.627453%,99.607843%);fill-opacity:1;stroke-width:0.5;stroke-linecap:butt;stroke-linejoin:round;stroke:rgb(0%,0%,0%);stroke-opacity:1;stroke-miterlimit:4;" d="M 191.158854 94.316406 L 128.535156 77.53776 C 125.019531 76.595052 122.927083 72.977865 123.871094 69.46224 L 137.716146 17.802083 C 138.658854 14.28776 142.277344 12.195312 145.791667 13.138021 L 166.209635 18.613281 C 168.227865 19.151042 169.872396 20.625 170.638021 22.570312 L 172.170573 26.460938 C 172.9375 28.40625 174.579427 29.872396 176.598958 30.416667 L 206.153646 38.338542 C 209.667969 39.28125 211.760417 42.89974 210.817708 46.414062 L 199.226562 89.658854 C 198.283854 93.174479 194.665365 95.266927 191.152344 94.324219 Z M 191.158854 94.316406 " transform="matrix(3,0,0,3,0,0)"/>
<path style="fill:none;stroke-width:0.5;stroke-linecap:butt;stroke-linejoin:round;stroke:rgb(0%,0%,0%);stroke-opacity:1;stroke-miterlimit:4;" d="M 161.903646 22.110677 L 146.536458 17.99349 C 145.703125 17.769531 144.846354 18.264323 144.622396 19.097656 C 144.39974 19.93099 144.894531 20.78776 145.727865 21.010417 L 161.09375 25.128906 C 161.927083 25.351562 162.783854 24.856771 163.00651 24.023438 C 163.230469 23.190104 162.735677 22.333333 161.903646 22.110677 Z M 161.903646 22.110677 " transform="matrix(3,0,0,3,0,0)"/>
<path style="fill-rule:nonzero;fill:rgb(0%,0%,0%);fill-opacity:1;stroke-width:0.5;stroke-linecap:butt;stroke-linejoin:round;stroke:rgb(0%,0%,0%);stroke-opacity:1;stroke-miterlimit:4;" d="M 191.158854 94.316406 L 128.535156 77.53776 C 125.019531 76.595052 123.442708 73.101562 125.027344 69.734375 L 141.673177 34.307292 C 143.25651 30.940104 147.390625 28.972656 150.904948 29.915365 L 213.529948 46.69401 C 217.044271 47.636719 218.621094 51.128906 217.036458 54.497396 L 200.391927 89.924479 C 198.807292 93.291667 194.674479 95.259115 191.158854 94.316406 Z M 191.158854 94.316406 " transform="matrix(3,0,0,3,0,0)"/>
<path style="fill:none;stroke-width:1;stroke-linecap:round;stroke-linejoin:round;stroke:rgb(100%,100%,100%);stroke-opacity:1;stroke-miterlimit:4;" d="M 166.710938 50.989583 L 160.99349 63.213542 C 159.571615 66.242188 155.842448 68.010417 152.658854 67.15625 C 149.476562 66.300781 148.045573 63.154948 149.46875 60.126302 L 155.186198 47.902344 " transform="matrix(3,0,0,3,0,0)"/>
<path style="fill:none;stroke-width:1;stroke-linecap:round;stroke-linejoin:round;stroke:rgb(100%,100%,100%);stroke-opacity:1;stroke-miterlimit:4;" d="M 165.863281 70.692708 L 162.016927 69.661458 L 170.30599 51.955729 L 174.153646 52.986979 C 177.704427 53.9375 179.295573 57.44401 177.71224 60.826823 L 175.147135 66.300781 C 173.5625 69.683594 169.407552 71.651042 165.855469 70.700521 Z M 165.863281 70.692708 " transform="matrix(3,0,0,3,0,0)"/>
<path style="fill:none;stroke-width:1;stroke-linecap:round;stroke-linejoin:round;stroke:rgb(100%,100%,100%);stroke-opacity:1;stroke-miterlimit:4;" d="M 184.261719 65.660156 L 179.096354 64.27474 L 183.244792 55.417969 L 188.411458 56.803385 C 190.97526 57.488281 192.13151 60.03125 190.989583 62.476562 C 189.846354 64.923177 186.834635 66.345052 184.269531 65.660156 Z M 184.261719 65.660156 " transform="matrix(3,0,0,3,0,0)"/>
<path style="fill:none;stroke-width:1;stroke-linecap:round;stroke-linejoin:round;stroke:rgb(100%,100%,100%);stroke-opacity:1;stroke-miterlimit:4;" d="M 183.244792 55.425781 L 174.955729 73.13151 " transform="matrix(3,0,0,3,0,0)"/>
<path style="fill:none;stroke-width:0.5;stroke-linecap:butt;stroke-linejoin:round;stroke:rgb(36.470589%,68.627453%,99.607843%);stroke-opacity:1;stroke-miterlimit:4;" d="M 141.679688 81.061198 L 128.535156 77.539062 C 128.535156 77.539062 126.604167 77.007812 125.845052 75.990885 " transform="matrix(3,0,0,3,0,0)"/>
</g>
</svg>
