<?xml version="1.0" encoding="UTF-8"?>
<svg xmlns="http://www.w3.org/2000/svg" xmlns:xlink="http://www.w3.org/1999/xlink" width="690px" height="438px" viewBox="0 0 690 438" version="1.1">
<g id="surface1">
<path style="fill:none;stroke-width:0.5;stroke-linecap:butt;stroke-linejoin:round;stroke:rgb(0%,0%,0%);stroke-opacity:1;stroke-miterlimit:4;" d="M 46.315104 94.651042 L 15.640625 94.651042 C 14.34375 94.651042 13.291667 95.707031 13.291667 97.010417 L 13.291667 122.841146 C 13.291667 124.144531 14.34375 125.200521 15.640625 125.200521 L 46.315104 125.200521 C 47.611979 125.200521 48.66276 124.144531 48.66276 122.841146 L 48.66276 97.010417 C 48.66276 95.707031 47.611979 94.651042 46.315104 94.651042 Z M 46.315104 94.651042 " transform="matrix(3,0,0,3,0,0)"/>
<path style="fill:none;stroke-width:0.5;stroke-linecap:butt;stroke-linejoin:round;stroke:rgb(0%,0%,0%);stroke-opacity:1;stroke-miterlimit:4;" d="M 21.354167 108.477865 L 21.354167 99.888021 L 18.835938 99.888021 " transform="matrix(3,0,0,3,0,0)"/>
<path style="fill:none;stroke-width:0.5;stroke-linecap:butt;stroke-linejoin:round;stroke:rgb(0%,0%,0%);stroke-opacity:1;stroke-miterlimit:4;" d="M 18.835938 108.459635 L 23.852865 108.459635 " transform="matrix(3,0,0,3,0,0)"/>
<path style="fill:none;stroke-width:0.5;stroke-linecap:butt;stroke-linejoin:round;stroke:rgb(0%,0%,0%);stroke-opacity:1;stroke-miterlimit:4;" d="M 34.699219 108.477865 L 34.699219 99.888021 L 32.182292 99.888021 " transform="matrix(3,0,0,3,0,0)"/>
<path style="fill:none;stroke-width:0.5;stroke-linecap:butt;stroke-linejoin:round;stroke:rgb(0%,0%,0%);stroke-opacity:1;stroke-miterlimit:4;" d="M 32.182292 108.459635 L 37.199219 108.459635 " transform="matrix(3,0,0,3,0,0)"/>
<path style="fill:none;stroke-width:0.5;stroke-linecap:butt;stroke-linejoin:round;stroke:rgb(0%,0%,0%);stroke-opacity:1;stroke-miterlimit:4;" d="M 41.376302 108.477865 L 41.376302 99.888021 L 38.851562 99.888021 " transform="matrix(3,0,0,3,0,0)"/>
<path style="fill:none;stroke-width:0.5;stroke-linecap:butt;stroke-linejoin:round;stroke:rgb(0%,0%,0%);stroke-opacity:1;stroke-miterlimit:4;" d="M 38.851562 108.459635 L 43.869792 108.459635 " transform="matrix(3,0,0,3,0,0)"/>
<path style="fill:none;stroke-width:0.5;stroke-linecap:butt;stroke-linejoin:round;stroke:rgb(0%,0%,0%);stroke-opacity:1;stroke-miterlimit:4;" d="M 28.018229 99.888021 L 28.011719 99.888021 C 26.627604 99.888021 25.50651 101.015625 25.50651 102.407552 L 25.50651 105.934896 C 25.50651 107.325521 26.627604 108.454427 28.011719 108.454427 L 28.018229 108.454427 C 29.401042 108.454427 30.523438 107.325521 30.523438 105.934896 L 30.523438 102.407552 C 30.523438 101.015625 29.401042 99.888021 28.018229 99.888021 Z M 28.018229 99.888021 " transform="matrix(3,0,0,3,0,0)"/>
<path style="fill:none;stroke-width:0.5;stroke-linecap:butt;stroke-linejoin:round;stroke:rgb(0%,0%,0%);stroke-opacity:1;stroke-miterlimit:4;" d="M 28.029948 119.950521 L 28.029948 111.360677 L 25.50651 111.360677 " transform="matrix(3,0,0,3,0,0)"/>
<path style="fill:none;stroke-width:0.5;stroke-linecap:butt;stroke-linejoin:round;stroke:rgb(0%,0%,0%);stroke-opacity:1;stroke-miterlimit:4;" d="M 25.50651 119.933594 L 30.523438 119.933594 " transform="matrix(3,0,0,3,0,0)"/>
<path style="fill:none;stroke-width:0.5;stroke-linecap:butt;stroke-linejoin:round;stroke:rgb(0%,0%,0%);stroke-opacity:1;stroke-miterlimit:4;" d="M 41.38151 119.950521 L 41.38151 111.360677 L 38.864583 111.360677 " transform="matrix(3,0,0,3,0,0)"/>
<path style="fill:none;stroke-width:0.5;stroke-linecap:butt;stroke-linejoin:round;stroke:rgb(0%,0%,0%);stroke-opacity:1;stroke-miterlimit:4;" d="M 38.864583 119.933594 L 43.88151 119.933594 " transform="matrix(3,0,0,3,0,0)"/>
<path style="fill:none;stroke-width:0.5;stroke-linecap:butt;stroke-linejoin:round;stroke:rgb(0%,0%,0%);stroke-opacity:1;stroke-miterlimit:4;" d="M 21.347656 111.360677 L 21.341146 111.360677 C 19.958333 111.360677 18.835938 112.489583 18.835938 113.880208 L 18.835938 117.407552 C 18.835938 118.799479 19.958333 119.927083 21.341146 119.927083 L 21.347656 119.927083 C 22.731771 119.927083 23.852865 118.799479 23.852865 117.407552 L 23.852865 113.880208 C 23.852865 112.489583 22.731771 111.360677 21.347656 111.360677 Z M 21.347656 111.360677 " transform="matrix(3,0,0,3,0,0)"/>
<path style="fill:none;stroke-width:0.5;stroke-linecap:butt;stroke-linejoin:round;stroke:rgb(0%,0%,0%);stroke-opacity:1;stroke-miterlimit:4;" d="M 34.69401 111.360677 L 34.6875 111.360677 C 33.303385 111.360677 32.182292 112.489583 32.182292 113.880208 L 32.182292 117.407552 C 32.182292 118.799479 33.303385 119.927083 34.6875 119.927083 L 34.69401 119.927083 C 36.078125 119.927083 37.199219 118.799479 37.199219 117.407552 L 37.199219 113.880208 C 37.199219 112.489583 36.078125 111.360677 34.69401 111.360677 Z M 34.69401 111.360677 " transform="matrix(3,0,0,3,0,0)"/>
<path style="fill-rule:nonzero;fill:rgb(100%,100%,100%);fill-opacity:1;stroke-width:0.5;stroke-linecap:butt;stroke-linejoin:round;stroke:rgb(0%,0%,0%);stroke-opacity:1;stroke-miterlimit:4;" d="M 31.716146 10.803385 L 10.992188 10.803385 C 10.111979 10.803385 9.39974 11.520833 9.39974 12.403646 L 9.39974 29.856771 C 9.39974 30.740885 10.111979 31.457031 10.992188 31.457031 L 31.716146 31.457031 C 32.595052 31.457031 33.307292 30.740885 33.307292 29.856771 L 33.307292 12.403646 C 33.307292 11.520833 32.595052 10.803385 31.716146 10.803385 Z M 31.716146 10.803385 " transform="matrix(3,0,0,3,0,0)"/>
<path style="fill:none;stroke-width:0.5;stroke-linecap:butt;stroke-linejoin:round;stroke:rgb(0%,0%,0%);stroke-opacity:1;stroke-miterlimit:4;" d="M 14.852865 20.141927 L 14.852865 14.332031 L 13.145833 14.332031 " transform="matrix(3,0,0,3,0,0)"/>
<path style="fill:none;stroke-width:0.5;stroke-linecap:butt;stroke-linejoin:round;stroke:rgb(0%,0%,0%);stroke-opacity:1;stroke-miterlimit:4;" d="M 13.145833 20.123698 L 16.541667 20.123698 " transform="matrix(3,0,0,3,0,0)"/>
<path style="fill:none;stroke-width:0.5;stroke-linecap:butt;stroke-linejoin:round;stroke:rgb(0%,0%,0%);stroke-opacity:1;stroke-miterlimit:4;" d="M 21.050781 16.035156 C 21.050781 15.095052 20.291667 14.332031 19.356771 14.332031 C 18.420573 14.332031 17.661458 15.095052 17.661458 16.035156 L 17.661458 18.420573 C 17.661458 19.360677 18.420573 20.123698 19.356771 20.123698 C 20.291667 20.123698 21.050781 19.360677 21.050781 18.420573 Z M 21.050781 16.035156 " transform="matrix(3,0,0,3,0,0)"/>
<path style="fill:none;stroke-width:0.5;stroke-linecap:butt;stroke-linejoin:round;stroke:rgb(0%,0%,0%);stroke-opacity:1;stroke-miterlimit:4;" d="M 25.559896 16.035156 C 25.559896 15.095052 24.802083 14.332031 23.865885 14.332031 C 22.929688 14.332031 22.170573 15.095052 22.170573 16.035156 L 22.170573 18.420573 C 22.170573 19.360677 22.929688 20.123698 23.865885 20.123698 C 24.802083 20.123698 25.559896 19.360677 25.559896 18.420573 Z M 25.559896 16.035156 " transform="matrix(3,0,0,3,0,0)"/>
<path style="fill:none;stroke-width:0.5;stroke-linecap:butt;stroke-linejoin:round;stroke:rgb(0%,0%,0%);stroke-opacity:1;stroke-miterlimit:4;" d="M 30.06901 16.035156 C 30.06901 15.095052 29.311198 14.332031 28.375 14.332031 C 27.438802 14.332031 26.679688 15.095052 26.679688 16.035156 L 26.679688 18.420573 C 26.679688 19.360677 27.438802 20.123698 28.375 20.123698 C 29.311198 20.123698 30.06901 19.360677 30.06901 18.420573 Z M 30.06901 16.035156 " transform="matrix(3,0,0,3,0,0)"/>
<path style="fill:none;stroke-width:0.5;stroke-linecap:butt;stroke-linejoin:round;stroke:rgb(0%,0%,0%);stroke-opacity:1;stroke-miterlimit:4;" d="M 14.852865 27.891927 L 14.852865 22.088542 L 13.145833 22.088542 " transform="matrix(3,0,0,3,0,0)"/>
<path style="fill:none;stroke-width:0.5;stroke-linecap:butt;stroke-linejoin:round;stroke:rgb(0%,0%,0%);stroke-opacity:1;stroke-miterlimit:4;" d="M 13.145833 27.880208 L 16.541667 27.880208 " transform="matrix(3,0,0,3,0,0)"/>
<path style="fill:none;stroke-width:0.5;stroke-linecap:butt;stroke-linejoin:round;stroke:rgb(0%,0%,0%);stroke-opacity:1;stroke-miterlimit:4;" d="M 23.871094 27.891927 L 23.871094 22.088542 L 22.170573 22.088542 " transform="matrix(3,0,0,3,0,0)"/>
<path style="fill:none;stroke-width:0.5;stroke-linecap:butt;stroke-linejoin:round;stroke:rgb(0%,0%,0%);stroke-opacity:1;stroke-miterlimit:4;" d="M 22.170573 27.880208 L 25.559896 27.880208 " transform="matrix(3,0,0,3,0,0)"/>
<path style="fill:none;stroke-width:0.5;stroke-linecap:butt;stroke-linejoin:round;stroke:rgb(0%,0%,0%);stroke-opacity:1;stroke-miterlimit:4;" d="M 28.380208 27.891927 L 28.380208 22.088542 L 26.679688 22.088542 " transform="matrix(3,0,0,3,0,0)"/>
<path style="fill:none;stroke-width:0.5;stroke-linecap:butt;stroke-linejoin:round;stroke:rgb(0%,0%,0%);stroke-opacity:1;stroke-miterlimit:4;" d="M 26.679688 27.880208 L 30.075521 27.880208 " transform="matrix(3,0,0,3,0,0)"/>
<path style="fill:none;stroke-width:0.5;stroke-linecap:butt;stroke-linejoin:round;stroke:rgb(0%,0%,0%);stroke-opacity:1;stroke-miterlimit:4;" d="M 21.050781 23.791667 C 21.050781 22.851562 20.291667 22.088542 19.356771 22.088542 C 18.420573 22.088542 17.661458 22.851562 17.661458 23.791667 L 17.661458 26.177083 C 17.661458 27.117188 18.420573 27.880208 19.356771 27.880208 C 20.291667 27.880208 21.050781 27.117188 21.050781 26.177083 Z M 21.050781 23.791667 " transform="matrix(3,0,0,3,0,0)"/>
<path style="fill-rule:nonzero;fill:rgb(0%,0%,0%);fill-opacity:1;stroke-width:0.5;stroke-linecap:butt;stroke-linejoin:round;stroke:rgb(100%,100%,100%);stroke-opacity:1;stroke-miterlimit:4;" d="M 142.052083 87.609375 L 135.00651 94.690104 C 133.592448 96.113281 133.592448 98.420573 135.00651 99.84375 L 171.950521 136.97526 C 173.367188 138.398438 175.66276 138.398438 177.078125 136.97526 L 184.122396 129.894531 C 185.539062 128.471354 185.539062 126.164062 184.122396 124.740885 L 147.178385 87.609375 C 145.764323 86.1875 143.467448 86.1875 142.052083 87.609375 Z M 142.052083 87.609375 " transform="matrix(3,0,0,3,0,0)"/>
<path style="fill:none;stroke-width:0.5;stroke-linecap:butt;stroke-linejoin:round;stroke:rgb(100%,100%,100%);stroke-opacity:1;stroke-miterlimit:4;" d="M 148.355469 88.791667 C 152.859375 93.317708 144.501302 109.384115 150.880208 115.795573 " transform="matrix(3,0,0,3,0,0)"/>
<path style="fill:none;stroke-width:0.5;stroke-linecap:butt;stroke-linejoin:round;stroke:rgb(100%,100%,100%);stroke-opacity:1;stroke-miterlimit:4;" d="M 155.989583 96.463542 C 159.105469 99.596354 155.989583 109.634115 160.746094 115.795573 C 165.678385 122.196615 173.535156 116.703125 173.679688 114.239583 " transform="matrix(3,0,0,3,0,0)"/>
<path style="fill:none;stroke-width:0.5;stroke-linecap:butt;stroke-linejoin:round;stroke:rgb(100%,100%,100%);stroke-opacity:1;stroke-miterlimit:4;" d="M 158.257812 123.21224 C 162.320312 127.294271 181.640625 123.674479 182.171875 131.855469 " transform="matrix(3,0,0,3,0,0)"/>
<path style="fill:none;stroke-width:0.5;stroke-linecap:butt;stroke-linejoin:round;stroke:rgb(100%,100%,100%);stroke-opacity:1;stroke-miterlimit:4;" d="M 177.856771 136.19401 C 179.03125 132.476562 167.700521 132.701823 167.700521 132.701823 " transform="matrix(3,0,0,3,0,0)"/>
<path style="fill:none;stroke-width:0.5;stroke-linecap:butt;stroke-linejoin:round;stroke:rgb(100%,100%,100%);stroke-opacity:1;stroke-miterlimit:4;" d="M 136.904948 92.716146 C 143.502604 89.644531 140.621094 105.479167 144.330729 109.213542 " transform="matrix(3,0,0,3,0,0)"/>
<path style="fill:none;stroke-width:0.5;stroke-linecap:butt;stroke-linejoin:round;stroke:rgb(0%,0%,0%);stroke-opacity:1;stroke-miterlimit:4;" d="M 219.765625 9.714844 L 189.089844 9.714844 C 187.792969 9.714844 186.742188 10.772135 186.742188 12.075521 L 186.742188 37.904948 C 186.742188 39.208333 187.792969 40.265625 189.089844 40.265625 L 219.765625 40.265625 C 221.0625 40.265625 222.114583 39.208333 222.114583 37.904948 L 222.114583 12.075521 C 222.114583 10.772135 221.0625 9.714844 219.765625 9.714844 Z M 219.765625 9.714844 " transform="matrix(3,0,0,3,0,0)"/>
<path style="fill:none;stroke-width:0.5;stroke-linecap:butt;stroke-linejoin:round;stroke:rgb(0%,0%,0%);stroke-opacity:1;stroke-miterlimit:4;" d="M 194.803385 23.52474 L 194.803385 14.940104 L 192.286458 14.940104 " transform="matrix(3,0,0,3,0,0)"/>
<path style="fill:none;stroke-width:0.5;stroke-linecap:butt;stroke-linejoin:round;stroke:rgb(0%,0%,0%);stroke-opacity:1;stroke-miterlimit:4;" d="M 192.286458 23.50651 L 197.303385 23.50651 " transform="matrix(3,0,0,3,0,0)"/>
<path style="fill:none;stroke-width:0.5;stroke-linecap:butt;stroke-linejoin:round;stroke:rgb(0%,0%,0%);stroke-opacity:1;stroke-miterlimit:4;" d="M 201.467448 14.940104 L 201.46224 14.940104 C 200.078125 14.940104 198.955729 16.067708 198.955729 17.459635 L 198.955729 20.986979 C 198.955729 22.378906 200.078125 23.50651 201.46224 23.50651 L 201.467448 23.50651 C 202.851562 23.50651 203.973958 22.378906 203.973958 20.986979 L 203.973958 17.459635 C 203.973958 16.067708 202.851562 14.940104 201.467448 14.940104 Z M 201.467448 14.940104 " transform="matrix(3,0,0,3,0,0)"/>
<path style="fill:none;stroke-width:0.5;stroke-linecap:butt;stroke-linejoin:round;stroke:rgb(0%,0%,0%);stroke-opacity:1;stroke-miterlimit:4;" d="M 208.144531 14.940104 L 208.138021 14.940104 C 206.753906 14.940104 205.63151 16.067708 205.63151 17.459635 L 205.63151 20.986979 C 205.63151 22.378906 206.753906 23.50651 208.138021 23.50651 L 208.144531 23.50651 C 209.528646 23.50651 210.64974 22.378906 210.64974 20.986979 L 210.64974 17.459635 C 210.64974 16.067708 209.528646 14.940104 208.144531 14.940104 Z M 208.144531 14.940104 " transform="matrix(3,0,0,3,0,0)"/>
<path style="fill:none;stroke-width:0.5;stroke-linecap:butt;stroke-linejoin:round;stroke:rgb(0%,0%,0%);stroke-opacity:1;stroke-miterlimit:4;" d="M 214.813802 14.940104 L 214.808594 14.940104 C 213.424479 14.940104 212.302083 16.067708 212.302083 17.459635 L 212.302083 20.986979 C 212.302083 22.378906 213.424479 23.50651 214.808594 23.50651 L 214.813802 23.50651 C 216.197917 23.50651 217.320312 22.378906 217.320312 20.986979 L 217.320312 17.459635 C 217.320312 16.067708 216.197917 14.940104 214.813802 14.940104 Z M 214.813802 14.940104 " transform="matrix(3,0,0,3,0,0)"/>
<path style="fill:none;stroke-width:0.5;stroke-linecap:butt;stroke-linejoin:round;stroke:rgb(0%,0%,0%);stroke-opacity:1;stroke-miterlimit:4;" d="M 194.803385 34.997396 L 194.803385 26.407552 L 192.286458 26.407552 " transform="matrix(3,0,0,3,0,0)"/>
<path style="fill:none;stroke-width:0.5;stroke-linecap:butt;stroke-linejoin:round;stroke:rgb(0%,0%,0%);stroke-opacity:1;stroke-miterlimit:4;" d="M 192.286458 34.979167 L 197.303385 34.979167 " transform="matrix(3,0,0,3,0,0)"/>
<path style="fill:none;stroke-width:0.5;stroke-linecap:butt;stroke-linejoin:round;stroke:rgb(0%,0%,0%);stroke-opacity:1;stroke-miterlimit:4;" d="M 208.14974 34.997396 L 208.14974 26.407552 L 205.63151 26.407552 " transform="matrix(3,0,0,3,0,0)"/>
<path style="fill:none;stroke-width:0.5;stroke-linecap:butt;stroke-linejoin:round;stroke:rgb(0%,0%,0%);stroke-opacity:1;stroke-miterlimit:4;" d="M 205.63151 34.979167 L 210.64974 34.979167 " transform="matrix(3,0,0,3,0,0)"/>
<path style="fill:none;stroke-width:0.5;stroke-linecap:butt;stroke-linejoin:round;stroke:rgb(0%,0%,0%);stroke-opacity:1;stroke-miterlimit:4;" d="M 214.820312 34.997396 L 214.820312 26.407552 L 212.302083 26.407552 " transform="matrix(3,0,0,3,0,0)"/>
<path style="fill:none;stroke-width:0.5;stroke-linecap:butt;stroke-linejoin:round;stroke:rgb(0%,0%,0%);stroke-opacity:1;stroke-miterlimit:4;" d="M 212.302083 34.979167 L 217.320312 34.979167 " transform="matrix(3,0,0,3,0,0)"/>
<path style="fill:none;stroke-width:0.5;stroke-linecap:butt;stroke-linejoin:round;stroke:rgb(0%,0%,0%);stroke-opacity:1;stroke-miterlimit:4;" d="M 201.467448 26.407552 L 201.46224 26.407552 C 200.078125 26.407552 198.955729 27.535156 198.955729 28.925781 L 198.955729 32.454427 C 198.955729 33.845052 200.078125 34.972656 201.46224 34.972656 L 201.467448 34.972656 C 202.851562 34.972656 203.973958 33.845052 203.973958 32.454427 L 203.973958 28.925781 C 203.973958 27.535156 202.851562 26.407552 201.467448 26.407552 Z M 201.467448 26.407552 " transform="matrix(3,0,0,3,0,0)"/>
<path style="fill:none;stroke-width:0.5;stroke-linecap:butt;stroke-linejoin:round;stroke:rgb(0%,0%,0%);stroke-opacity:1;stroke-miterlimit:4;" d="M 196.045573 65.621094 L 165.369792 65.621094 C 164.072917 65.621094 163.020833 66.677083 163.020833 67.981771 L 163.020833 93.811198 C 163.020833 95.114583 164.072917 96.171875 165.369792 96.171875 L 196.045573 96.171875 C 197.342448 96.171875 198.393229 95.114583 198.393229 93.811198 L 198.393229 67.981771 C 198.393229 66.677083 197.342448 65.621094 196.045573 65.621094 Z M 196.045573 65.621094 " transform="matrix(3,0,0,3,0,0)"/>
<path style="fill:none;stroke-width:0.5;stroke-linecap:butt;stroke-linejoin:round;stroke:rgb(0%,0%,0%);stroke-opacity:1;stroke-miterlimit:4;" d="M 171.089844 79.429688 L 171.089844 70.839844 L 168.571615 70.839844 " transform="matrix(3,0,0,3,0,0)"/>
<path style="fill:none;stroke-width:0.5;stroke-linecap:butt;stroke-linejoin:round;stroke:rgb(0%,0%,0%);stroke-opacity:1;stroke-miterlimit:4;" d="M 168.571615 79.40625 L 173.588542 79.40625 " transform="matrix(3,0,0,3,0,0)"/>
<path style="fill:none;stroke-width:0.5;stroke-linecap:butt;stroke-linejoin:round;stroke:rgb(0%,0%,0%);stroke-opacity:1;stroke-miterlimit:4;" d="M 177.753906 70.839844 L 177.747396 70.839844 C 176.364583 70.839844 175.242188 71.967448 175.242188 73.359375 L 175.242188 76.886719 C 175.242188 78.278646 176.364583 79.40625 177.747396 79.40625 L 177.753906 79.40625 C 179.136719 79.40625 180.259115 78.278646 180.259115 76.886719 L 180.259115 73.359375 C 180.259115 71.967448 179.136719 70.839844 177.753906 70.839844 Z M 177.753906 70.839844 " transform="matrix(3,0,0,3,0,0)"/>
<path style="fill:none;stroke-width:0.5;stroke-linecap:butt;stroke-linejoin:round;stroke:rgb(0%,0%,0%);stroke-opacity:1;stroke-miterlimit:4;" d="M 184.429688 70.839844 L 184.424479 70.839844 C 183.040365 70.839844 181.917969 71.967448 181.917969 73.359375 L 181.917969 76.886719 C 181.917969 78.278646 183.040365 79.40625 184.424479 79.40625 L 184.429688 79.40625 C 185.8125 79.40625 186.934896 78.278646 186.934896 76.886719 L 186.934896 73.359375 C 186.934896 71.967448 185.8125 70.839844 184.429688 70.839844 Z M 184.429688 70.839844 " transform="matrix(3,0,0,3,0,0)"/>
<path style="fill:none;stroke-width:0.5;stroke-linecap:butt;stroke-linejoin:round;stroke:rgb(0%,0%,0%);stroke-opacity:1;stroke-miterlimit:4;" d="M 191.10026 70.839844 L 191.09375 70.839844 C 189.709635 70.839844 188.588542 71.967448 188.588542 73.359375 L 188.588542 76.886719 C 188.588542 78.278646 189.709635 79.40625 191.09375 79.40625 L 191.10026 79.40625 C 192.484375 79.40625 193.605469 78.278646 193.605469 76.886719 L 193.605469 73.359375 C 193.605469 71.967448 192.484375 70.839844 191.10026 70.839844 Z M 191.10026 70.839844 " transform="matrix(3,0,0,3,0,0)"/>
<path style="fill:none;stroke-width:0.5;stroke-linecap:butt;stroke-linejoin:round;stroke:rgb(0%,0%,0%);stroke-opacity:1;stroke-miterlimit:4;" d="M 171.089844 90.897135 L 171.089844 82.313802 L 168.571615 82.313802 " transform="matrix(3,0,0,3,0,0)"/>
<path style="fill:none;stroke-width:0.5;stroke-linecap:butt;stroke-linejoin:round;stroke:rgb(0%,0%,0%);stroke-opacity:1;stroke-miterlimit:4;" d="M 168.571615 90.878906 L 173.588542 90.878906 " transform="matrix(3,0,0,3,0,0)"/>
<path style="fill:none;stroke-width:0.5;stroke-linecap:butt;stroke-linejoin:round;stroke:rgb(0%,0%,0%);stroke-opacity:1;stroke-miterlimit:4;" d="M 184.436198 90.897135 L 184.436198 82.313802 L 181.917969 82.313802 " transform="matrix(3,0,0,3,0,0)"/>
<path style="fill:none;stroke-width:0.5;stroke-linecap:butt;stroke-linejoin:round;stroke:rgb(0%,0%,0%);stroke-opacity:1;stroke-miterlimit:4;" d="M 181.917969 90.878906 L 186.934896 90.878906 " transform="matrix(3,0,0,3,0,0)"/>
<path style="fill:none;stroke-width:0.5;stroke-linecap:butt;stroke-linejoin:round;stroke:rgb(0%,0%,0%);stroke-opacity:1;stroke-miterlimit:4;" d="M 191.105469 90.897135 L 191.105469 82.313802 L 188.588542 82.313802 " transform="matrix(3,0,0,3,0,0)"/>
<path style="fill:none;stroke-width:0.5;stroke-linecap:butt;stroke-linejoin:round;stroke:rgb(0%,0%,0%);stroke-opacity:1;stroke-miterlimit:4;" d="M 188.588542 90.878906 L 193.605469 90.878906 " transform="matrix(3,0,0,3,0,0)"/>
<path style="fill:none;stroke-width:0.5;stroke-linecap:butt;stroke-linejoin:round;stroke:rgb(0%,0%,0%);stroke-opacity:1;stroke-miterlimit:4;" d="M 177.753906 82.313802 L 177.747396 82.313802 C 176.364583 82.313802 175.242188 83.441406 175.242188 84.832031 L 175.242188 88.360677 C 175.242188 89.751302 176.364583 90.878906 177.747396 90.878906 L 177.753906 90.878906 C 179.136719 90.878906 180.259115 89.751302 180.259115 88.360677 L 180.259115 84.832031 C 180.259115 83.441406 179.136719 82.313802 177.753906 82.313802 Z M 177.753906 82.313802 " transform="matrix(3,0,0,3,0,0)"/>
<path style="fill:none;stroke-width:0.5;stroke-linecap:butt;stroke-linejoin:round;stroke:rgb(0%,0%,0%);stroke-opacity:1;stroke-miterlimit:4;" d="M 219.601562 109.925781 L 198.877604 109.925781 C 197.997396 109.925781 197.286458 110.641927 197.286458 111.526042 L 197.286458 128.979167 C 197.286458 129.861979 197.997396 130.579427 198.877604 130.579427 L 219.601562 130.579427 C 220.480469 130.579427 221.19401 129.861979 221.19401 128.979167 L 221.19401 111.526042 C 221.19401 110.641927 220.480469 109.925781 219.601562 109.925781 Z M 219.601562 109.925781 " transform="matrix(3,0,0,3,0,0)"/>
<path style="fill:none;stroke-width:0.5;stroke-linecap:butt;stroke-linejoin:round;stroke:rgb(0%,0%,0%);stroke-opacity:1;stroke-miterlimit:4;" d="M 167.191406 32.490885 L 156.824219 32.490885 C 156.385417 32.490885 156.03125 32.847656 156.03125 33.28776 L 156.03125 42.018229 C 156.03125 42.458333 156.385417 42.815104 156.824219 42.815104 L 167.191406 42.815104 C 167.630208 42.815104 167.984375 42.458333 167.984375 42.018229 L 167.984375 33.28776 C 167.984375 32.847656 167.630208 32.490885 167.191406 32.490885 Z M 167.191406 32.490885 " transform="matrix(3,0,0,3,0,0)"/>
<path style="fill:none;stroke-width:0.5;stroke-linecap:butt;stroke-linejoin:round;stroke:rgb(0%,0%,0%);stroke-opacity:1;stroke-miterlimit:4;" d="M 59.503906 22.714844 L 49.135417 22.714844 C 48.697917 22.714844 48.342448 23.071615 48.342448 23.511719 L 48.342448 32.242188 C 48.342448 32.682292 48.697917 33.039062 49.135417 33.039062 L 59.503906 33.039062 C 59.941406 33.039062 60.296875 32.682292 60.296875 32.242188 L 60.296875 23.511719 C 60.296875 23.071615 59.941406 22.714844 59.503906 22.714844 Z M 59.503906 22.714844 " transform="matrix(3,0,0,3,0,0)"/>
<path style="fill:none;stroke-width:0.5;stroke-linecap:butt;stroke-linejoin:round;stroke:rgb(0%,0%,0%);stroke-opacity:1;stroke-miterlimit:4;" d="M 132.757812 114.092448 L 122.390625 114.092448 C 121.951823 114.092448 121.596354 114.450521 121.596354 114.890625 L 121.596354 123.61849 C 121.596354 124.059896 121.951823 124.415365 122.390625 124.415365 L 132.757812 124.415365 C 133.196615 124.415365 133.550781 124.059896 133.550781 123.61849 L 133.550781 114.890625 C 133.550781 114.450521 133.196615 114.092448 132.757812 114.092448 Z M 132.757812 114.092448 " transform="matrix(3,0,0,3,0,0)"/>
<path style="fill:none;stroke-width:0.5;stroke-linecap:butt;stroke-linejoin:round;stroke:rgb(0%,0%,0%);stroke-opacity:1;stroke-miterlimit:4;" d="M 202.733073 119.257812 L 202.733073 113.454427 L 201.032552 113.454427 " transform="matrix(3,0,0,3,0,0)"/>
<path style="fill:none;stroke-width:0.5;stroke-linecap:butt;stroke-linejoin:round;stroke:rgb(0%,0%,0%);stroke-opacity:1;stroke-miterlimit:4;" d="M 201.032552 119.244792 L 204.421875 119.244792 " transform="matrix(3,0,0,3,0,0)"/>
<path style="fill:none;stroke-width:0.5;stroke-linecap:butt;stroke-linejoin:round;stroke:rgb(0%,0%,0%);stroke-opacity:1;stroke-miterlimit:4;" d="M 208.93099 115.157552 C 208.93099 114.217448 208.171875 113.454427 207.235677 113.454427 C 206.299479 113.454427 205.541667 114.217448 205.541667 115.157552 L 205.541667 117.541667 C 205.541667 118.483073 206.299479 119.244792 207.235677 119.244792 C 208.171875 119.244792 208.93099 118.483073 208.93099 117.541667 Z M 208.93099 115.157552 " transform="matrix(3,0,0,3,0,0)"/>
<path style="fill:none;stroke-width:0.5;stroke-linecap:butt;stroke-linejoin:round;stroke:rgb(0%,0%,0%);stroke-opacity:1;stroke-miterlimit:4;" d="M 213.446615 115.157552 C 213.446615 114.217448 212.6875 113.454427 211.751302 113.454427 C 210.815104 113.454427 210.057292 114.217448 210.057292 115.157552 L 210.057292 117.541667 C 210.057292 118.483073 210.815104 119.244792 211.751302 119.244792 C 212.6875 119.244792 213.446615 118.483073 213.446615 117.541667 Z M 213.446615 115.157552 " transform="matrix(3,0,0,3,0,0)"/>
<path style="fill:none;stroke-width:0.5;stroke-linecap:butt;stroke-linejoin:round;stroke:rgb(0%,0%,0%);stroke-opacity:1;stroke-miterlimit:4;" d="M 217.954427 115.157552 C 217.954427 114.217448 217.196615 113.454427 216.260417 113.454427 C 215.325521 113.454427 214.566406 114.217448 214.566406 115.157552 L 214.566406 117.541667 C 214.566406 118.483073 215.325521 119.244792 216.260417 119.244792 C 217.196615 119.244792 217.954427 118.483073 217.954427 117.541667 Z M 217.954427 115.157552 " transform="matrix(3,0,0,3,0,0)"/>
<path style="fill:none;stroke-width:0.5;stroke-linecap:butt;stroke-linejoin:round;stroke:rgb(0%,0%,0%);stroke-opacity:1;stroke-miterlimit:4;" d="M 202.733073 127.014323 L 202.733073 121.209635 L 201.032552 121.209635 " transform="matrix(3,0,0,3,0,0)"/>
<path style="fill:none;stroke-width:0.5;stroke-linecap:butt;stroke-linejoin:round;stroke:rgb(0%,0%,0%);stroke-opacity:1;stroke-miterlimit:4;" d="M 201.032552 126.996094 L 204.421875 126.996094 " transform="matrix(3,0,0,3,0,0)"/>
<path style="fill:none;stroke-width:0.5;stroke-linecap:butt;stroke-linejoin:round;stroke:rgb(0%,0%,0%);stroke-opacity:1;stroke-miterlimit:4;" d="M 211.75651 127.014323 L 211.75651 121.209635 L 210.057292 121.209635 " transform="matrix(3,0,0,3,0,0)"/>
<path style="fill:none;stroke-width:0.5;stroke-linecap:butt;stroke-linejoin:round;stroke:rgb(0%,0%,0%);stroke-opacity:1;stroke-miterlimit:4;" d="M 210.057292 126.996094 L 213.446615 126.996094 " transform="matrix(3,0,0,3,0,0)"/>
<path style="fill:none;stroke-width:0.5;stroke-linecap:butt;stroke-linejoin:round;stroke:rgb(0%,0%,0%);stroke-opacity:1;stroke-miterlimit:4;" d="M 216.266927 127.014323 L 216.266927 121.209635 L 214.566406 121.209635 " transform="matrix(3,0,0,3,0,0)"/>
<path style="fill:none;stroke-width:0.5;stroke-linecap:butt;stroke-linejoin:round;stroke:rgb(0%,0%,0%);stroke-opacity:1;stroke-miterlimit:4;" d="M 214.566406 126.996094 L 217.954427 126.996094 " transform="matrix(3,0,0,3,0,0)"/>
<path style="fill:none;stroke-width:0.5;stroke-linecap:butt;stroke-linejoin:round;stroke:rgb(0%,0%,0%);stroke-opacity:1;stroke-miterlimit:4;" d="M 208.93099 122.914062 C 208.93099 121.972656 208.171875 121.209635 207.235677 121.209635 C 206.299479 121.209635 205.541667 121.972656 205.541667 122.914062 L 205.541667 125.298177 C 205.541667 126.239583 206.299479 127.002604 207.235677 127.002604 C 208.171875 127.002604 208.93099 126.239583 208.93099 125.298177 Z M 208.93099 122.914062 " transform="matrix(3,0,0,3,0,0)"/>
<path style="fill-rule:nonzero;fill:rgb(100%,100%,100%);fill-opacity:1;stroke-width:0.5;stroke-linecap:butt;stroke-linejoin:round;stroke:rgb(0%,0%,0%);stroke-opacity:1;stroke-miterlimit:4;" d="M 97.925781 121.860677 L 77.201823 121.860677 C 76.321615 121.860677 75.609375 122.578125 75.609375 123.460938 L 75.609375 140.914062 C 75.609375 141.798177 76.321615 142.514323 77.201823 142.514323 L 97.925781 142.514323 C 98.804688 142.514323 99.516927 141.798177 99.516927 140.914062 L 99.516927 123.460938 C 99.516927 122.578125 98.804688 121.860677 97.925781 121.860677 Z M 97.925781 121.860677 " transform="matrix(3,0,0,3,0,0)"/>
<path style="fill:none;stroke-width:0.5;stroke-linecap:butt;stroke-linejoin:round;stroke:rgb(0%,0%,0%);stroke-opacity:1;stroke-miterlimit:4;" d="M 81.0625 131.192708 L 81.0625 125.390625 L 79.355469 125.390625 " transform="matrix(3,0,0,3,0,0)"/>
<path style="fill:none;stroke-width:0.5;stroke-linecap:butt;stroke-linejoin:round;stroke:rgb(0%,0%,0%);stroke-opacity:1;stroke-miterlimit:4;" d="M 79.355469 131.18099 L 82.751302 131.18099 " transform="matrix(3,0,0,3,0,0)"/>
<path style="fill:none;stroke-width:0.5;stroke-linecap:butt;stroke-linejoin:round;stroke:rgb(0%,0%,0%);stroke-opacity:1;stroke-miterlimit:4;" d="M 87.260417 127.092448 C 87.260417 126.152344 86.502604 125.390625 85.566406 125.390625 C 84.630208 125.390625 83.871094 126.152344 83.871094 127.092448 L 83.871094 129.477865 C 83.871094 130.417969 84.630208 131.18099 85.566406 131.18099 C 86.502604 131.18099 87.260417 130.417969 87.260417 129.477865 Z M 87.260417 127.092448 " transform="matrix(3,0,0,3,0,0)"/>
<path style="fill:none;stroke-width:0.5;stroke-linecap:butt;stroke-linejoin:round;stroke:rgb(0%,0%,0%);stroke-opacity:1;stroke-miterlimit:4;" d="M 91.769531 127.092448 C 91.769531 126.152344 91.011719 125.390625 90.075521 125.390625 C 89.139323 125.390625 88.380208 126.152344 88.380208 127.092448 L 88.380208 129.477865 C 88.380208 130.417969 89.139323 131.18099 90.075521 131.18099 C 91.011719 131.18099 91.769531 130.417969 91.769531 129.477865 Z M 91.769531 127.092448 " transform="matrix(3,0,0,3,0,0)"/>
<path style="fill:none;stroke-width:0.5;stroke-linecap:butt;stroke-linejoin:round;stroke:rgb(0%,0%,0%);stroke-opacity:1;stroke-miterlimit:4;" d="M 96.278646 127.092448 C 96.278646 126.152344 95.520833 125.390625 94.584635 125.390625 C 93.648438 125.390625 92.889323 126.152344 92.889323 127.092448 L 92.889323 129.477865 C 92.889323 130.417969 93.648438 131.18099 94.584635 131.18099 C 95.520833 131.18099 96.278646 130.417969 96.278646 129.477865 Z M 96.278646 127.092448 " transform="matrix(3,0,0,3,0,0)"/>
<path style="fill:none;stroke-width:0.5;stroke-linecap:butt;stroke-linejoin:round;stroke:rgb(0%,0%,0%);stroke-opacity:1;stroke-miterlimit:4;" d="M 81.0625 138.949219 L 81.0625 133.145833 L 79.355469 133.145833 " transform="matrix(3,0,0,3,0,0)"/>
<path style="fill:none;stroke-width:0.5;stroke-linecap:butt;stroke-linejoin:round;stroke:rgb(0%,0%,0%);stroke-opacity:1;stroke-miterlimit:4;" d="M 79.355469 138.93099 L 82.751302 138.93099 " transform="matrix(3,0,0,3,0,0)"/>
<path style="fill:none;stroke-width:0.5;stroke-linecap:butt;stroke-linejoin:round;stroke:rgb(0%,0%,0%);stroke-opacity:1;stroke-miterlimit:4;" d="M 90.080729 138.949219 L 90.080729 133.145833 L 88.380208 133.145833 " transform="matrix(3,0,0,3,0,0)"/>
<path style="fill:none;stroke-width:0.5;stroke-linecap:butt;stroke-linejoin:round;stroke:rgb(0%,0%,0%);stroke-opacity:1;stroke-miterlimit:4;" d="M 88.380208 138.93099 L 91.769531 138.93099 " transform="matrix(3,0,0,3,0,0)"/>
<path style="fill:none;stroke-width:0.5;stroke-linecap:butt;stroke-linejoin:round;stroke:rgb(0%,0%,0%);stroke-opacity:1;stroke-miterlimit:4;" d="M 94.589844 138.949219 L 94.589844 133.145833 L 92.889323 133.145833 " transform="matrix(3,0,0,3,0,0)"/>
<path style="fill:none;stroke-width:0.5;stroke-linecap:butt;stroke-linejoin:round;stroke:rgb(0%,0%,0%);stroke-opacity:1;stroke-miterlimit:4;" d="M 92.889323 138.93099 L 96.278646 138.93099 " transform="matrix(3,0,0,3,0,0)"/>
<path style="fill:none;stroke-width:0.5;stroke-linecap:butt;stroke-linejoin:round;stroke:rgb(0%,0%,0%);stroke-opacity:1;stroke-miterlimit:4;" d="M 87.260417 134.848958 C 87.260417 133.908854 86.502604 133.145833 85.566406 133.145833 C 84.630208 133.145833 83.871094 133.908854 83.871094 134.848958 L 83.871094 137.234375 C 83.871094 138.174479 84.630208 138.9375 85.566406 138.9375 C 86.502604 138.9375 87.260417 138.174479 87.260417 137.234375 Z M 87.260417 134.848958 " transform="matrix(3,0,0,3,0,0)"/>
<path style="fill:none;stroke-width:0.5;stroke-linecap:butt;stroke-linejoin:round;stroke:rgb(0%,0%,0%);stroke-opacity:1;stroke-miterlimit:4;" d="M 65.567708 47.803385 L 34.893229 47.803385 C 33.596354 47.803385 32.545573 48.859375 32.545573 50.16276 L 32.545573 75.99349 C 32.545573 77.296875 33.596354 78.352865 34.893229 78.352865 L 65.567708 78.352865 C 66.864583 78.352865 67.916667 77.296875 67.916667 75.99349 L 67.916667 50.16276 C 67.916667 48.859375 66.864583 47.803385 65.567708 47.803385 Z M 65.567708 47.803385 " transform="matrix(3,0,0,3,0,0)"/>
<path style="fill:none;stroke-width:0.5;stroke-linecap:butt;stroke-linejoin:round;stroke:rgb(0%,0%,0%);stroke-opacity:1;stroke-miterlimit:4;" d="M 40.613281 73.097656 L 40.613281 64.507812 L 38.095052 64.507812 " transform="matrix(3,0,0,3,0,0)"/>
<path style="fill:none;stroke-width:0.5;stroke-linecap:butt;stroke-linejoin:round;stroke:rgb(0%,0%,0%);stroke-opacity:1;stroke-miterlimit:4;" d="M 38.095052 73.072917 L 43.106771 73.072917 " transform="matrix(3,0,0,3,0,0)"/>
<path style="fill:none;stroke-width:0.5;stroke-linecap:butt;stroke-linejoin:round;stroke:rgb(0%,0%,0%);stroke-opacity:1;stroke-miterlimit:4;" d="M 53.959635 73.097656 L 53.959635 64.507812 L 51.441406 64.507812 " transform="matrix(3,0,0,3,0,0)"/>
<path style="fill:none;stroke-width:0.5;stroke-linecap:butt;stroke-linejoin:round;stroke:rgb(0%,0%,0%);stroke-opacity:1;stroke-miterlimit:4;" d="M 51.441406 73.072917 L 56.453125 73.072917 " transform="matrix(3,0,0,3,0,0)"/>
<path style="fill:none;stroke-width:0.5;stroke-linecap:butt;stroke-linejoin:round;stroke:rgb(0%,0%,0%);stroke-opacity:1;stroke-miterlimit:4;" d="M 60.628906 73.097656 L 60.628906 64.507812 L 58.110677 64.507812 " transform="matrix(3,0,0,3,0,0)"/>
<path style="fill:none;stroke-width:0.5;stroke-linecap:butt;stroke-linejoin:round;stroke:rgb(0%,0%,0%);stroke-opacity:1;stroke-miterlimit:4;" d="M 58.110677 73.072917 L 63.128906 73.072917 " transform="matrix(3,0,0,3,0,0)"/>
<path style="fill:none;stroke-width:0.5;stroke-linecap:butt;stroke-linejoin:round;stroke:rgb(0%,0%,0%);stroke-opacity:1;stroke-miterlimit:4;" d="M 47.277344 64.507812 L 47.270833 64.507812 C 45.886719 64.507812 44.765625 65.635417 44.765625 67.026042 L 44.765625 70.554688 C 44.765625 71.945312 45.886719 73.072917 47.270833 73.072917 L 47.277344 73.072917 C 48.661458 73.072917 49.782552 71.945312 49.782552 70.554688 L 49.782552 67.026042 C 49.782552 65.635417 48.661458 64.507812 47.277344 64.507812 Z M 47.277344 64.507812 " transform="matrix(3,0,0,3,0,0)"/>
<path style="fill:none;stroke-width:0.5;stroke-linecap:butt;stroke-linejoin:round;stroke:rgb(0%,0%,0%);stroke-opacity:1;stroke-miterlimit:4;" d="M 47.283854 61.623698 L 47.283854 53.033854 L 44.765625 53.033854 " transform="matrix(3,0,0,3,0,0)"/>
<path style="fill:none;stroke-width:0.5;stroke-linecap:butt;stroke-linejoin:round;stroke:rgb(0%,0%,0%);stroke-opacity:1;stroke-miterlimit:4;" d="M 44.765625 61.60026 L 49.782552 61.60026 " transform="matrix(3,0,0,3,0,0)"/>
<path style="fill:none;stroke-width:0.5;stroke-linecap:butt;stroke-linejoin:round;stroke:rgb(0%,0%,0%);stroke-opacity:1;stroke-miterlimit:4;" d="M 60.641927 61.623698 L 60.641927 53.033854 L 58.123698 53.033854 " transform="matrix(3,0,0,3,0,0)"/>
<path style="fill:none;stroke-width:0.5;stroke-linecap:butt;stroke-linejoin:round;stroke:rgb(0%,0%,0%);stroke-opacity:1;stroke-miterlimit:4;" d="M 58.123698 61.60026 L 63.140625 61.60026 " transform="matrix(3,0,0,3,0,0)"/>
<path style="fill:none;stroke-width:0.5;stroke-linecap:butt;stroke-linejoin:round;stroke:rgb(0%,0%,0%);stroke-opacity:1;stroke-miterlimit:4;" d="M 40.606771 53.033854 L 40.601562 53.033854 C 39.217448 53.033854 38.095052 54.161458 38.095052 55.553385 L 38.095052 59.080729 C 38.095052 60.472656 39.217448 61.60026 40.601562 61.60026 L 40.606771 61.60026 C 41.990885 61.60026 43.113281 60.472656 43.113281 59.080729 L 43.113281 55.553385 C 43.113281 54.161458 41.990885 53.033854 40.606771 53.033854 Z M 40.606771 53.033854 " transform="matrix(3,0,0,3,0,0)"/>
<path style="fill:none;stroke-width:0.5;stroke-linecap:butt;stroke-linejoin:round;stroke:rgb(0%,0%,0%);stroke-opacity:1;stroke-miterlimit:4;" d="M 53.953125 53.033854 L 53.946615 53.033854 C 52.563802 53.033854 51.441406 54.161458 51.441406 55.553385 L 51.441406 59.080729 C 51.441406 60.472656 52.563802 61.60026 53.946615 61.60026 L 53.953125 61.60026 C 55.33724 61.60026 56.459635 60.472656 56.459635 59.080729 L 56.459635 55.553385 C 56.459635 54.161458 55.33724 53.033854 53.953125 53.033854 Z M 53.953125 53.033854 " transform="matrix(3,0,0,3,0,0)"/>
<path style="fill-rule:nonzero;fill:rgb(88.627452%,92.156863%,93.725491%);fill-opacity:1;stroke-width:0.5;stroke-linecap:butt;stroke-linejoin:round;stroke:rgb(0%,0%,0%);stroke-opacity:1;stroke-miterlimit:4;" d="M 102.34375 106.549479 C 130.790365 106.549479 153.851562 83.371094 153.851562 54.779948 C 153.851562 26.188802 130.790365 3.011719 102.34375 3.011719 C 73.897135 3.011719 50.835938 26.188802 50.835938 54.779948 C 50.835938 83.371094 73.897135 106.549479 102.34375 106.549479 Z M 102.34375 106.549479 " transform="matrix(3,0,0,3,0,0)"/>
<path style="fill-rule:nonzero;fill:rgb(0%,0%,0%);fill-opacity:1;stroke-width:0.5;stroke-linecap:butt;stroke-linejoin:round;stroke:rgb(0%,0%,0%);stroke-opacity:1;stroke-miterlimit:4;" d="M 102.34375 103.045573 C 128.865885 103.045573 150.365885 81.436198 150.365885 54.779948 C 150.365885 28.123698 128.865885 6.515625 102.34375 6.515625 C 75.822917 6.515625 54.322917 28.123698 54.322917 54.779948 C 54.322917 81.436198 75.822917 103.045573 102.34375 103.045573 Z M 102.34375 103.045573 " transform="matrix(3,0,0,3,0,0)"/>
<path style="fill-rule:nonzero;fill:rgb(100%,100%,100%);fill-opacity:1;stroke-width:0.5;stroke-linecap:butt;stroke-linejoin:round;stroke:rgb(0%,0%,0%);stroke-opacity:1;stroke-miterlimit:4;" d="M 147.751302 51.78125 L 147.751302 39.061198 C 144.458333 29.455729 138.235677 21.22526 130.14974 15.440104 L 105.177083 15.440104 C 103.5 15.440104 102.144531 16.802083 102.144531 18.486979 L 102.144531 51.78125 C 102.144531 53.466146 103.5 54.829427 105.177083 54.829427 L 144.71875 54.829427 C 146.394531 54.829427 147.751302 53.466146 147.751302 51.78125 Z M 147.751302 51.78125 " transform="matrix(3,0,0,3,0,0)"/>
<path style="fill-rule:nonzero;fill:rgb(0%,50.196081%,100%);fill-opacity:1;stroke-width:0.5;stroke-linecap:butt;stroke-linejoin:round;stroke:rgb(0%,0%,0%);stroke-opacity:1;stroke-miterlimit:4;" d="M 130.634115 49.208333 C 135.226562 49.208333 138.950521 45.466146 138.950521 40.848958 C 138.950521 36.233073 135.226562 32.490885 130.634115 32.490885 C 126.040365 32.490885 122.317708 36.233073 122.317708 40.848958 C 122.317708 45.466146 126.040365 49.208333 130.634115 49.208333 Z M 130.634115 49.208333 " transform="matrix(3,0,0,3,0,0)"/>
<path style="fill-rule:nonzero;fill:rgb(0%,50.196081%,100%);fill-opacity:1;stroke-width:0.5;stroke-linecap:butt;stroke-linejoin:round;stroke:rgb(0%,0%,0%);stroke-opacity:1;stroke-miterlimit:4;" d="M 119.260417 37.770833 C 123.854167 37.770833 127.576823 34.028646 127.576823 29.41276 C 127.576823 24.796875 123.854167 21.054688 119.260417 21.054688 C 114.667969 21.054688 110.945312 24.796875 110.945312 29.41276 C 110.945312 34.028646 114.667969 37.770833 119.260417 37.770833 Z M 119.260417 37.770833 " transform="matrix(3,0,0,3,0,0)"/>
<path style="fill-rule:nonzero;fill:rgb(0%,50.196081%,100%);fill-opacity:1;stroke-width:0.5;stroke-linecap:butt;stroke-linejoin:round;stroke:rgb(0%,0%,0%);stroke-opacity:1;stroke-miterlimit:4;" d="M 124.945312 48.532552 C 132.308594 48.532552 138.278646 42.532552 138.278646 35.13151 C 138.278646 27.729167 132.308594 21.729167 124.945312 21.729167 C 117.579427 21.729167 111.610677 27.729167 111.610677 35.13151 C 111.610677 42.532552 117.579427 48.532552 124.945312 48.532552 Z M 124.945312 48.532552 " transform="matrix(3,0,0,3,0,0)"/>
<path style="fill-rule:nonzero;fill:rgb(100%,100%,100%);fill-opacity:1;stroke-width:0.5;stroke-linecap:butt;stroke-linejoin:round;stroke:rgb(0%,0%,0%);stroke-opacity:1;stroke-miterlimit:4;" d="M 124.714844 43.179688 C 123.170573 43.179688 121.640625 42.722656 120.610677 41.950521 C 120.102865 41.572917 119.575521 41.08724 119.575521 40.363281 C 119.575521 39.523438 120.302083 38.544271 121.234375 38.544271 C 121.664062 38.544271 121.979167 38.751302 122.415365 39.036458 L 122.486979 39.085938 C 123.238281 39.571615 123.872396 39.876302 124.739583 39.876302 C 125.653646 39.876302 126.717448 39.511719 126.717448 38.483073 C 126.717448 37.613281 125.75 37.132812 124.152344 36.438802 C 122.209635 35.60026 119.794271 34.559896 119.794271 31.682292 C 119.794271 28.804688 121.949219 27.095052 125.14974 27.095052 C 126.572917 27.095052 127.85026 27.447917 128.950521 28.141927 C 129.441406 28.445312 130.005208 28.902344 130.005208 29.667969 C 130.005208 30.507812 129.303385 31.486979 128.394531 31.486979 C 128.03776 31.486979 127.752604 31.329427 127.329427 31.092448 L 127.226562 31.03776 C 126.529948 30.660156 125.907552 30.404948 125.15625 30.404948 C 124.084635 30.404948 123.394531 30.854167 123.394531 31.554688 C 123.394531 32.253906 124.285156 32.679688 125.75651 33.30599 C 127.679688 34.134115 130.3125 35.259115 130.3125 38.355469 C 130.3125 41.244792 128.0625 43.186198 124.709635 43.186198 Z M 124.714844 43.179688 " transform="matrix(3,0,0,3,0,0)"/>
<path style="fill-rule:nonzero;fill:rgb(100%,100%,100%);fill-opacity:1;stroke-width:0.5;stroke-linecap:butt;stroke-linejoin:round;stroke:rgb(0%,0%,0%);stroke-opacity:1;stroke-miterlimit:4;" d="M 87.96224 23.664062 L 65.640625 23.664062 C 62.184896 27.776042 59.40625 32.472656 57.463542 37.588542 L 57.463542 49.695312 C 57.463542 50.89974 58.4375 51.878906 59.636719 51.878906 L 87.96224 51.878906 C 89.161458 51.878906 90.135417 50.89974 90.135417 49.695312 L 90.135417 25.847656 C 90.135417 24.643229 89.161458 23.664062 87.96224 23.664062 Z M 87.96224 23.664062 " transform="matrix(3,0,0,3,0,0)"/>
<path style="fill-rule:nonzero;fill:rgb(0%,50.196081%,100%);fill-opacity:1;stroke-width:0.5;stroke-linecap:butt;stroke-linejoin:round;stroke:rgb(0%,0%,0%);stroke-opacity:1;stroke-miterlimit:4;" d="M 79.428385 28.324219 L 68.177083 28.324219 C 66.270833 28.324219 64.726562 29.876302 64.726562 31.791667 L 64.726562 43.751302 C 64.726562 45.666667 66.270833 47.21875 68.177083 47.21875 L 79.428385 47.21875 C 81.334635 47.21875 82.878906 45.666667 82.878906 43.751302 L 82.878906 31.791667 C 82.878906 29.876302 81.334635 28.324219 79.428385 28.324219 Z M 79.428385 28.324219 " transform="matrix(3,0,0,3,0,0)"/>
<path style="fill-rule:nonzero;fill:rgb(100%,100%,100%);fill-opacity:1;stroke-width:0.5;stroke-linecap:butt;stroke-linejoin:round;stroke:rgb(0%,0%,0%);stroke-opacity:1;stroke-miterlimit:4;" d="M 76.46224 34.936198 C 77.110677 34.936198 77.945312 34.90625 77.945312 34.90625 L 77.945312 32.570312 C 77.945312 32.570312 77.684896 32.540365 76.075521 32.442708 C 74.464844 32.345052 72.480469 32.898438 72.480469 35.453125 L 72.480469 37.947917 L 70.174479 37.947917 L 70.174479 40.477865 L 72.480469 40.477865 L 72.480469 47.21875 L 75.397135 47.21875 L 75.397135 40.477865 L 77.236979 40.477865 L 77.721354 37.947917 L 75.397135 37.947917 L 75.397135 35.940104 C 75.397135 35.289062 75.815104 34.936198 76.46224 34.936198 Z M 76.46224 34.936198 " transform="matrix(3,0,0,3,0,0)"/>
<path style="fill-rule:nonzero;fill:rgb(100%,100%,100%);fill-opacity:1;stroke-width:0.5;stroke-linecap:butt;stroke-linejoin:round;stroke:rgb(0%,0%,0%);stroke-opacity:1;stroke-miterlimit:4;" d="M 114.364583 64.507812 L 74.822917 64.507812 C 73.145833 64.507812 71.790365 65.869792 71.790365 67.55599 L 71.790365 92.022135 C 80.095052 98.908854 90.734375 103.052083 102.34375 103.052083 C 107.604167 103.052083 112.657552 102.1875 117.390625 100.61849 L 117.390625 67.55599 C 117.390625 65.869792 116.035156 64.507812 114.358073 64.507812 Z M 114.364583 64.507812 " transform="matrix(3,0,0,3,0,0)"/>
<path style="fill-rule:nonzero;fill:rgb(0%,50.196081%,100%);fill-opacity:1;stroke-width:0.5;stroke-linecap:butt;stroke-linejoin:round;stroke:rgb(0%,0%,0%);stroke-opacity:1;stroke-miterlimit:4;" d="M 99.045573 92.040365 L 85.548177 92.040365 C 82.721354 92.040365 80.433594 89.740885 80.433594 86.901042 L 80.433594 78.152344 C 80.433594 77.161458 81.231771 76.364583 82.21224 76.364583 L 95.709635 76.364583 C 98.536458 76.364583 100.825521 78.664062 100.825521 81.503906 L 100.825521 90.252604 C 100.825521 91.24349 100.026042 92.040365 99.045573 92.040365 Z M 102.972656 87.848958 L 107.106771 91.809896 C 107.730469 92.40625 108.760417 91.96224 108.760417 91.097656 L 108.760417 77.294271 C 108.760417 76.43099 107.730469 75.986979 107.106771 76.583333 L 102.972656 80.542969 C 102.441406 81.054688 102.138021 81.765625 102.138021 82.507812 L 102.138021 85.878906 C 102.138021 86.621094 102.441406 87.332031 102.972656 87.84375 Z M 102.972656 87.848958 " transform="matrix(3,0,0,3,0,0)"/>
<path style="fill-rule:nonzero;fill:rgb(88.627452%,92.156863%,93.725491%);fill-opacity:1;stroke-width:0.5;stroke-linecap:butt;stroke-linejoin:round;stroke:rgb(0%,0%,0%);stroke-opacity:1;stroke-miterlimit:4;" d="M 177.221354 136.496094 L 183.654948 130.03125 C 183.954427 129.729167 184.441406 129.729167 184.742188 130.029948 L 185.511719 130.804688 C 186.123698 131.420573 186.119792 132.414062 185.511719 133.023438 L 180.204427 138.358073 C 179.592448 138.972656 178.604167 138.96875 177.997396 138.358073 L 177.226562 137.584635 C 176.927083 137.282552 176.927083 136.792969 177.226562 136.490885 Z M 177.221354 136.496094 " transform="matrix(3,0,0,3,0,0)"/>
<path style="fill:none;stroke-width:0.5;stroke-linecap:butt;stroke-linejoin:round;stroke:rgb(0%,0%,0%);stroke-opacity:1;stroke-miterlimit:4;" d="M 1.93099 50.515625 L 13.05599 50.515625 C 14.048177 50.515625 14.852865 51.325521 14.852865 52.322917 L 14.852865 63.223958 C 14.852865 64.221354 14.048177 65.03125 13.05599 65.03125 L 1.93099 65.03125 " transform="matrix(3,0,0,3,0,0)"/>
<path style="fill:none;stroke-width:0.5;stroke-linecap:butt;stroke-linejoin:round;stroke:rgb(0%,0%,0%);stroke-opacity:1;stroke-miterlimit:4;" d="M 228.565104 78.097656 L 217.446615 78.097656 C 216.454427 78.097656 215.648438 77.289062 215.648438 76.291667 L 215.648438 65.389323 C 215.648438 64.391927 216.454427 63.583333 217.446615 63.583333 L 228.565104 63.583333 " transform="matrix(3,0,0,3,0,0)"/>
<path style="fill:none;stroke-width:0.5;stroke-linecap:butt;stroke-linejoin:round;stroke:rgb(0%,0%,0%);stroke-opacity:1;stroke-miterlimit:4;" d="M 178.860677 7.884115 L 168.49349 7.884115 C 168.054688 7.884115 167.700521 8.240885 167.700521 8.68099 L 167.700521 17.410156 C 167.700521 17.85026 168.054688 18.207031 168.49349 18.207031 L 178.860677 18.207031 C 179.299479 18.207031 179.653646 17.85026 179.653646 17.410156 L 179.653646 8.68099 C 179.653646 8.240885 179.299479 7.884115 178.860677 7.884115 Z M 178.860677 7.884115 " transform="matrix(3,0,0,3,0,0)"/>
<path style="fill-rule:nonzero;fill:rgb(100%,100%,100%);fill-opacity:1;stroke-width:0.5;stroke-linecap:butt;stroke-linejoin:round;stroke:rgb(0%,0%,0%);stroke-opacity:1;stroke-miterlimit:4;" d="M 131.130208 78.578125 L 135.065104 81.833333 C 141.092448 74.477865 144.71875 65.054688 144.71875 54.779948 C 144.71875 52.182292 144.476562 49.640625 144.028646 47.164062 L 139.016927 48.083333 C 139.410156 50.253906 139.622396 52.49349 139.622396 54.779948 C 139.622396 63.820312 136.432292 72.105469 131.130208 78.578125 Z M 131.130208 78.578125 " transform="matrix(3,0,0,3,0,0)"/>
<path style="fill-rule:nonzero;fill:rgb(100%,100%,100%);fill-opacity:1;stroke-width:0.5;stroke-linecap:butt;stroke-linejoin:round;stroke:rgb(0%,0%,0%);stroke-opacity:1;stroke-miterlimit:4;" d="M 127.510417 82.404948 C 123.467448 86.127604 118.613281 88.96224 113.233073 90.610677 L 114.721354 95.514323 C 120.834635 93.640625 126.355469 90.410156 130.949219 86.182292 L 127.505208 82.404948 Z M 127.510417 82.404948 " transform="matrix(3,0,0,3,0,0)"/>
</g>
</svg>
